<svg 
  xmlns="http://www.w3.org/2000/svg" 
  data-name="Layer 1" 
  width="48px"
  height="48px"
  viewBox="0 0 319.21 319.21"
>
  <path 
    d="M29.61 69.11h11v181h-11zM51.61 69.11h11v181h-11zM256.61 69.11h11v181h-11zM278.61 69.11h11v181h-11zM12.61 256.11h89v11h-89zM217.61 256.11h89v11h-89zM12.61 52.11h294v11h-294zM234.61 69.11v69.5a69.58 69.58 0 0 1-69.5-69.5h-11a69.58 69.58 0 0 1-69.5 69.5v-69.5h-11v181h11v-100.5a80.63 80.63 0 0 0 75-51.32 80.61 80.61 0 0 0 75 51.32v100.5h11v-181z"
    fill="#FFFFFF"
    />
</svg>