<?xml version="1.0" encoding="utf-8"?>
<svg id="Layer_1" data-name="Layer 1" viewBox="0 0 675.63 134.51" xmlns="http://www.w3.org/2000/svg">
  <path d="M76.86 63.77C83.8 68.29 89.93 77.49 89.93 89a35 35 0 0 1-34.87 34.87H10v-113h44.25a32.53 32.53 0 0 1 32.62 32.56c0 8.72-5.49 16.79-10.01 20.34zm-42.63-9.69h17.44a10.5 10.5 0 0 0 0-21H34.23zm18.25 47.47a12.92 12.92 0 0 0 0-25.83H34.23v25.83zM193.88 106.91c-7.38 8.16-19.46 17.57-43.93 17.57-32.47 0-58.2-24.16-58.2-57.73 0-34.83 28.71-56.75 59.14-56.75 22 0 36.87 10.82 43 16.94L178 45.57c-2.82-3-11.92-12.39-26.67-12.39-18.51 0-31.84 15.21-31.84 33.57 0 17.72 11.76 34 32.78 34 12.24 0 21.5-6.43 26.2-11.14zM226.66 65.37v59.14h-25.72V10l50.67 42.86L302 10v114.51h-25.6V65.37l-24.87 21.29z" class="cls-1" style="fill: rgb(164, 166, 190);"/>
  <path d="M280.21 64.08h114.55v6.31H280.21z" class="cls-1" transform="rotate(90 337.485 67.235)" style="fill: rgb(164, 166, 190);"/>
  <path d="M372.94 124.62V92.81l1.25-.4 14.32 14.06 14.33-14.06 1.25.4v31.81h-6.47v-19.27l-8.62 8.77h-.93l-8.64-8.77v19.27zM440.32 119.14l-2.32 5.48h-6.66l14.06-31.81 14 31.81h-6.6l-2.25-5.48zm5.09-13.07l-3.17 7.46h6.33zM487.05 93.6h14.13a15.21 15.21 0 0 1 15 15.44c0 8.58-6.53 15.58-15 15.58h-14.13zm12.41 25.08a9.64 9.64 0 0 0 0-19.27h-6.07v19.27zM551.07 115.51v9.11h-6.33v-31h13.66a10.3 10.3 0 0 1 10.23 10.29 12.63 12.63 0 0 1-4.89 9.77c3.43 1.72 4.89 5.61 4.89 9.17v1.79h-6.34v-1.46c0-3.43-2.51-7.65-7.06-7.65zm5.68-16.1h-5.68v10.29h5.68a5.15 5.15 0 0 0 0-10.29zM597.67 93.6H604v31h-6.33zM635.09 93.6h14.12a15.21 15.21 0 0 1 15 15.44c0 8.58-6.54 15.58-15 15.58h-14.12zm12.4 25.08a9.64 9.64 0 1 0 0-19.27h-6.07v19.27zM397.45 31.65a9.34 9.34 0 0 1-9.24 9.17H373V9.8h15a8.3 8.3 0 0 1 8.38 8.32 8.25 8.25 0 0 1-3.23 6.2 8.31 8.31 0 0 1 4.3 7.33zm-18.15-10h7.26a3 3 0 1 0 0-6.07h-7.26zm7.52 13.2a3.71 3.71 0 0 0 3.7-3.76 3.74 3.74 0 0 0-3.7-3.76h-7.52v7.52zM436.19 35.34l-2.31 5.48h-6.66L441.27 9l14.06 31.81h-6.66l-2.25-5.48zm5.08-13.07l-3.16 7.46h6.33zM487.41 9.8h6.33v25.08h12.67v5.94h-19zM539.88 9.8h6.33v25.08h12.67v5.94h-19zM592.35 9.8h18.34v5.94h-12v5.94H610v5.81h-11.32v7.39H611v5.94h-18.65zM650.43 15.87h-7.66V9.8h21.51v6.07h-7.52v25h-6.33zM373.53 58.16h9a9.87 9.87 0 0 1 0 19.74h-9zm7.9 16a6.14 6.14 0 0 0 0-12.27h-3.87v12.23zM403.05 58.16h11.68v3.78h-7.64v3.78h7.22v3.69h-7.22v4.71h7.81v3.78h-11.85zM453.33 57.69a9.6 9.6 0 0 1 3.32.55v4.33a6.16 6.16 0 0 0-3.32-1 6.5 6.5 0 0 0 0 13 6.05 6.05 0 0 0 3.32-1v4.33a10.65 10.65 0 0 1-3.32.55 10.4 10.4 0 1 1 0-20.8zM471.72 74.41l-1.46 3.49H466l9-20.25 9 20.25h-4.25l-1.42-3.49zm4.84-24.11h4.11l-5.16 5.46h-2.94zM475 66.1l-2 4.74h4zM503.94 78.4l-5.08-10-1.81 9.45h-3.78l4-20.25 6.72 13.15 6.72-13.15 3.95 20.25h-3.78l-1.88-9.4zM529.68 74.41l-1.46 3.49H524l8.95-20.25 9 20.25h-4.25l-1.42-3.49zm3.24-8.31l-2 4.74h4zM556.27 72.1v5.8h-4V58.16h8.69a6.54 6.54 0 0 1 6.51 6.55 8.06 8.06 0 0 1-3.11 6.22c2.19 1.09 3.11 3.57 3.11 5.84v1.13h-4V77c0-2.18-1.6-4.87-4.49-4.87zm3.61-10.25h-3.61v6.55h3.61a3.28 3.28 0 1 0 0-6.55zM582.22 74.41l-1.46 3.49h-4.25l9-20.25 8.95 20.25h-4.25l-1.42-3.49zm3.24-8.31l-2 4.74h4zM622.88 58.16h9a9.87 9.87 0 0 1 0 19.74h-9zm7.9 16a6.14 6.14 0 0 0 0-12.27h-3.87v12.23zM652.41 58.16h11.67v3.78h-7.64v3.78h7.22v3.69h-7.22v4.71h7.81v3.78h-11.84z" class="cls-1" style="fill: rgb(164, 166, 190);"/>
</svg>