<?xml version="1.0" encoding="utf-8"?>
<svg id="Layer_1" data-name="Layer 1" viewBox="0 0 36.48 18.12" xmlns="http://www.w3.org/2000/svg" >
<path style="fill: rgb(164, 166, 190);" class="cls-1" d="M13.38 9.43h.68v.89c0 .23.15.29.34.29a1.08 1.08 0 0 0 .3 0v.53a1.6 1.6 0 0 1-.5.09.75.75 0 0 1-.82-.76zM13 8.67h.06c.27 0 .34-.16.36-.41v-.19H14v.59h.58v.56H13zM16.67 9.67a.43.43 0 0 0-.46-.49.67.67 0 0 0-.28.06v-.52a.93.93 0 0 1 .49-.14c.69 0 .93.47.93 1v1.56h-.68zM15 7.66h.68v3.49H15zM18.87 8.58a1.14 1.14 0 0 1 1.19 1.29v.22h-1.53a.75.75 0 0 1 0-.23.56.56 0 0 1 0-.2h.87a.5.5 0 0 0-.53-.54c-.33 0-.57.26-.57.73s.24.82.67.82a.8.8 0 0 0 .62-.29l.37.35a1.2 1.2 0 0 1-1.07.5 1.21 1.21 0 0 1-1.25-1.33 1.25 1.25 0 0 1 1.23-1.32M21.37 9.43h.68v.89c0 .23.14.29.33.29a1 1 0 0 0 .3 0v.53a1.49 1.49 0 0 1-.5.09.74.74 0 0 1-.81-.76zM21 8.67h.06c.27 0 .33-.16.36-.41v-.19h.59v.59h.58v.56H21zM23.92 8.79a.69.69 0 0 1 .51-.21.78.78 0 0 1 .21 0v.66h-.26a1.21 1.21 0 0 0-.46.08zM23 8.66h.68v2.49H23zM26.21 10.66V9.52a.38.38 0 0 0-.43-.41.48.48 0 0 0-.48.33l-.51-.2a1 1 0 0 1 1.05-.66c.78 0 1.05.4 1.05.94v1.12a1.8 1.8 0 0 0 .05.51h-.68a1.54 1.54 0 0 1-.05-.49m-.68-.95h.46v.44h-.29c-.21 0-.35.11-.35.31s.1.29.32.29a.57.57 0 0 0 .32-.08v.13a1.23 1.23 0 0 0 0 .29.85.85 0 0 1-.55.14.73.73 0 0 1-.79-.73.82.82 0 0 1 .85-.78M28.43 10l.46-1.34h.69l-.85 2.19zM27 8.66h.73l.86 2.49h-.67zM30.8 8.58A1.14 1.14 0 0 1 32 9.87a1.35 1.35 0 0 1 0 .22h-1.54a.75.75 0 0 1 0-.23.56.56 0 0 1 0-.2h.87a.5.5 0 0 0-.53-.54c-.33 0-.57.26-.57.73s.24.82.66.82a.78.78 0 0 0 .62-.29l.38.35a1.3 1.3 0 0 1-2.32-.83 1.25 1.25 0 0 1 1.23-1.32M32.31 7.66h.68v3.49h-.68zM14.28 14.83a.63.63 0 0 0 .38.11c.34 0 .6-.27.6-.74s-.26-.73-.6-.73a.54.54 0 0 0-.38.12v-.54a.85.85 0 0 1 .52-.16 1.16 1.16 0 0 1 1.2 1.3 1.22 1.22 0 0 1-1.2 1.32.9.9 0 0 1-.48-.11zm-.9-2.83h.68v3.5h-.68zM17.17 13.09a.68.68 0 0 1 .51-.2h.21v.66h-.26a1.21 1.21 0 0 0-.46.08zm-.9-.13H17v2.5h-.68zM19.46 15v-1.18a.38.38 0 0 0-.43-.4.47.47 0 0 0-.48.32l-.52-.2a1 1 0 0 1 1.06-.65c.78 0 1.05.39 1.05.93V15a1.84 1.84 0 0 0 .05.51h-.68a1.6 1.6 0 0 1-.05-.5m-.68-1h.46v.44h-.29c-.21 0-.35.12-.35.31a.28.28 0 0 0 .32.3.57.57 0 0 0 .32-.09v.14a1.2 1.2 0 0 0 0 .28.85.85 0 0 1-.55.15.73.73 0 0 1-.79-.73.82.82 0 0 1 .85-.79M22.27 14a.43.43 0 0 0-.47-.49.63.63 0 0 0-.27.06V13a.93.93 0 0 1 .49-.14.87.87 0 0 1 .93 1v1.57h-.68zm-1.63-1h.68v2.5h-.68zM25.14 12h.67v3a2 2 0 0 0 .05.45h-.65a1.32 1.32 0 0 1-.07-.48zm-.7.93a.9.9 0 0 1 .48.1v.56a.73.73 0 0 0-.39-.09c-.34 0-.58.28-.58.75s.24.71.58.71a.6.6 0 0 0 .39-.11V15a1.35 1.35 0 0 0 0 .31 1 1 0 0 1-.56.18 1.15 1.15 0 0 1-1.16-1.3 1.24 1.24 0 0 1 1.21-1.33M2.45 15.17h4.71c2.46 0 4.08-1.47 4.08-3.68a3.6 3.6 0 0 0-3.9-3.72H5.4v2h1.51c1.2 0 1.86.64 1.86 1.68a1.67 1.67 0 0 1-1.9 1.66h-2v-8H2.45zm0-10.55H6.6c1.19 0 1.8.61 1.8 1.58A1.57 1.57 0 0 1 8 7.32 4.47 4.47 0 0 1 10 8a2.86 2.86 0 0 0 .81-2C10.84 4 9.48 2.59 7 2.59H2.45zM13.1 2.32A1.66 1.66 0 1 1 11.43 4a1.67 1.67 0 0 1 1.67-1.68"/>
</svg>