<svg xmlns="http://www.w3.org/2000/svg" data-name="Layer 1" viewBox="0 0 239.55 115.21">
  <path d="M109.15 9a.83.83 0 1 1-.83-.83.83.83 0 0 1 .83.83M109.15 12a.83.83 0 1 1-.83-.83.83.83 0 0 1 .83.83M109.15 15.16a.83.83 0 1 1-.83-.83.83.83 0 0 1 .83.83M109.15 18.35a.83.83 0 1 1-.83-.83.83.83 0 0 1 .83.83M109.15 21.78a.83.83 0 1 1-.83-.83.83.83 0 0 1 .83.83M109.15 25.21a.83.83 0 1 1-.83-.83.83.83 0 0 1 .83.83M109.15 28.73a.83.83 0 1 1-.83-.82.83.83 0 0 1 .83.82M109.15 32.26a.83.83 0 1 1-.83-.82.83.83 0 0 1 .83.82M109.15 36.08a.83.83 0 1 1-.83-.82.83.83 0 0 1 .83.82M109.15 39.91a.83.83 0 1 1-.83-.83.83.83 0 0 1 .83.83M109.15 43.92a.83.83 0 1 1-.83-.82.83.83 0 0 1 .83.82M109.15 48a.83.83 0 1 1-.83-.83.83.83 0 0 1 .83.83M109.15 52.35a.83.83 0 1 1-.83-.82.83.83 0 0 1 .83.82M109.15 57.25a.83.83 0 1 1-.83-.82.83.83 0 0 1 .83.82M109.15 62.64a.83.83 0 1 1-.83-.82.83.83 0 0 1 .83.82M109.15 69a.83.83 0 1 1-.83-.82.83.83 0 0 1 .83.82M109.15 75.87a.83.83 0 1 1-.83-.82.83.83 0 0 1 .83.82M109.15 83.7a.83.83 0 1 1-.83-.82.83.83 0 0 1 .83.82M109.15 92.54a.83.83 0 1 1-.83-.83.83.83 0 0 1 .83.83M109.15 102.34a.83.83 0 1 1-.83-.83.83.83 0 0 1 .83.83M45.53 53.81h48.48v2.03H45.53zM42.78 57.26h53.86v2.03H42.78zM40.24 60.72h59.05v2.03H40.24zM45.53 28.18h48.48v2.03H45.53zM55.34 26.88l14.43-4.32 14.12 4.32h5.9l-20.02-6.2-20.33 6.2h5.9z" style="fill: rgb(16, 19, 63);"/>
  <path d="M45.53 26.88l24.08-7.37 24.4 7.37v-2.19l-24.24-7.47-24.24 7.47v2.19zM48.37 51.17a1.57 1.57 0 0 0 1.73 1.53 1.46 1.46 0 0 0 1.63-1.53V31.46h-1.27v19.76s0 .36-.46.36-.36-.46-.36-.46V31.46h-1.27zM56.35 52.7h1.02V39.93l1.27 12.77h1.07V31.46h-1.07v11.35l-1.27-11.35h-1.02V52.7zM64.43 52.7h3.25v-1.12h-1.83v-9.6h1.38v-1.17h-1.38v-8.29h1.38v-1.06h-2.8V52.7zM83.13 37.76V33a1.59 1.59 0 0 0-1.68-1.52A1.52 1.52 0 0 0 79.83 33v18.17a1.49 1.49 0 0 0 1.62 1.53 1.55 1.55 0 0 0 1.68-1.53v-5.33h-1.27v5.33a.4.4 0 0 1-.41.41c-.38 0-.45-.41-.45-.41V33a.45.45 0 0 1 .45-.46c.41 0 .41.46.41.46v4.78zM91.21 33a1.47 1.47 0 0 0-1.68-1.52A1.58 1.58 0 0 0 87.76 33v18.17a1.55 1.55 0 0 0 1.67 1.53 1.59 1.59 0 0 0 1.78-1.53zM90 51.17s.05.41-.46.41-.5-.41-.5-.41V33a.45.45 0 0 1 .45-.46.47.47 0 0 1 .51.46zM73.83 51.17s0 .41-.33.38-.33-.38-.33-.38v-5.33h-1.32v5.33a1.49 1.49 0 0 0 1.63 1.53 1.55 1.55 0 0 0 1.67-1.53v-4.59c0-2.5-2-7.25-2-8.82V33s0-.46.31-.46.35.46.35.46v4.78h1.32V33a1.46 1.46 0 0 0-1.62-1.52A1.57 1.57 0 0 0 71.85 33v4.07c0 2.66 2 7.16 2 9.22zM117.77 103.23v-5.52h2.44a3.2 3.2 0 0 1 1.12.15 1.21 1.21 0 0 1 .61.53 1.48 1.48 0 0 1 .23.83 1.37 1.37 0 0 1-.38 1 1.93 1.93 0 0 1-1.17.51 1.68 1.68 0 0 1 .44.27 3.88 3.88 0 0 1 .61.74l1 1.5h-.92l-.73-1.15a8.24 8.24 0 0 0-.53-.76 1.42 1.42 0 0 0-.37-.37 1.21 1.21 0 0 0-.33-.15h-1.25v2.45zm.73-3.08h1.57a2.31 2.31 0 0 0 .78-.11.85.85 0 0 0 .43-.33.93.93 0 0 0 .14-.49.83.83 0 0 0-.28-.65 1.38 1.38 0 0 0-.9-.25h-1.74zM126 101.94l.7.09a1.73 1.73 0 0 1-.61 1 1.88 1.88 0 0 1-1.14.34 1.82 1.82 0 0 1-1.39-.54 2.13 2.13 0 0 1-.51-1.52 2.22 2.22 0 0 1 .51-1.56 1.78 1.78 0 0 1 1.35-.56 1.7 1.7 0 0 1 1.31.55 2.14 2.14 0 0 1 .51 1.53 1.36 1.36 0 0 1 0 .18h-3a1.52 1.52 0 0 0 .38 1 1.11 1.11 0 0 0 .83.35 1.06 1.06 0 0 0 .64-.2 1.27 1.27 0 0 0 .42-.66zm-2.22-1.09H126a1.36 1.36 0 0 0-.25-.76 1.05 1.05 0 0 0-.84-.39 1.09 1.09 0 0 0-.79.31 1.24 1.24 0 0 0-.38.84zM127.48 104.76l-.07-.63a1.54 1.54 0 0 0 .38.06.78.78 0 0 0 .37-.08.63.63 0 0 0 .22-.21 3.2 3.2 0 0 0 .2-.5l.07-.17-1.52-4h.73l.83 2.32c.11.29.2.6.29.92.08-.31.17-.61.28-.91l.85-2.33h.68l-1.52 4.06a7.86 7.86 0 0 1-.38.91 1.37 1.37 0 0 1-.41.49 1 1 0 0 1-.56.16 1.28 1.28 0 0 1-.44-.09zM133.22 101.66l.65-.09a1.46 1.46 0 0 0 .24.87.77.77 0 0 0 .58.23.84.84 0 0 0 .48-.13.61.61 0 0 0 .27-.34 2.22 2.22 0 0 0 .08-.69v-3.8h.73v3.76a2.74 2.74 0 0 1-.17 1.07 1.2 1.2 0 0 1-.53.58 1.78 1.78 0 0 1-.85.2 1.41 1.41 0 0 1-1.11-.42 1.71 1.71 0 0 1-.37-1.24zM140 103.23v-.59a1.46 1.46 0 0 1-1.27.68 1.66 1.66 0 0 1-.66-.14 1.07 1.07 0 0 1-.45-.34 1.26 1.26 0 0 1-.21-.5 3.21 3.21 0 0 1 0-.63v-2.48h.59v2.22a3.46 3.46 0 0 0 .05.71.68.68 0 0 0 .27.42.83.83 0 0 0 .51.15 1.16 1.16 0 0 0 .57-.15.93.93 0 0 0 .38-.43 2.23 2.23 0 0 0 .11-.78v-2.14h.67v4zM144.24 102.73a2.23 2.23 0 0 1-.72.45 2.08 2.08 0 0 1-.75.14 1.41 1.41 0 0 1-1-.33 1 1 0 0 1-.35-.82 1.07 1.07 0 0 1 .13-.53 1.1 1.1 0 0 1 .35-.39 1.47 1.47 0 0 1 .49-.22 3.65 3.65 0 0 1 .6-.1 6.35 6.35 0 0 0 1.2-.24 1.53 1.53 0 0 0 0-.18.79.79 0 0 0-.19-.58 1.16 1.16 0 0 0-.77-.23 1.22 1.22 0 0 0-.71.17 1.07 1.07 0 0 0-.34.59l-.66-.09a1.58 1.58 0 0 1 .3-.68 1.34 1.34 0 0 1 .6-.41 2.74 2.74 0 0 1 .9-.14 2.39 2.39 0 0 1 .83.12 1 1 0 0 1 .47.31 1 1 0 0 1 .21.46 2.9 2.9 0 0 1 0 .62v.9a9.75 9.75 0 0 0 0 1.2 1.84 1.84 0 0 0 .17.48h-.7a1.47 1.47 0 0 1-.06-.5zm-.06-1.51a4.81 4.81 0 0 1-1.1.26 2.53 2.53 0 0 0-.59.13.6.6 0 0 0-.27.22.62.62 0 0 0-.09.32.61.61 0 0 0 .2.46.9.9 0 0 0 .6.18 1.38 1.38 0 0 0 .7-.18 1 1 0 0 0 .44-.46 1.55 1.55 0 0 0 .11-.68zM145.92 103.23v-4h.61v.57a1.42 1.42 0 0 1 1.27-.66 1.76 1.76 0 0 1 .66.13 1.07 1.07 0 0 1 .45.34 1.33 1.33 0 0 1 .21.5 3.43 3.43 0 0 1 0 .66v2.46h-.68v-2.43a2 2 0 0 0-.07-.62.69.69 0 0 0-.28-.33 1 1 0 0 0-.48-.12 1.11 1.11 0 0 0-.74.27 1.37 1.37 0 0 0-.32 1v2.18zM156.36 101.29l.73.19a2.44 2.44 0 0 1-.83 1.37 2.29 2.29 0 0 1-1.45.47 2.62 2.62 0 0 1-1.45-.36 2.23 2.23 0 0 1-.85-1 3.69 3.69 0 0 1-.29-1.48 3.19 3.19 0 0 1 .32-1.5 2.28 2.28 0 0 1 .94-1 2.77 2.77 0 0 1 1.34-.33 2.27 2.27 0 0 1 1.39.42 2.18 2.18 0 0 1 .78 1.19l-.71.16a1.71 1.71 0 0 0-.56-.87 1.5 1.5 0 0 0-.92-.28 1.8 1.8 0 0 0-1.06.31 1.62 1.62 0 0 0-.6.82 3.14 3.14 0 0 0-.17 1.06 3.51 3.51 0 0 0 .2 1.22 1.58 1.58 0 0 0 .64.79 1.82 1.82 0 0 0 .94.26 1.54 1.54 0 0 0 1-.36 1.74 1.74 0 0 0 .61-1.08zM160.51 102.73a2.37 2.37 0 0 1-.73.45 2 2 0 0 1-.75.14 1.45 1.45 0 0 1-1-.33 1.14 1.14 0 0 1-.22-1.35 1.2 1.2 0 0 1 .35-.39 1.67 1.67 0 0 1 .49-.22 3.65 3.65 0 0 1 .6-.1 6.49 6.49 0 0 0 1.21-.24v-.18a.75.75 0 0 0-.19-.58 1.14 1.14 0 0 0-.77-.23 1.24 1.24 0 0 0-.71.17 1 1 0 0 0-.33.59l-.66-.09a1.7 1.7 0 0 1 .29-.68 1.34 1.34 0 0 1 .6-.41 2.76 2.76 0 0 1 .91-.14 2.39 2.39 0 0 1 .83.12 1 1 0 0 1 .47.31 1 1 0 0 1 .21.46 4.18 4.18 0 0 1 0 .62v.9a9 9 0 0 0 .05 1.2 1.54 1.54 0 0 0 .17.48h-.71a1.27 1.27 0 0 1-.11-.5zm-.06-1.51a5.06 5.06 0 0 1-1.11.26 2.81 2.81 0 0 0-.59.13.63.63 0 0 0-.26.22.55.55 0 0 0-.1.32.59.59 0 0 0 .21.46.86.86 0 0 0 .6.18 1.31 1.31 0 0 0 .69-.18 1.05 1.05 0 0 0 .45-.46 1.71 1.71 0 0 0 .11-.68zM162.17 103.23v-4h.61v.61a1.66 1.66 0 0 1 .43-.56.79.79 0 0 1 .44-.14 1.33 1.33 0 0 1 .69.22l-.23.63a1 1 0 0 0-.5-.15.62.62 0 0 0-.39.14.68.68 0 0 0-.26.37 2.79 2.79 0 0 0-.11.79v2.09zM164.73 103.23v-5.52h.68v5.52zM166.2 101.23a2 2 0 0 1 .62-1.64 1.84 1.84 0 0 1 1.26-.45 1.78 1.78 0 0 1 1.34.54 2.05 2.05 0 0 1 .53 1.49 2.59 2.59 0 0 1-.24 1.22 1.57 1.57 0 0 1-.67.68 2 2 0 0 1-1 .25 1.81 1.81 0 0 1-1.36-.54 2.18 2.18 0 0 1-.48-1.55zm.7 0a1.73 1.73 0 0 0 .33 1.15 1.13 1.13 0 0 0 1.69 0 1.78 1.78 0 0 0 .33-1.17 1.64 1.64 0 0 0-.34-1.13 1.07 1.07 0 0 0-.83-.38 1.11 1.11 0 0 0-.85.38 1.73 1.73 0 0 0-.33 1.15zM170.47 102l.67-.1a1 1 0 0 0 .31.62 1.1 1.1 0 0 0 .72.21 1 1 0 0 0 .69-.19.59.59 0 0 0 .23-.45.42.42 0 0 0-.2-.36 3.21 3.21 0 0 0-.69-.23 5.86 5.86 0 0 1-1-.32 1 1 0 0 1-.44-.38 1 1 0 0 1-.15-.54 1 1 0 0 1 .12-.49 1.24 1.24 0 0 1 .34-.38 1.44 1.44 0 0 1 .43-.2 2.14 2.14 0 0 1 .58-.08 2.37 2.37 0 0 1 .83.14 1.15 1.15 0 0 1 .52.36 1.52 1.52 0 0 1 .23.62l-.66.09a.72.72 0 0 0-.26-.48 1 1 0 0 0-.61-.17 1.11 1.11 0 0 0-.66.15.45.45 0 0 0-.2.36.35.35 0 0 0 .08.24.6.6 0 0 0 .26.18c.07 0 .27.08.6.17a9.36 9.36 0 0 1 1 .32 1 1 0 0 1 .44.35 1 1 0 0 1 .16.58 1.14 1.14 0 0 1-.19.64 1.26 1.26 0 0 1-.57.46 2.07 2.07 0 0 1-.84.17A1.85 1.85 0 0 1 171 103a1.46 1.46 0 0 1-.53-1zM121.69 75.14l.73.18a2.41 2.41 0 0 1-.83 1.37 2.22 2.22 0 0 1-1.45.47 2.62 2.62 0 0 1-1.45-.36 2.24 2.24 0 0 1-.85-1 3.65 3.65 0 0 1-.29-1.48 3.25 3.25 0 0 1 .33-1.5 2.18 2.18 0 0 1 .93-1 2.78 2.78 0 0 1 1.34-.34 2.28 2.28 0 0 1 1.39.43 2.15 2.15 0 0 1 .78 1.18l-.71.17a1.79 1.79 0 0 0-.56-.88 1.5 1.5 0 0 0-.92-.27 1.81 1.81 0 0 0-1.06.3 1.71 1.71 0 0 0-.6.82 3.46 3.46 0 0 0-.17 1.06 3.52 3.52 0 0 0 .2 1.23 1.52 1.52 0 0 0 .64.78 1.82 1.82 0 0 0 .94.26 1.59 1.59 0 0 0 1-.35 1.8 1.8 0 0 0 .61-1.07zM125.84 76.58a2.68 2.68 0 0 1-.73.45 2 2 0 0 1-.74.13 1.46 1.46 0 0 1-1-.32A1 1 0 0 1 123 76a1.09 1.09 0 0 1 .14-.54 1.07 1.07 0 0 1 .34-.39 2 2 0 0 1 .49-.22 5.63 5.63 0 0 1 .6-.1 6.67 6.67 0 0 0 1.21-.23v-.18a.72.72 0 0 0-.19-.58 1.09 1.09 0 0 0-.77-.23 1.11 1.11 0 0 0-.7.17.94.94 0 0 0-.34.59l-.66-.09a1.69 1.69 0 0 1 .29-.69 1.32 1.32 0 0 1 .6-.4 2.56 2.56 0 0 1 .91-.14 2.39 2.39 0 0 1 .83.12 1.12 1.12 0 0 1 .47.3 1.09 1.09 0 0 1 .21.46 4.35 4.35 0 0 1 0 .63v.9a8.81 8.81 0 0 0 .05 1.19 1.38 1.38 0 0 0 .17.48H126a1.41 1.41 0 0 1-.16-.47zm-.06-1.51a5 5 0 0 1-1.11.25 2.68 2.68 0 0 0-.59.14.56.56 0 0 0-.26.22.51.51 0 0 0-.1.32.57.57 0 0 0 .21.45.88.88 0 0 0 .6.18 1.41 1.41 0 0 0 .69-.17 1 1 0 0 0 .45-.47 1.68 1.68 0 0 0 .11-.68zm-1.32-2.49l.5-1h.89l-.83 1zM129 76.47l.1.59a2.5 2.5 0 0 1-.51.06A1.22 1.22 0 0 1 128 77a.62.62 0 0 1-.29-.31 2.32 2.32 0 0 1-.08-.8V73.6h-.5v-.52h.5v-1l.67-.41v1.4h.7v.52h-.68v2.34a1 1 0 0 0 0 .37.24.24 0 0 0 .11.13.39.39 0 0 0 .23 0zM132.39 75.78l.7.09a1.68 1.68 0 0 1-.62.95 2.07 2.07 0 0 1-2.53-.2 2.11 2.11 0 0 1-.51-1.51 2.2 2.2 0 0 1 .52-1.57 1.74 1.74 0 0 1 1.34-.55 1.71 1.71 0 0 1 1.31.54 2.18 2.18 0 0 1 .51 1.54 1.36 1.36 0 0 1 0 .18h-3a1.49 1.49 0 0 0 .37 1 1.07 1.07 0 0 0 .83.35 1.05 1.05 0 0 0 .64-.19 1.39 1.39 0 0 0 .44-.63zm-2.23-1.09h2.23a1.36 1.36 0 0 0-.25-.76 1.05 1.05 0 0 0-.84-.39 1.06 1.06 0 0 0-.78.32 1.21 1.21 0 0 0-.36.83zM136.52 77.07v-.5a1.24 1.24 0 0 1-1.11.59 1.62 1.62 0 0 1-.88-.26 1.74 1.74 0 0 1-.62-.74 2.45 2.45 0 0 1-.22-1.08 2.94 2.94 0 0 1 .2-1.09 1.58 1.58 0 0 1 1.49-1 1.34 1.34 0 0 1 .64.15 1.27 1.27 0 0 1 .46.4v-2h.67v5.51zm-2.13-2a1.69 1.69 0 0 0 .32 1.14 1 1 0 0 0 .76.38 1 1 0 0 0 .76-.36 1.71 1.71 0 0 0 .31-1.11 1.89 1.89 0 0 0-.32-1.2 1 1 0 0 0-.78-.38.92.92 0 0 0-.75.37 1.81 1.81 0 0 0-.3 1.17zM138.21 77.07v-4h.61v.6a1.63 1.63 0 0 1 .43-.56.75.75 0 0 1 .43-.13 1.3 1.3 0 0 1 .7.22l-.23.62a1.05 1.05 0 0 0-.5-.14.64.64 0 0 0-.4.13.7.7 0 0 0-.25.37 2.48 2.48 0 0 0-.11.79v2.09zM143.39 76.58a2.54 2.54 0 0 1-.73.45 2 2 0 0 1-.74.13 1.46 1.46 0 0 1-1-.32 1 1 0 0 1-.36-.82 1.09 1.09 0 0 1 .14-.54 1 1 0 0 1 .35-.39 1.76 1.76 0 0 1 .48-.22 5.63 5.63 0 0 1 .6-.1 6.67 6.67 0 0 0 1.21-.23v-.18a.72.72 0 0 0-.19-.58 1.09 1.09 0 0 0-.77-.23 1.11 1.11 0 0 0-.7.17 1 1 0 0 0-.34.59l-.66-.09a1.57 1.57 0 0 1 .3-.69 1.24 1.24 0 0 1 .59-.4 2.56 2.56 0 0 1 .91-.14 2.39 2.39 0 0 1 .83.12 1.12 1.12 0 0 1 .47.3 1.09 1.09 0 0 1 .21.46 4 4 0 0 1 0 .63v.9a9.54 9.54 0 0 0 0 1.19 1.38 1.38 0 0 0 .17.48h-.71a1.41 1.41 0 0 1-.06-.49zm-.06-1.51a5 5 0 0 1-1.1.25 2.41 2.41 0 0 0-.59.14.54.54 0 0 0-.27.22.58.58 0 0 0-.1.32.57.57 0 0 0 .21.45.9.9 0 0 0 .6.18 1.41 1.41 0 0 0 .69-.17 1 1 0 0 0 .45-.47 1.68 1.68 0 0 0 .11-.68zM147.41 77.07v-5.51h.73v5.51zM150 77.07h-.63v-5.51h.63v2a1.33 1.33 0 0 1 1.09-.54 1.66 1.66 0 0 1 .7.15 1.39 1.39 0 0 1 .54.41 2.09 2.09 0 0 1 .33.65 2.69 2.69 0 0 1 .12.81 2.27 2.27 0 0 1-.51 1.59 1.58 1.58 0 0 1-1.21.56 1.26 1.26 0 0 1-1.11-.59zm0-2a2.08 2.08 0 0 0 .19 1 1 1 0 0 0 .87.52 1 1 0 0 0 .77-.38 1.79 1.79 0 0 0 .32-1.15 1.74 1.74 0 0 0-.31-1.15 1 1 0 0 0-.75-.38 1 1 0 0 0-.77.39A1.73 1.73 0 0 0 150 75zM156.36 75.78l.7.09a1.68 1.68 0 0 1-.62.95 1.78 1.78 0 0 1-1.14.34 1.83 1.83 0 0 1-1.39-.54 2.11 2.11 0 0 1-.51-1.51 2.2 2.2 0 0 1 .52-1.57 1.74 1.74 0 0 1 1.34-.55 1.71 1.71 0 0 1 1.31.54 2.18 2.18 0 0 1 .51 1.54v.18h-3a1.49 1.49 0 0 0 .37 1 1.08 1.08 0 0 0 .84.35 1 1 0 0 0 .63-.19 1.32 1.32 0 0 0 .44-.63zm-2.22-1.09h2.22a1.29 1.29 0 0 0-.25-.76 1.05 1.05 0 0 0-.84-.39 1.06 1.06 0 0 0-.78.32 1.16 1.16 0 0 0-.35.83zM157.9 77.07v-4h.61v.6a1.63 1.63 0 0 1 .43-.56.75.75 0 0 1 .43-.13 1.3 1.3 0 0 1 .7.22l-.23.62a1.05 1.05 0 0 0-.5-.14.64.64 0 0 0-.4.13.7.7 0 0 0-.25.37 2.48 2.48 0 0 0-.11.79v2.09zM160.22 75.07a2 2 0 0 1 .62-1.64 1.87 1.87 0 0 1 1.25-.44 1.8 1.8 0 0 1 1.35.54A2 2 0 0 1 164 75a2.68 2.68 0 0 1-.23 1.21 1.78 1.78 0 0 1-.67.69 2 2 0 0 1-1 .24 1.77 1.77 0 0 1-1.35-.54 2.12 2.12 0 0 1-.53-1.53zm.69 0a1.7 1.7 0 0 0 .34 1.15 1.12 1.12 0 0 0 1.68 0 1.74 1.74 0 0 0 .33-1.17 1.66 1.66 0 0 0-.33-1.12 1.1 1.1 0 0 0-.84-.38 1 1 0 0 0-.84.38 1.69 1.69 0 0 0-.34 1.14zM167.36 76.58a2.64 2.64 0 0 1-.72.45 2.11 2.11 0 0 1-.75.13 1.46 1.46 0 0 1-1-.32 1 1 0 0 1-.36-.82 1.14 1.14 0 0 1 .49-.93 1.76 1.76 0 0 1 .48-.22 5.91 5.91 0 0 1 .61-.1 6.7 6.7 0 0 0 1.2-.23 1.62 1.62 0 0 0 0-.18.72.72 0 0 0-.2-.58 1.09 1.09 0 0 0-.77-.23 1.11 1.11 0 0 0-.7.17 1 1 0 0 0-.34.59l-.66-.09a1.57 1.57 0 0 1 .3-.69 1.27 1.27 0 0 1 .6-.4 2.5 2.5 0 0 1 .9-.14 2.39 2.39 0 0 1 .83.12 1.12 1.12 0 0 1 .47.3 1.09 1.09 0 0 1 .21.46 3 3 0 0 1 0 .63v.9a9.54 9.54 0 0 0 0 1.19 1.62 1.62 0 0 0 .17.48h-.71a1.41 1.41 0 0 1-.05-.49zm-.06-1.51a4.9 4.9 0 0 1-1.1.25 2.41 2.41 0 0 0-.59.14.54.54 0 0 0-.27.22.57.57 0 0 0-.09.32.56.56 0 0 0 .2.45.9.9 0 0 0 .6.18 1.48 1.48 0 0 0 .7-.17 1 1 0 0 0 .44-.47 1.52 1.52 0 0 0 .11-.68zM169 77.07v-4h.6v.56a1.33 1.33 0 0 1 .5-.47 1.41 1.41 0 0 1 .71-.18 1.34 1.34 0 0 1 .73.18 1 1 0 0 1 .4.52 1.43 1.43 0 0 1 1.23-.7 1.23 1.23 0 0 1 .92.33 1.41 1.41 0 0 1 .32 1v2.74h-.68v-2.49a2 2 0 0 0-.06-.59.67.67 0 0 0-.24-.29.78.78 0 0 0-.41-.11 1 1 0 0 0-.7.28 1.27 1.27 0 0 0-.27.9v2.32h-.68v-2.59a1.15 1.15 0 0 0-.17-.68.63.63 0 0 0-.54-.23 1 1 0 0 0-.53.15.91.91 0 0 0-.35.44 2.62 2.62 0 0 0-.11.84v2.07zM178.18 75.78l.7.09a1.67 1.67 0 0 1-.61.95 2.07 2.07 0 0 1-2.53-.2 2.11 2.11 0 0 1-.51-1.51 2.25 2.25 0 0 1 .51-1.57 1.77 1.77 0 0 1 1.35-.55 1.73 1.73 0 0 1 1.31.54 2.18 2.18 0 0 1 .51 1.54v.18h-3a1.5 1.5 0 0 0 .38 1 1.07 1.07 0 0 0 .83.35 1.05 1.05 0 0 0 .64-.19 1.31 1.31 0 0 0 .42-.63zM176 74.69h2.23a1.36 1.36 0 0 0-.25-.76 1.05 1.05 0 0 0-.84-.39 1.09 1.09 0 0 0-.79.32 1.2 1.2 0 0 0-.35.83zM179.73 77.07v-4h.6v.6a1.63 1.63 0 0 1 .44-.56.73.73 0 0 1 .43-.13 1.3 1.3 0 0 1 .7.22l-.24.62a1 1 0 0 0-.49-.14.62.62 0 0 0-.4.13.7.7 0 0 0-.25.37 2.47 2.47 0 0 0-.12.79v2.09zM182.3 72.34v-.78h.7v.78zm0 4.73v-4h.7v4zM186.61 75.61l.67.08a1.72 1.72 0 0 1-.56 1.08 1.63 1.63 0 0 1-1.1.39 1.73 1.73 0 0 1-1.32-.53 2.19 2.19 0 0 1-.5-1.54A2.81 2.81 0 0 1 184 74a1.47 1.47 0 0 1 .66-.73 1.94 1.94 0 0 1 1-.24 1.64 1.64 0 0 1 1.06.33 1.46 1.46 0 0 1 .53.93l-.65.1a1.1 1.1 0 0 0-.34-.6.84.84 0 0 0-.57-.21 1.06 1.06 0 0 0-.83.37 1.71 1.71 0 0 0-.32 1.16 1.82 1.82 0 0 0 .3 1.17 1 1 0 0 0 .81.36.94.94 0 0 0 .66-.24 1.15 1.15 0 0 0 .3-.79zM190.46 76.58a2.64 2.64 0 0 1-.72.45 2 2 0 0 1-.75.13 1.47 1.47 0 0 1-1-.32 1.15 1.15 0 0 1-.22-1.36 1.2 1.2 0 0 1 .35-.39 2 2 0 0 1 .49-.22 5.21 5.21 0 0 1 .6-.1 6.67 6.67 0 0 0 1.21-.23v-.18a.72.72 0 0 0-.19-.58 1.09 1.09 0 0 0-.77-.23 1.16 1.16 0 0 0-.71.17 1 1 0 0 0-.33.59l-.67-.09a1.69 1.69 0 0 1 .3-.69 1.32 1.32 0 0 1 .6-.4 2.52 2.52 0 0 1 .91-.14 2.43 2.43 0 0 1 .83.12 1.12 1.12 0 0 1 .47.3 1.09 1.09 0 0 1 .21.46 4.35 4.35 0 0 1 0 .63v2.09a1.4 1.4 0 0 0 .18.48h-.71a1.41 1.41 0 0 1-.08-.49zm-.05-1.51a5.16 5.16 0 0 1-1.11.25 2.54 2.54 0 0 0-.59.14.64.64 0 0 0-.27.22.6.6 0 0 0 .12.77.85.85 0 0 0 .59.18 1.42 1.42 0 0 0 .7-.17 1.07 1.07 0 0 0 .45-.47 1.68 1.68 0 0 0 .11-.68zM192.14 77.07v-4h.61v.57A1.43 1.43 0 0 1 194 73a1.59 1.59 0 0 1 .66.13 1 1 0 0 1 .46.34 1.26 1.26 0 0 1 .21.5 4.76 4.76 0 0 1 0 .66v2.45h-.67v-2.44a1.94 1.94 0 0 0-.08-.62.66.66 0 0 0-.28-.32.83.83 0 0 0-.47-.13 1.12 1.12 0 0 0-.75.28 1.35 1.35 0 0 0-.31 1v2.18zM199 76.58a2.54 2.54 0 0 1-.73.45 2 2 0 0 1-.74.13 1.46 1.46 0 0 1-1-.32 1 1 0 0 1-.36-.82 1.14 1.14 0 0 1 .49-.93 1.76 1.76 0 0 1 .48-.22c.14 0 .34-.07.6-.1a6.67 6.67 0 0 0 1.21-.23v-.18a.72.72 0 0 0-.2-.58 1.09 1.09 0 0 0-.77-.23 1.11 1.11 0 0 0-.7.17 1 1 0 0 0-.34.59l-.66-.09a1.57 1.57 0 0 1 .3-.69 1.24 1.24 0 0 1 .59-.4 2.56 2.56 0 0 1 .91-.14 2.39 2.39 0 0 1 .83.12 1.12 1.12 0 0 1 .47.3 1.09 1.09 0 0 1 .21.46 4 4 0 0 1 0 .63v.9a9.54 9.54 0 0 0 0 1.19 1.38 1.38 0 0 0 .17.48h-.71a1.41 1.41 0 0 1-.05-.49zm0-1.51a4.9 4.9 0 0 1-1.1.25 2.41 2.41 0 0 0-.59.14.54.54 0 0 0-.27.22.58.58 0 0 0-.1.32.57.57 0 0 0 .21.45.9.9 0 0 0 .6.18 1.41 1.41 0 0 0 .69-.17 1 1 0 0 0 .45-.47 1.52 1.52 0 0 0 .11-.68zM120.26 85.57v-.5a1.24 1.24 0 0 1-1.12.59 1.58 1.58 0 0 1-.87-.26 1.67 1.67 0 0 1-.62-.74 2.45 2.45 0 0 1-.22-1.08 2.75 2.75 0 0 1 .2-1.09 1.55 1.55 0 0 1 1.48-1 1.32 1.32 0 0 1 1.11.55v-2h.67v5.51zm-2.14-2a1.74 1.74 0 0 0 .32 1.14 1 1 0 0 0 .77.38 1 1 0 0 0 .75-.36 1.65 1.65 0 0 0 .31-1.11 1.89 1.89 0 0 0-.31-1.2 1 1 0 0 0-.78-.38 1 1 0 0 0-.76.37 1.81 1.81 0 0 0-.3 1.17zM124.69 84.28l.7.09a1.73 1.73 0 0 1-.62.95 2.07 2.07 0 0 1-2.53-.2 2.11 2.11 0 0 1-.51-1.51 2.2 2.2 0 0 1 .52-1.57 1.74 1.74 0 0 1 1.34-.55 1.71 1.71 0 0 1 1.31.54 2.18 2.18 0 0 1 .51 1.54 1.36 1.36 0 0 1 0 .18h-3a1.49 1.49 0 0 0 .37 1 1.07 1.07 0 0 0 .83.35 1.05 1.05 0 0 0 .64-.19 1.39 1.39 0 0 0 .44-.63zm-2.23-1.09h2.23a1.36 1.36 0 0 0-.25-.76 1.05 1.05 0 0 0-.84-.39 1.06 1.06 0 0 0-.78.32 1.21 1.21 0 0 0-.36.83zM128.46 85.57v-5.51h1.9a4.78 4.78 0 0 1 1 .08 1.8 1.8 0 0 1 .81.39 2.24 2.24 0 0 1 .65.94 3.6 3.6 0 0 1 .22 1.31 3.84 3.84 0 0 1-.15 1.12 2.59 2.59 0 0 1-.38.8 2 2 0 0 1-.5.5 2.28 2.28 0 0 1-.65.28 4 4 0 0 1-.89.09zm.73-.65h1.18a2.74 2.74 0 0 0 .85-.1 1.22 1.22 0 0 0 .5-.29 1.77 1.77 0 0 0 .4-.69 3.37 3.37 0 0 0 .15-1.07 2.57 2.57 0 0 0-.29-1.33 1.45 1.45 0 0 0-.69-.62 3 3 0 0 0-.94-.11h-1.16zM136.54 85.08a2.64 2.64 0 0 1-.72.45 2.08 2.08 0 0 1-.75.13 1.46 1.46 0 0 1-1-.32 1 1 0 0 1-.35-.82 1.08 1.08 0 0 1 .13-.54 1.1 1.1 0 0 1 .35-.39 1.7 1.7 0 0 1 .49-.22 5.21 5.21 0 0 1 .6-.1 6.52 6.52 0 0 0 1.2-.23 1.62 1.62 0 0 0 0-.18.76.76 0 0 0-.19-.58 1.12 1.12 0 0 0-.78-.23 1.13 1.13 0 0 0-.7.17 1 1 0 0 0-.34.59l-.66-.09a1.57 1.57 0 0 1 .3-.69 1.32 1.32 0 0 1 .6-.4 2.5 2.5 0 0 1 .9-.14 2.39 2.39 0 0 1 .83.12 1.06 1.06 0 0 1 .47.3 1.09 1.09 0 0 1 .21.46 3 3 0 0 1 0 .63v.9a9.54 9.54 0 0 0 0 1.19 1.62 1.62 0 0 0 .17.48h-.7a1.41 1.41 0 0 1-.06-.49zm-.06-1.51a4.9 4.9 0 0 1-1.1.25 2.41 2.41 0 0 0-.59.14.54.54 0 0 0-.27.22.57.57 0 0 0-.09.32.59.59 0 0 0 .2.45.9.9 0 0 0 .6.18 1.48 1.48 0 0 0 .7-.17 1 1 0 0 0 .44-.47 1.52 1.52 0 0 0 .11-.68zM138.22 85.57v-4h.61v.57a1.42 1.42 0 0 1 1.27-.66 1.59 1.59 0 0 1 .66.13 1 1 0 0 1 .45.34 1.26 1.26 0 0 1 .21.5 3.3 3.3 0 0 1 0 .66v2.45h-.68v-2.42a2 2 0 0 0-.07-.62.72.72 0 0 0-.28-.32.86.86 0 0 0-.48-.13 1.12 1.12 0 0 0-.74.28 1.34 1.34 0 0 0-.32 1v2.18zM142.14 85.57V85l2.54-2.92H142.29v-.55h3.27V82l-2.17 2.53-.39.47h2.7v.58zM149 85.08a2.84 2.84 0 0 1-.73.45 2 2 0 0 1-.75.13 1.49 1.49 0 0 1-1-.32 1.15 1.15 0 0 1-.22-1.36 1.2 1.2 0 0 1 .35-.39 2 2 0 0 1 .49-.22 5.21 5.21 0 0 1 .6-.1 6.67 6.67 0 0 0 1.16-.27v-.18a.72.72 0 0 0-.19-.58 1.09 1.09 0 0 0-.77-.23 1.16 1.16 0 0 0-.71.17 1 1 0 0 0-.33.59l-.66-.09a1.69 1.69 0 0 1 .29-.69 1.32 1.32 0 0 1 .6-.4 2.52 2.52 0 0 1 .91-.14 2.39 2.39 0 0 1 .83.12 1.12 1.12 0 0 1 .47.3 1.09 1.09 0 0 1 .21.46 4.35 4.35 0 0 1 0 .63v.9a8.81 8.81 0 0 0 0 1.19 1.38 1.38 0 0 0 .17.48h-.71a1.41 1.41 0 0 1-.01-.45zm-.06-1.51a5.16 5.16 0 0 1-1.11.25 2.68 2.68 0 0 0-.59.14.56.56 0 0 0-.26.22.51.51 0 0 0-.1.32.57.57 0 0 0 .21.45.86.86 0 0 0 .6.18 1.41 1.41 0 0 0 .69-.17 1 1 0 0 0 .45-.47 1.68 1.68 0 0 0 .11-.68zM152.25 85.57l2.12-5.51h.79l2.25 5.51h-.83l-.64-1.67h-2.31l-.6 1.67zm1.59-2.26h1.87l-.57-1.53a11.16 11.16 0 0 1-.39-1.14 6.9 6.9 0 0 1-.3 1zM157.89 85.57v-5.51h.68v5.51zM159.62 80.84v-.78h.68v.78zm0 4.73v-4h.68v4zM163.93 84.11l.67.08a1.72 1.72 0 0 1-.56 1.08 1.63 1.63 0 0 1-1.1.39 1.73 1.73 0 0 1-1.32-.53 2.19 2.19 0 0 1-.5-1.54 2.65 2.65 0 0 1 .22-1.13 1.46 1.46 0 0 1 .65-.73 1.94 1.94 0 0 1 .95-.24 1.69 1.69 0 0 1 1.07.33 1.55 1.55 0 0 1 .53.93l-.66.1a1 1 0 0 0-.34-.6.82.82 0 0 0-.54-.25 1.06 1.06 0 0 0-.83.37 1.71 1.71 0 0 0-.32 1.16 1.76 1.76 0 0 0 .31 1.17 1 1 0 0 0 .8.36 1 1 0 0 0 .67-.24 1.19 1.19 0 0 0 .3-.71zM165.18 80.84v-.78h.68v.78zm0 4.73v-4h.68v4zM169.49 85.08a2.64 2.64 0 0 1-.72.45 2 2 0 0 1-.75.13 1.49 1.49 0 0 1-1-.32 1.15 1.15 0 0 1-.22-1.36 1.2 1.2 0 0 1 .35-.39 2 2 0 0 1 .49-.22 5.21 5.21 0 0 1 .6-.1 6.67 6.67 0 0 0 1.21-.23v-.18a.72.72 0 0 0-.19-.58 1.09 1.09 0 0 0-.77-.23 1.16 1.16 0 0 0-.71.17 1 1 0 0 0-.33.59l-.66-.09a1.69 1.69 0 0 1 .29-.69 1.32 1.32 0 0 1 .6-.4 2.52 2.52 0 0 1 .91-.14 2.43 2.43 0 0 1 .83.12 1.12 1.12 0 0 1 .47.3 1.09 1.09 0 0 1 .21.46 4.35 4.35 0 0 1 0 .63v.9a8.81 8.81 0 0 0 0 1.19 1.2 1.2 0 0 0 .17.48h-.71a1.41 1.41 0 0 1-.07-.49zm-.05-1.51a5.16 5.16 0 0 1-1.11.25 2.54 2.54 0 0 0-.59.14.56.56 0 0 0-.26.22.51.51 0 0 0-.1.32.57.57 0 0 0 .21.45.86.86 0 0 0 .6.18 1.41 1.41 0 0 0 .69-.17 1.07 1.07 0 0 0 .45-.47 1.68 1.68 0 0 0 .11-.68zM172.79 85.57l2.12-5.51h.78l2.31 5.51h-.83l-.64-1.67h-2.31l-.6 1.67zm1.59-2.26h1.87l-.57-1.53c-.18-.46-.31-.84-.4-1.14a6.85 6.85 0 0 1-.29 1zM178.43 85.57v-5.51h.68v5.51zM179.91 83.57a2.06 2.06 0 0 1 .61-1.64 1.9 1.9 0 0 1 1.26-.44 1.76 1.76 0 0 1 1.34.54 2 2 0 0 1 .53 1.49 2.68 2.68 0 0 1-.23 1.21 1.74 1.74 0 0 1-.68.69 2 2 0 0 1-1 .24 1.81 1.81 0 0 1-1.36-.54 2.16 2.16 0 0 1-.47-1.55zm.69 0a1.65 1.65 0 0 0 .34 1.15 1 1 0 0 0 .84.38 1.07 1.07 0 0 0 .84-.38 1.74 1.74 0 0 0 .33-1.17 1.61 1.61 0 0 0-.34-1.12 1.07 1.07 0 0 0-.83-.38 1 1 0 0 0-.84.38 1.64 1.64 0 0 0-.34 1.14zM184.44 85.57v-4h.61v.57a1.43 1.43 0 0 1 1.27-.66 1.59 1.59 0 0 1 .66.13 1 1 0 0 1 .46.34 1.26 1.26 0 0 1 .21.5 4.76 4.76 0 0 1 0 .66v2.45H187v-2.42a1.94 1.94 0 0 0-.08-.62.66.66 0 0 0-.28-.32.83.83 0 0 0-.47-.13 1.12 1.12 0 0 0-.75.28 1.35 1.35 0 0 0-.31 1v2.18zM188.45 84.38l.67-.11a1 1 0 0 0 .31.62 1.14 1.14 0 0 0 .72.21 1 1 0 0 0 .7-.19.54.54 0 0 0 .22-.44.4.4 0 0 0-.2-.36 2.71 2.71 0 0 0-.69-.23 6.6 6.6 0 0 1-1-.33 1 1 0 0 1-.44-.38 1 1 0 0 1-.15-.53 1.09 1.09 0 0 1 .13-.5 1.06 1.06 0 0 1 .33-.37 1.23 1.23 0 0 1 .43-.2 1.85 1.85 0 0 1 .58-.08 2.33 2.33 0 0 1 .83.13 1.11 1.11 0 0 1 .52.37 1.41 1.41 0 0 1 .24.62l-.66.09a.69.69 0 0 0-.27-.48.91.91 0 0 0-.61-.18 1.1 1.1 0 0 0-.66.16.42.42 0 0 0-.2.36.41.41 0 0 0 .08.24.66.66 0 0 0 .26.18l.6.17a9.18 9.18 0 0 1 1 .31 1 1 0 0 1 .45.36 1 1 0 0 1 .16.58 1.12 1.12 0 0 1-.2.63 1.27 1.27 0 0 1-.57.47 2.06 2.06 0 0 1-.84.16 1.92 1.92 0 0 1-1.19-.32 1.56 1.56 0 0 1-.55-.96zM192.32 83.57a2 2 0 0 1 .62-1.64 1.87 1.87 0 0 1 1.25-.44 1.8 1.8 0 0 1 1.35.54 2 2 0 0 1 .52 1.49 2.68 2.68 0 0 1-.23 1.21 1.71 1.71 0 0 1-.67.69 2 2 0 0 1-1 .24 1.77 1.77 0 0 1-1.35-.54 2.12 2.12 0 0 1-.49-1.55zm.7 0a1.7 1.7 0 0 0 .33 1.15 1.12 1.12 0 0 0 1.68 0 1.74 1.74 0 0 0 .33-1.17 1.66 1.66 0 0 0-.33-1.12 1.1 1.1 0 0 0-.84-.38 1 1 0 0 0-.84.38 1.69 1.69 0 0 0-.35 1.14zM197 85.57v-.77h.77v.77a1.41 1.41 0 0 1-.15.69 1 1 0 0 1-.48.4l-.18-.29a.61.61 0 0 0 .31-.28 1 1 0 0 0 .11-.52zM121.37 88.56h.73v3.18a3.62 3.62 0 0 1-.19 1.32 1.62 1.62 0 0 1-.67.8 2.46 2.46 0 0 1-1.29.3 2.63 2.63 0 0 1-1.27-.26 1.52 1.52 0 0 1-.7-.78 3.63 3.63 0 0 1-.21-1.38v-3.18h.73v3.18a3.11 3.11 0 0 0 .13 1.06 1 1 0 0 0 .46.52 1.52 1.52 0 0 0 .79.19 1.5 1.5 0 0 0 1.15-.37 2.08 2.08 0 0 0 .34-1.4zM123.23 94.07v-4h.61v.57a1.43 1.43 0 0 1 1.27-.66 1.59 1.59 0 0 1 .66.13 1 1 0 0 1 .46.34 1.26 1.26 0 0 1 .21.5 4.32 4.32 0 0 1 0 .66v2.45h-.68v-2.42a1.94 1.94 0 0 0-.08-.62.66.66 0 0 0-.28-.32.81.81 0 0 0-.47-.13 1.12 1.12 0 0 0-.75.28 1.35 1.35 0 0 0-.31 1v2.18zM127.52 89.34v-.78h.67v.78zm0 4.73v-4h.67v4zM130.33 94.07l-1.52-4h.72l.86 2.39c.09.26.17.53.25.8.06-.21.15-.46.25-.76l.89-2.43h.7l-1.52 4zM135.81 92.78l.7.09a1.68 1.68 0 0 1-.62.95 1.8 1.8 0 0 1-1.14.34 1.83 1.83 0 0 1-1.39-.54 2.11 2.11 0 0 1-.51-1.51 2.2 2.2 0 0 1 .52-1.57 1.74 1.74 0 0 1 1.34-.55 1.71 1.71 0 0 1 1.31.54 2.18 2.18 0 0 1 .51 1.54 1.36 1.36 0 0 1 0 .18h-3a1.49 1.49 0 0 0 .37 1 1.07 1.07 0 0 0 .83.35 1.05 1.05 0 0 0 .64-.19 1.32 1.32 0 0 0 .44-.63zm-2.23-1.09h2.23a1.36 1.36 0 0 0-.25-.76 1.05 1.05 0 0 0-.84-.39 1.06 1.06 0 0 0-.78.32 1.21 1.21 0 0 0-.36.83zM137.35 94.07v-4h.65v.6a1.63 1.63 0 0 1 .43-.56.75.75 0 0 1 .43-.13 1.3 1.3 0 0 1 .7.22l-.23.62a1.08 1.08 0 0 0-.5-.14.64.64 0 0 0-.4.13.7.7 0 0 0-.25.37 2.48 2.48 0 0 0-.18.82v2.09zM139.65 92.88l.67-.11a1 1 0 0 0 .31.62 1.1 1.1 0 0 0 .72.21 1 1 0 0 0 .69-.19.55.55 0 0 0 .23-.44.42.42 0 0 0-.2-.36 2.71 2.71 0 0 0-.69-.23 6.6 6.6 0 0 1-1-.33.92.92 0 0 1-.44-.38 1 1 0 0 1-.15-.53 1.08 1.08 0 0 1 .12-.5 1.2 1.2 0 0 1 .34-.37 1.23 1.23 0 0 1 .43-.2 1.81 1.81 0 0 1 .58-.08 2.33 2.33 0 0 1 .83.13 1.16 1.16 0 0 1 .52.37 1.55 1.55 0 0 1 .24.62l-.67.09a.68.68 0 0 0-.26-.48.92.92 0 0 0-.61-.18 1.1 1.1 0 0 0-.66.16.42.42 0 0 0-.2.36.35.35 0 0 0 .08.24.6.6 0 0 0 .26.18l.6.17a9.18 9.18 0 0 1 1 .31.93.93 0 0 1 .44.36 1 1 0 0 1 .17.58 1.12 1.12 0 0 1-.2.63 1.27 1.27 0 0 1-.57.47 2.06 2.06 0 0 1-.84.16 1.92 1.92 0 0 1-1.19-.32 1.56 1.56 0 0 1-.55-.96zM143.77 89.34v-.78h.68v.78zm0 4.73v-4h.68v4zM148.07 94.07v-.5a1.24 1.24 0 0 1-1.12.59 1.58 1.58 0 0 1-.87-.26 1.67 1.67 0 0 1-.62-.74 2.45 2.45 0 0 1-.22-1.08 2.75 2.75 0 0 1 .2-1.09 1.55 1.55 0 0 1 1.48-1 1.36 1.36 0 0 1 .65.15 1.27 1.27 0 0 1 .46.4v-2h.67v5.51zm-2.14-2a1.69 1.69 0 0 0 .33 1.14 1 1 0 0 0 1.51 0 1.65 1.65 0 0 0 .31-1.11 1.89 1.89 0 0 0-.31-1.2 1 1 0 0 0-.78-.38 1 1 0 0 0-.76.37 1.81 1.81 0 0 0-.3 1.19zM152.37 93.58a2.64 2.64 0 0 1-.72.45 2.11 2.11 0 0 1-.75.13 1.46 1.46 0 0 1-1-.32 1 1 0 0 1-.36-.82 1.14 1.14 0 0 1 .49-.93 1.76 1.76 0 0 1 .48-.22 5.91 5.91 0 0 1 .61-.1 6.7 6.7 0 0 0 1.2-.23 1.62 1.62 0 0 0 0-.18.72.72 0 0 0-.2-.58 1.09 1.09 0 0 0-.77-.23 1.11 1.11 0 0 0-.7.17 1 1 0 0 0-.34.59l-.66-.09a1.57 1.57 0 0 1 .3-.69 1.27 1.27 0 0 1 .6-.4 2.5 2.5 0 0 1 .9-.14 2.39 2.39 0 0 1 .83.12 1.12 1.12 0 0 1 .47.3 1.09 1.09 0 0 1 .21.46 4 4 0 0 1 0 .63v.9a9.54 9.54 0 0 0 0 1.19 1.62 1.62 0 0 0 .17.48h-.71a1.41 1.41 0 0 1-.05-.49zm-.06-1.51a4.9 4.9 0 0 1-1.1.25 2.41 2.41 0 0 0-.59.14.54.54 0 0 0-.27.22.57.57 0 0 0-.09.32.56.56 0 0 0 .2.45.9.9 0 0 0 .6.18 1.48 1.48 0 0 0 .7-.17 1 1 0 0 0 .44-.47 1.52 1.52 0 0 0 .11-.68zM156.64 94.07v-.5a1.27 1.27 0 0 1-1.12.59 1.62 1.62 0 0 1-.88-.26 1.81 1.81 0 0 1-.62-.74 2.6 2.6 0 0 1-.22-1.08A2.94 2.94 0 0 1 154 91a1.58 1.58 0 0 1 1.49-1 1.34 1.34 0 0 1 .64.15 1.27 1.27 0 0 1 .46.4v-2h.67v5.51zm-2.14-2a1.74 1.74 0 0 0 .32 1.14 1 1 0 0 0 .76.38 1 1 0 0 0 .76-.36 1.71 1.71 0 0 0 .31-1.11 1.89 1.89 0 0 0-.32-1.2 1 1 0 0 0-.78-.38.92.92 0 0 0-.75.37 1.81 1.81 0 0 0-.3 1.17zM54.36 74.54a3 3 0 0 1 .74-2.15 2.53 2.53 0 0 1 1.9-.77 2.68 2.68 0 0 1 1.38.36 2.44 2.44 0 0 1 .94 1 3.35 3.35 0 0 1 .32 1.48A3.31 3.31 0 0 1 59.3 76a2.38 2.38 0 0 1-1 1 2.7 2.7 0 0 1-1.34.34 2.6 2.6 0 0 1-1.35-.34 2.5 2.5 0 0 1-.93-1 3.11 3.11 0 0 1-.32-1.46zm.76 0a2.23 2.23 0 0 0 .53 1.57 1.86 1.86 0 0 0 2.7 0 2.33 2.33 0 0 0 .53-1.64 2.89 2.89 0 0 0-.22-1.18 1.86 1.86 0 0 0-3-.52 2.32 2.32 0 0 0-.54 1.78zM60.48 77.23v-4h.61v.61a1.77 1.77 0 0 1 .43-.56.77.77 0 0 1 .44-.14 1.36 1.36 0 0 1 .69.22l-.23.63a1 1 0 0 0-.5-.15.65.65 0 0 0-.4.14.76.76 0 0 0-.25.37 2.79 2.79 0 0 0-.11.79v2.09zM62.93 77.56l.66.1a.58.58 0 0 0 .23.44 1.13 1.13 0 0 0 .69.19 1.23 1.23 0 0 0 .72-.19.94.94 0 0 0 .35-.53 4.86 4.86 0 0 0 0-.87 1.41 1.41 0 0 1-1.11.53 1.49 1.49 0 0 1-1.27-.6 2.22 2.22 0 0 1-.46-1.42 2.67 2.67 0 0 1 .26-1.06 1.65 1.65 0 0 1 .6-.74 1.58 1.58 0 0 1 .92-.27 1.43 1.43 0 0 1 1.17.58v-.49h.62v3.46a3.21 3.21 0 0 1-.19 1.31 1.31 1.31 0 0 1-.6.61 2.07 2.07 0 0 1-1 .23 1.91 1.91 0 0 1-1.15-.32 1.09 1.09 0 0 1-.44-.96zm.56-2.4a1.74 1.74 0 0 0 .31 1.15 1 1 0 0 0 1.57 0 1.7 1.7 0 0 0 .31-1.13 1.64 1.64 0 0 0-.32-1.1 1 1 0 0 0-.79-.38 1 1 0 0 0-.76.37 1.65 1.65 0 0 0-.32 1.09zM69.94 76.73a2.47 2.47 0 0 1-.72.46 2.27 2.27 0 0 1-.75.13 1.47 1.47 0 0 1-1-.32 1.15 1.15 0 0 1-.22-1.36 1.2 1.2 0 0 1 .35-.39 1.56 1.56 0 0 1 .49-.22 3.65 3.65 0 0 1 .6-.1 6.67 6.67 0 0 0 1.21-.24v-.17a.8.8 0 0 0-.19-.59 1.16 1.16 0 0 0-.77-.23 1.22 1.22 0 0 0-.71.17 1 1 0 0 0-.33.59l-.67-.09a1.58 1.58 0 0 1 .3-.68 1.25 1.25 0 0 1 .6-.4 2.88 2.88 0 0 1 1.74 0 1 1 0 0 1 .46.31.94.94 0 0 1 .22.46 4.18 4.18 0 0 1 0 .62v.9a9.75 9.75 0 0 0 0 1.2 1.84 1.84 0 0 0 .17.48h-.7a1.47 1.47 0 0 1-.08-.53zm0-1.51a5.06 5.06 0 0 1-1.11.26 2.53 2.53 0 0 0-.59.13.6.6 0 0 0-.27.22.63.63 0 0 0-.09.33.59.59 0 0 0 .2.45.9.9 0 0 0 .6.18 1.45 1.45 0 0 0 .7-.17 1.13 1.13 0 0 0 .45-.47 1.68 1.68 0 0 0 .11-.68zM71.62 77.23v-4h.61v.57a1.42 1.42 0 0 1 1.27-.66 1.76 1.76 0 0 1 .66.13 1.07 1.07 0 0 1 .45.34 1.34 1.34 0 0 1 .22.5 5 5 0 0 1 0 .66v2.46h-.67V74.8a1.89 1.89 0 0 0-.08-.62.69.69 0 0 0-.28-.33.91.91 0 0 0-.47-.12 1.08 1.08 0 0 0-.75.28 1.35 1.35 0 0 0-.31 1v2.18zM75.9 72.49v-.77h.68v.77zm0 4.74v-4h.68v4zM77.25 77.23v-.55l2.55-2.92h-2.4v-.55h3.27v.45l-2.16 2.54-.42.46h2.7v.59zM84.07 76.73a2.5 2.5 0 0 1-.73.46 2.26 2.26 0 0 1-.74.13 1.46 1.46 0 0 1-1-.32 1.07 1.07 0 0 1-.36-.83 1.19 1.19 0 0 1 .13-.53 1.2 1.2 0 0 1 .35-.39 1.67 1.67 0 0 1 .48-.25 3.65 3.65 0 0 1 .6-.1 6.49 6.49 0 0 0 1.2-.21v-.17a.76.76 0 0 0-.19-.59 1.14 1.14 0 0 0-.77-.23 1.18 1.18 0 0 0-.7.17 1 1 0 0 0-.34.59l-.66-.09a1.58 1.58 0 0 1 .3-.68 1.17 1.17 0 0 1 .59-.4 2.55 2.55 0 0 1 .91-.15 2.39 2.39 0 0 1 .83.12 1.13 1.13 0 0 1 .47.31 1 1 0 0 1 .21.46 4.18 4.18 0 0 1 0 .62v.9a9 9 0 0 0 0 1.2 1.54 1.54 0 0 0 .17.48h-.62a1.47 1.47 0 0 1-.13-.5zM84 75.22a4.92 4.92 0 0 1-1.11.26 2.81 2.81 0 0 0-.59.13.63.63 0 0 0-.26.22.56.56 0 0 0-.1.33.57.57 0 0 0 .21.45.88.88 0 0 0 .6.18 1.41 1.41 0 0 0 .69-.17 1 1 0 0 0 .45-.47 1.68 1.68 0 0 0 .11-.68zM88.35 75.76l.66.09a1.71 1.71 0 0 1-.55 1.08 1.64 1.64 0 0 1-1.11.39 1.73 1.73 0 0 1-1.35-.54 2.18 2.18 0 0 1-.49-1.53 2.86 2.86 0 0 1 .21-1.14 1.48 1.48 0 0 1 .65-.72 1.86 1.86 0 0 1 1-.25 1.66 1.66 0 0 1 1.06.33 1.5 1.5 0 0 1 .53.94l-.66.1a1.09 1.09 0 0 0-.3-.61.89.89 0 0 0-.58-.2 1 1 0 0 0-.83.37 1.75 1.75 0 0 0-.32 1.16 1.8 1.8 0 0 0 .31 1.17 1 1 0 0 0 .81.36 1 1 0 0 0 .66-.24 1.25 1.25 0 0 0 .3-.76zM89.6 72.49v-.77h.67v.77zm0 4.74v-4h.67v4zM91.05 75.23a2 2 0 0 1 .62-1.64 1.83 1.83 0 0 1 1.25-.45 1.8 1.8 0 0 1 1.35.54 2 2 0 0 1 .52 1.49 2.6 2.6 0 0 1-.23 1.22 1.63 1.63 0 0 1-.67.68 1.92 1.92 0 0 1-1 .25 1.77 1.77 0 0 1-1.35-.54 2.12 2.12 0 0 1-.49-1.55zm.7 0a1.72 1.72 0 0 0 .33 1.15 1.1 1.1 0 0 0 .84.38 1.07 1.07 0 0 0 .84-.38 1.72 1.72 0 0 0 .34-1.17 1.65 1.65 0 0 0-.34-1.12 1.05 1.05 0 0 0-.84-.39 1.1 1.1 0 0 0-.84.38 1.73 1.73 0 0 0-.33 1.15zm.8-2.49l.5-1h.89l-.83 1zM95.59 77.23v-4h.6v.57a1.45 1.45 0 0 1 1.28-.66 1.76 1.76 0 0 1 .66.13 1.07 1.07 0 0 1 .45.34 1.33 1.33 0 0 1 .21.5 3.43 3.43 0 0 1 0 .66v2.46h-.68V74.8a1.66 1.66 0 0 0-.08-.62.6.6 0 0 0-.28-.33.89.89 0 0 0-.47-.12 1.05 1.05 0 0 0-.74.28 1.34 1.34 0 0 0-.32 1v2.18zM21.57 85.63v-.51a1.25 1.25 0 0 1-1.12.6 1.62 1.62 0 0 1-.88-.26 1.8 1.8 0 0 1-.62-.74 2.48 2.48 0 0 1-.22-1.08 2.94 2.94 0 0 1 .2-1.09 1.54 1.54 0 0 1 1.49-1 1.34 1.34 0 0 1 1.1.54v-2h.67v5.51zm-2.14-2a1.69 1.69 0 0 0 .32 1.14 1 1 0 0 0 .76.38 1 1 0 0 0 .76-.36 1.71 1.71 0 0 0 .31-1.11 1.87 1.87 0 0 0-.32-1.2 1 1 0 0 0-.78-.38.94.94 0 0 0-.75.36 1.86 1.86 0 0 0-.3 1.18zM26 84.34l.7.09a1.75 1.75 0 0 1-.61.95 2.08 2.08 0 0 1-2.54-.2 2.12 2.12 0 0 1-.55-1.51 2.19 2.19 0 0 1 .52-1.57 1.76 1.76 0 0 1 1.35-.55 1.69 1.69 0 0 1 1.3.54 2.16 2.16 0 0 1 .51 1.53v.18h-3a1.57 1.57 0 0 0 .37 1 1.1 1.1 0 0 0 .84.35 1 1 0 0 0 .63-.19 1.25 1.25 0 0 0 .48-.62zm-2.22-1.09H26a1.36 1.36 0 0 0-.26-.76 1 1 0 0 0-.84-.39 1.1 1.1 0 0 0-.78.31 1.24 1.24 0 0 0-.35.84zM29.66 85.63v-5.51h.68v5.51zM34 85.14a2.64 2.64 0 0 1-.72.45 2.27 2.27 0 0 1-.75.13 1.49 1.49 0 0 1-1-.32 1.15 1.15 0 0 1-.24-1.4 1.2 1.2 0 0 1 .35-.39 1.67 1.67 0 0 1 .49-.22 3.65 3.65 0 0 1 .6-.1 6.49 6.49 0 0 0 1.21-.24v-.17a.76.76 0 0 0-.19-.59 1.14 1.14 0 0 0-.77-.22 1.24 1.24 0 0 0-.71.16 1 1 0 0 0-.33.59l-.66-.09a1.7 1.7 0 0 1 .29-.68 1.25 1.25 0 0 1 .6-.4 2.52 2.52 0 0 1 .91-.14 2.43 2.43 0 0 1 .83.12 1.12 1.12 0 0 1 .47.3 1 1 0 0 1 .21.46 4.18 4.18 0 0 1 0 .62V84a8.92 8.92 0 0 0 .05 1.19 1.2 1.2 0 0 0 .17.48h-.71a1.47 1.47 0 0 1-.1-.53zm-.05-1.52a5.06 5.06 0 0 1-1.11.26 2.54 2.54 0 0 0-.59.14.56.56 0 0 0-.26.22.51.51 0 0 0-.1.32.57.57 0 0 0 .21.45.86.86 0 0 0 .6.18 1.41 1.41 0 0 0 .69-.17 1.13 1.13 0 0 0 .45-.47 1.68 1.68 0 0 0 .11-.68zM35.4 84.44l.67-.11a1 1 0 0 0 .31.62 1.14 1.14 0 0 0 .72.21 1.06 1.06 0 0 0 .7-.19.54.54 0 0 0 .22-.44.4.4 0 0 0-.2-.36 2.71 2.71 0 0 0-.69-.23 6.6 6.6 0 0 1-1-.33 1 1 0 0 1-.44-.38 1 1 0 0 1-.15-.53 1 1 0 0 1 .13-.5 1.1 1.1 0 0 1 .33-.38 1.45 1.45 0 0 1 .43-.19 1.81 1.81 0 0 1 .58-.08 2.33 2.33 0 0 1 .83.13 1 1 0 0 1 .52.37 1.41 1.41 0 0 1 .24.62l-.67.09a.72.72 0 0 0-.26-.49 1 1 0 0 0-.67-.17 1 1 0 0 0-.66.16.42.42 0 0 0-.2.36.34.34 0 0 0 .08.23.51.51 0 0 0 .26.18l.6.18a7.35 7.35 0 0 1 1 .31.93.93 0 0 1 .44.36 1 1 0 0 1 .17.58 1.14 1.14 0 0 1-.2.63 1.2 1.2 0 0 1-.57.46 2.07 2.07 0 0 1-.84.17 1.92 1.92 0 0 1-1.19-.32 1.56 1.56 0 0 1-.49-.96zM41.74 85.63v-5.51h.75l2.89 4.32v-4.32h.7v5.51h-.75l-2.89-4.33v4.33zM49.83 85.14a2.68 2.68 0 0 1-.73.45 2.26 2.26 0 0 1-.74.13 1.46 1.46 0 0 1-1-.32 1.06 1.06 0 0 1-.36-.82 1.1 1.1 0 0 1 .48-.93 1.67 1.67 0 0 1 .49-.22 3.65 3.65 0 0 1 .6-.1 6.49 6.49 0 0 0 1.21-.24v-.17a.76.76 0 0 0-.19-.59 1.14 1.14 0 0 0-.77-.22 1.19 1.19 0 0 0-.7.16 1 1 0 0 0-.34.59l-.66-.09a1.7 1.7 0 0 1 .29-.68 1.25 1.25 0 0 1 .6-.4 2.56 2.56 0 0 1 .91-.14 2.39 2.39 0 0 1 .83.12 1.12 1.12 0 0 1 .47.3 1 1 0 0 1 .21.46 4.18 4.18 0 0 1 0 .62V84a8.92 8.92 0 0 0 0 1.19 1.38 1.38 0 0 0 .17.48H50a1.47 1.47 0 0 1-.17-.53zm-.06-1.52a4.92 4.92 0 0 1-1.11.26 2.68 2.68 0 0 0-.59.14.56.56 0 0 0-.26.22.51.51 0 0 0-.1.32.57.57 0 0 0 .21.45.88.88 0 0 0 .6.18 1.41 1.41 0 0 0 .69-.17 1 1 0 0 0 .45-.47 1.68 1.68 0 0 0 .11-.68zM54.11 84.17l.66.08a1.71 1.71 0 0 1-.55 1.08 1.64 1.64 0 0 1-1.11.39 1.73 1.73 0 0 1-1.32-.54 2.16 2.16 0 0 1-.49-1.53 2.9 2.9 0 0 1 .21-1.14 1.48 1.48 0 0 1 .65-.72 2 2 0 0 1 1-.24 1.65 1.65 0 0 1 1.06.32 1.52 1.52 0 0 1 .53.94l-.66.1a1.09 1.09 0 0 0-.33-.61.89.89 0 0 0-.58-.2 1 1 0 0 0-.83.37 1.75 1.75 0 0 0-.35 1.16 1.8 1.8 0 0 0 .31 1.17 1 1 0 0 0 .81.36 1 1 0 0 0 .66-.24 1.25 1.25 0 0 0 .33-.75zM55.36 80.89v-.77H56v.77zm0 4.74v-4H56v4zM56.81 83.63a2 2 0 0 1 .62-1.63 1.82 1.82 0 0 1 1.25-.44 1.79 1.79 0 0 1 1.35.53 2.06 2.06 0 0 1 .52 1.5 2.58 2.58 0 0 1-.23 1.21 1.63 1.63 0 0 1-.67.68 1.92 1.92 0 0 1-1 .25 1.77 1.77 0 0 1-1.35-.54 2.12 2.12 0 0 1-.49-1.56zm.7 0a1.72 1.72 0 0 0 .33 1.15 1.1 1.1 0 0 0 .84.38 1.07 1.07 0 0 0 .84-.38 1.72 1.72 0 0 0 .34-1.17 1.66 1.66 0 0 0-.34-1.12 1 1 0 0 0-.84-.38 1.07 1.07 0 0 0-.84.38 1.69 1.69 0 0 0-.33 1.14zM61.35 85.63v-4H62v.56a1.44 1.44 0 0 1 1.28-.65 1.76 1.76 0 0 1 .66.12 1.07 1.07 0 0 1 .45.34 1.4 1.4 0 0 1 .21.5 3.43 3.43 0 0 1 0 .66v2.46h-.68V83.2a1.66 1.66 0 0 0-.08-.62.64.64 0 0 0-.28-.33.89.89 0 0 0-.47-.12 1.05 1.05 0 0 0-.74.28 1.34 1.34 0 0 0-.32 1v2.18zM68.36 84.34l.7.09a1.7 1.7 0 0 1-.61.95 2.07 2.07 0 0 1-2.53-.2 2.08 2.08 0 0 1-.52-1.51 2.23 2.23 0 0 1 .52-1.57 1.77 1.77 0 0 1 1.35-.55 1.73 1.73 0 0 1 1.31.54 2.2 2.2 0 0 1 .5 1.53v.18h-3a1.57 1.57 0 0 0 .37 1 1.11 1.11 0 0 0 .84.35 1 1 0 0 0 .63-.19 1.25 1.25 0 0 0 .44-.62zm-2.22-1.09h2.23a1.36 1.36 0 0 0-.26-.76 1 1 0 0 0-.84-.39 1.1 1.1 0 0 0-.78.31 1.24 1.24 0 0 0-.35.84zM69.64 84.44l.67-.11a1 1 0 0 0 .31.62 1.1 1.1 0 0 0 .72.21A1 1 0 0 0 72 85a.53.53 0 0 0 .23-.44.4.4 0 0 0-.2-.36 2.71 2.71 0 0 0-.69-.23 6.6 6.6 0 0 1-1-.33 1 1 0 0 1-.44-.38 1 1 0 0 1-.15-.53 1.06 1.06 0 0 1 .12-.5 1.24 1.24 0 0 1 .34-.38 1.45 1.45 0 0 1 .43-.19 1.81 1.81 0 0 1 .58-.08 2.33 2.33 0 0 1 .83.13 1.09 1.09 0 0 1 .52.37 1.41 1.41 0 0 1 .24.62l-.67.09a.72.72 0 0 0-.26-.49 1 1 0 0 0-.61-.17 1 1 0 0 0-.66.16.42.42 0 0 0-.2.36.34.34 0 0 0 .08.23.47.47 0 0 0 .26.18l.6.18a7.86 7.86 0 0 1 1 .31.93.93 0 0 1 .44.36 1 1 0 0 1 .17.58 1.14 1.14 0 0 1-.2.63 1.2 1.2 0 0 1-.57.46 2.07 2.07 0 0 1-.84.17 1.92 1.92 0 0 1-1.19-.32 1.51 1.51 0 0 1-.52-.99zM79.6 80.12h.73v3.18a3.69 3.69 0 0 1-.19 1.32 1.62 1.62 0 0 1-.67.8 2.46 2.46 0 0 1-1.29.3 2.75 2.75 0 0 1-1.27-.26 1.52 1.52 0 0 1-.7-.78A3.63 3.63 0 0 1 76 83.3v-3.18h.73v3.18a3.11 3.11 0 0 0 .13 1.06 1 1 0 0 0 .46.52 1.62 1.62 0 0 0 .79.18 1.54 1.54 0 0 0 1.15-.36 2.08 2.08 0 0 0 .34-1.4zM81.46 85.63v-4h.61v.56a1.43 1.43 0 0 1 1.27-.65 1.76 1.76 0 0 1 .66.12 1 1 0 0 1 .46.34 1.4 1.4 0 0 1 .21.5 5 5 0 0 1 0 .66v2.46H84V83.2a1.89 1.89 0 0 0-.08-.62.69.69 0 0 0-.28-.33.91.91 0 0 0-.47-.12 1.08 1.08 0 0 0-.75.28 1.35 1.35 0 0 0-.31 1v2.18zM85.75 80.89v-.77h.67v.77zm0 4.74v-4h.67v4zM90 85.63v-.51a1.23 1.23 0 0 1-1.11.6 1.62 1.62 0 0 1-.88-.26 1.73 1.73 0 0 1-.62-.74 2.48 2.48 0 0 1-.22-1.08 2.75 2.75 0 0 1 .2-1.09 1.54 1.54 0 0 1 1.49-1 1.34 1.34 0 0 1 1.1.54v-2h.67v5.51zm-2.14-2a1.69 1.69 0 0 0 .33 1.14 1 1 0 0 0 1.51 0 1.65 1.65 0 0 0 .31-1.11 1.87 1.87 0 0 0-.31-1.2 1 1 0 0 0-.78-.38.94.94 0 0 0-.75.36 1.8 1.8 0 0 0-.27 1.2zM94.34 85.14a2.64 2.64 0 0 1-.72.45 2.32 2.32 0 0 1-.75.13 1.46 1.46 0 0 1-1-.32 1.05 1.05 0 0 1-.35-.82 1.08 1.08 0 0 1 .13-.54 1.1 1.1 0 0 1 .35-.39 1.56 1.56 0 0 1 .49-.22 3.65 3.65 0 0 1 .6-.1 6.35 6.35 0 0 0 1.2-.24 1.49 1.49 0 0 0 0-.17.8.8 0 0 0-.19-.59 1.16 1.16 0 0 0-.77-.22 1.22 1.22 0 0 0-.71.16 1.07 1.07 0 0 0-.34.59l-.66-.09a1.58 1.58 0 0 1 .3-.68 1.25 1.25 0 0 1 .6-.4 2.5 2.5 0 0 1 .9-.14 2.39 2.39 0 0 1 .83.12 1.06 1.06 0 0 1 .47.3 1 1 0 0 1 .21.46 2.9 2.9 0 0 1 0 .62V84a9.65 9.65 0 0 0 0 1.19 1.62 1.62 0 0 0 .17.48h-.7a1.47 1.47 0 0 1-.06-.53zm-.06-1.52a4.81 4.81 0 0 1-1.1.26 2.41 2.41 0 0 0-.59.14.54.54 0 0 0-.27.22.57.57 0 0 0-.09.32.59.59 0 0 0 .2.45.9.9 0 0 0 .6.18 1.48 1.48 0 0 0 .7-.17 1.13 1.13 0 0 0 .45-.47 1.71 1.71 0 0 0 .1-.68zM95.75 84.44l.67-.11a.93.93 0 0 0 .31.62 1.1 1.1 0 0 0 .72.21 1 1 0 0 0 .69-.19.55.55 0 0 0 .23-.44.4.4 0 0 0-.2-.36 3.06 3.06 0 0 0-.69-.23 7.24 7.24 0 0 1-1-.33 1 1 0 0 1-.43-.38 1 1 0 0 1-.15-.53 1.06 1.06 0 0 1 .12-.5 1.1 1.1 0 0 1 .33-.38 1.58 1.58 0 0 1 .43-.19 1.91 1.91 0 0 1 .59-.08 2.28 2.28 0 0 1 .82.13 1.08 1.08 0 0 1 .53.37 1.41 1.41 0 0 1 .23.62l-.66.09a.76.76 0 0 0-.26-.49 1 1 0 0 0-.61-.17 1.08 1.08 0 0 0-.67.16.45.45 0 0 0-.2.36.35.35 0 0 0 .09.23.47.47 0 0 0 .26.18 5.27 5.27 0 0 0 .59.18 7.62 7.62 0 0 1 1 .31 1 1 0 0 1 .44.36 1 1 0 0 1 .16.58 1.07 1.07 0 0 1-.2.63 1.22 1.22 0 0 1-.56.46 2.08 2.08 0 0 1-.85.17 1.89 1.89 0 0 1-1.18-.32 1.51 1.51 0 0 1-.55-.96zM36.09 95.56V90h.62v.51a1.48 1.48 0 0 1 .49-.45 1.34 1.34 0 0 1 .66-.15 1.57 1.57 0 0 1 .91.26 1.63 1.63 0 0 1 .59.74 2.77 2.77 0 0 1 .2 1 2.82 2.82 0 0 1-.22 1.11 1.74 1.74 0 0 1-.64.75 1.69 1.69 0 0 1-.88.26 1.28 1.28 0 0 1-1-.51v2zm.61-3.51a1.76 1.76 0 0 0 .3 1.14 1 1 0 0 0 1.53 0 1.77 1.77 0 0 0 .33-1.19 1.74 1.74 0 0 0-.31-1.14.93.93 0 0 0-.75-.38 1 1 0 0 0-.77.4 1.81 1.81 0 0 0-.33 1.17zM43 93.54a2.68 2.68 0 0 1-.73.45 2.26 2.26 0 0 1-.74.13 1.46 1.46 0 0 1-1-.32 1.06 1.06 0 0 1-.36-.82 1.09 1.09 0 0 1 .14-.54 1 1 0 0 1 .35-.39 1.51 1.51 0 0 1 .48-.22 3.86 3.86 0 0 1 .6-.1 6.49 6.49 0 0 0 1.21-.24v-.17a.72.72 0 0 0-.19-.58 1.09 1.09 0 0 0-.77-.23 1.19 1.19 0 0 0-.7.16 1 1 0 0 0-.34.59l-.66-.08a1.57 1.57 0 0 1 .3-.69 1.17 1.17 0 0 1 .59-.4 2.56 2.56 0 0 1 .91-.14 2.39 2.39 0 0 1 .83.12 1.12 1.12 0 0 1 .47.3 1 1 0 0 1 .21.46 3.8 3.8 0 0 1 0 .62v.91a9.65 9.65 0 0 0 0 1.19 1.38 1.38 0 0 0 .17.48h-.71a1.47 1.47 0 0 1-.06-.49zM42.92 92a4.81 4.81 0 0 1-1.1.26 2.41 2.41 0 0 0-.59.14.54.54 0 0 0-.27.22.58.58 0 0 0-.1.32.57.57 0 0 0 .21.45.9.9 0 0 0 .6.18 1.41 1.41 0 0 0 .69-.17 1 1 0 0 0 .45-.47 1.68 1.68 0 0 0 .11-.68zM44.65 94v-4h.61v.6a1.52 1.52 0 0 1 .43-.56.73.73 0 0 1 .43-.13 1.38 1.38 0 0 1 .7.21l-.24.63a.93.93 0 0 0-.49-.15.65.65 0 0 0-.4.14.7.7 0 0 0-.25.37 2.47 2.47 0 0 0-.12.79V94zM49.82 93.54a2.64 2.64 0 0 1-.72.45 2.27 2.27 0 0 1-.75.13 1.47 1.47 0 0 1-1-.32 1.15 1.15 0 0 1-.22-1.36 1.2 1.2 0 0 1 .35-.39 1.67 1.67 0 0 1 .49-.22 3.65 3.65 0 0 1 .6-.1 6.49 6.49 0 0 0 1.21-.24v-.17a.72.72 0 0 0-.19-.58 1.09 1.09 0 0 0-.77-.23 1.22 1.22 0 0 0-.71.16 1 1 0 0 0-.33.59l-.66-.08a1.57 1.57 0 0 1 .29-.69 1.25 1.25 0 0 1 .6-.4 2.52 2.52 0 0 1 .91-.14 2.43 2.43 0 0 1 .83.12 1.12 1.12 0 0 1 .47.3 1 1 0 0 1 .21.46 4.18 4.18 0 0 1 0 .62v2.1a1.4 1.4 0 0 0 .18.48H50a1.47 1.47 0 0 1-.18-.49zm0-1.52a5.06 5.06 0 0 1-1.11.26 2.54 2.54 0 0 0-.59.14.64.64 0 0 0-.27.22.6.6 0 0 0 .12.77.86.86 0 0 0 .6.18 1.41 1.41 0 0 0 .69-.17 1.13 1.13 0 0 0 .45-.47 1.68 1.68 0 0 0 .11-.68zM53.62 94v-5.48h.68V94zM58 93.54a2.84 2.84 0 0 1-.73.45 2.27 2.27 0 0 1-.75.13 1.49 1.49 0 0 1-1-.32 1.15 1.15 0 0 1-.22-1.36 1.2 1.2 0 0 1 .35-.39 1.67 1.67 0 0 1 .49-.22 3.65 3.65 0 0 1 .6-.1 6.49 6.49 0 0 0 1.21-.24v-.17a.72.72 0 0 0-.19-.58 1.09 1.09 0 0 0-.77-.23 1.24 1.24 0 0 0-.71.16 1 1 0 0 0-.33.59l-.66-.08a1.69 1.69 0 0 1 .29-.69 1.25 1.25 0 0 1 .6-.4A2.52 2.52 0 0 1 57 90a2.39 2.39 0 0 1 .83.12 1.12 1.12 0 0 1 .47.3 1 1 0 0 1 .21.46 4.18 4.18 0 0 1 0 .62v.91a8.92 8.92 0 0 0 .05 1.19 1.2 1.2 0 0 0 .17.48h-.71a1.47 1.47 0 0 1-.02-.54zM57.9 92a5.06 5.06 0 0 1-1.11.26 2.68 2.68 0 0 0-.59.14.56.56 0 0 0-.26.22.51.51 0 0 0-.1.32.57.57 0 0 0 .21.45.86.86 0 0 0 .6.18 1.41 1.41 0 0 0 .69-.17 1.07 1.07 0 0 0 .45-.47 1.68 1.68 0 0 0 .11-.68zM61.87 94v-5.48h4v.65H62.6v1.69h3.05v.64H62.6v1.88H66V94zM69.5 94v-.51a1.25 1.25 0 0 1-1.12.6 1.62 1.62 0 0 1-.88-.26 1.81 1.81 0 0 1-.62-.74 2.63 2.63 0 0 1-.22-1.09 2.94 2.94 0 0 1 .2-1.09 1.6 1.6 0 0 1 .6-.75 1.62 1.62 0 0 1 .89-.25 1.32 1.32 0 0 1 .64.15 1.35 1.35 0 0 1 .46.39v-2h.68V94zm-2.14-2a1.74 1.74 0 0 0 .32 1.14 1 1 0 0 0 .76.38 1 1 0 0 0 .76-.36 1.71 1.71 0 0 0 .31-1.11 1.87 1.87 0 0 0-.32-1.2 1 1 0 0 0-.78-.38.94.94 0 0 0-.75.36 1.86 1.86 0 0 0-.3 1.17zM73.81 94v-.59a1.49 1.49 0 0 1-1.27.68 1.59 1.59 0 0 1-.66-.14 1 1 0 0 1-.46-.34 1.19 1.19 0 0 1-.2-.5 3 3 0 0 1 0-.63V90h.68v2.21a3.71 3.71 0 0 0 0 .71.72.72 0 0 0 .27.42.8.8 0 0 0 .51.16 1.18 1.18 0 0 0 .58-.16.88.88 0 0 0 .37-.42 2 2 0 0 0 .11-.78V90h.68v4zM78.08 92.57l.66.08a1.72 1.72 0 0 1-.56 1.08 1.61 1.61 0 0 1-1.1.39 1.7 1.7 0 0 1-1.32-.54 2.17 2.17 0 0 1-.5-1.53 2.81 2.81 0 0 1 .22-1.13 1.46 1.46 0 0 1 .65-.73 1.94 1.94 0 0 1 1-.24 1.66 1.66 0 0 1 1.07.32 1.57 1.57 0 0 1 .53.94l-.66.1a1.09 1.09 0 0 0-.33-.61.89.89 0 0 0-.58-.2 1 1 0 0 0-.83.37A1.75 1.75 0 0 0 76 92a1.8 1.8 0 0 0 .31 1.17 1 1 0 0 0 .8.36 1 1 0 0 0 .67-.24 1.22 1.22 0 0 0 .3-.72zM81.93 93.54a2.54 2.54 0 0 1-.73.45 2.26 2.26 0 0 1-.74.13 1.46 1.46 0 0 1-1-.32 1.06 1.06 0 0 1-.36-.82 1.09 1.09 0 0 1 .14-.54 1.07 1.07 0 0 1 .34-.39 1.67 1.67 0 0 1 .49-.22 3.86 3.86 0 0 1 .6-.1 6.49 6.49 0 0 0 1.21-.24v-.17a.72.72 0 0 0-.19-.58 1.09 1.09 0 0 0-.77-.23 1.19 1.19 0 0 0-.7.16 1 1 0 0 0-.34.59l-.66-.08a1.57 1.57 0 0 1 .3-.69 1.17 1.17 0 0 1 .59-.4A2.56 2.56 0 0 1 81 90a2.39 2.39 0 0 1 .83.12 1.12 1.12 0 0 1 .47.3 1 1 0 0 1 .21.46 3.8 3.8 0 0 1 0 .62v.91a9.65 9.65 0 0 0 0 1.19 1.38 1.38 0 0 0 .17.48h-.71a1.47 1.47 0 0 1-.04-.54zM81.87 92a5 5 0 0 1-1.1.26 2.66 2.66 0 0 0-.6.14.56.56 0 0 0-.26.22.58.58 0 0 0-.1.32.57.57 0 0 0 .21.45.9.9 0 0 0 .6.18 1.41 1.41 0 0 0 .69-.17 1 1 0 0 0 .45-.47 1.68 1.68 0 0 0 .11-.68zM86.21 92.57l.66.08a1.71 1.71 0 0 1-.55 1.08 1.64 1.64 0 0 1-1.11.39 1.7 1.7 0 0 1-1.31-.54 2.12 2.12 0 0 1-.5-1.53 2.81 2.81 0 0 1 .21-1.13 1.46 1.46 0 0 1 .65-.73 2 2 0 0 1 1-.24 1.65 1.65 0 0 1 1.06.32 1.52 1.52 0 0 1 .53.94l-.66.1a1.09 1.09 0 0 0-.33-.61.89.89 0 0 0-.58-.2 1 1 0 0 0-.83.37 1.75 1.75 0 0 0-.36 1.13 1.8 1.8 0 0 0 .31 1.17 1 1 0 0 0 .81.36 1 1 0 0 0 .66-.24 1.22 1.22 0 0 0 .34-.72zM87.46 89.3v-.78h.67v.78zm0 4.73V90h.67v4zM88.91 92a2 2 0 0 1 .62-1.64 1.82 1.82 0 0 1 1.25-.36 1.8 1.8 0 0 1 1.35.54 2 2 0 0 1 .52 1.46 2.58 2.58 0 0 1-.23 1.21 1.63 1.63 0 0 1-.67.68 1.92 1.92 0 0 1-1 .25 1.79 1.79 0 0 1-1.35-.54 2.12 2.12 0 0 1-.49-1.6zm.7 0a1.72 1.72 0 0 0 .33 1.15 1.12 1.12 0 0 0 1.68 0A1.72 1.72 0 0 0 92 92a1.61 1.61 0 0 0-.34-1.12 1 1 0 0 0-.84-.38 1.07 1.07 0 0 0-.84.38 1.69 1.69 0 0 0-.37 1.12zm.8-2.49l.5-1.05h.89l-.8 1.08zM93.45 94v-4h.61v.56a1.41 1.41 0 0 1 1.27-.56 1.76 1.76 0 0 1 .66.12 1.09 1.09 0 0 1 .45.35 1.26 1.26 0 0 1 .21.5 3.25 3.25 0 0 1 0 .65V94H96v-2.4a2 2 0 0 0-.07-.62.71.71 0 0 0-.29-.33.89.89 0 0 0-.47-.12 1.07 1.07 0 0 0-.74.28 1.34 1.34 0 0 0-.32 1V94zM97.9 94v-.77h.78V94a1.34 1.34 0 0 1-.15.68 1 1 0 0 1-.48.41l-.19-.29a.68.68 0 0 0 .32-.28 1.3 1.3 0 0 0 .11-.52zM25 103.27v-5.51h.68v5.51zM29.29 102.78a2.64 2.64 0 0 1-.72.45 2 2 0 0 1-.75.13 1.47 1.47 0 0 1-1-.32 1.05 1.05 0 0 1-.35-.82 1.08 1.08 0 0 1 .13-.54 1.2 1.2 0 0 1 .35-.39 1.56 1.56 0 0 1 .49-.22 3.65 3.65 0 0 1 .6-.1 6.35 6.35 0 0 0 1.2-.24 1.49 1.49 0 0 0 0-.17.76.76 0 0 0-.19-.58 1.11 1.11 0 0 0-.77-.23 1.22 1.22 0 0 0-.71.16 1.07 1.07 0 0 0-.34.6l-.66-.09a1.57 1.57 0 0 1 .3-.69 1.25 1.25 0 0 1 .6-.4 2.5 2.5 0 0 1 .9-.14 2.39 2.39 0 0 1 .83.12 1.06 1.06 0 0 1 .47.3 1 1 0 0 1 .22.46 4.18 4.18 0 0 1 0 .62v.91a9.65 9.65 0 0 0 0 1.19 1.62 1.62 0 0 0 .17.48h-.7a1.47 1.47 0 0 1-.07-.49zm-.06-1.52a4.81 4.81 0 0 1-1.1.26 2.41 2.41 0 0 0-.59.14.54.54 0 0 0-.27.22.57.57 0 0 0-.09.32.59.59 0 0 0 .2.45.9.9 0 0 0 .6.18 1.45 1.45 0 0 0 .7-.17 1.13 1.13 0 0 0 .45-.47 1.71 1.71 0 0 0 .1-.68zM37.13 101.34l.73.18a2.46 2.46 0 0 1-.83 1.37 2.24 2.24 0 0 1-1.46.47 2.66 2.66 0 0 1-1.45-.36 2.3 2.3 0 0 1-.85-1 3.83 3.83 0 0 1-.29-1.48 3.25 3.25 0 0 1 .33-1.5 2.2 2.2 0 0 1 .94-1 2.63 2.63 0 0 1 1.33-.34 2.28 2.28 0 0 1 1.4.42 2.23 2.23 0 0 1 .78 1.19l-.72.17a1.67 1.67 0 0 0-.55-.88 1.52 1.52 0 0 0-.92-.27 1.79 1.79 0 0 0-1.06.3 1.55 1.55 0 0 0-.6.82 3.15 3.15 0 0 0-.18 1.06 3.3 3.3 0 0 0 .21 1.23 1.52 1.52 0 0 0 .64.78 1.79 1.79 0 0 0 .93.26 1.59 1.59 0 0 0 1-.35 1.86 1.86 0 0 0 .62-1.07zM38.67 98.54v-.78h.68v.78zm0 4.73v-4h.68v4zM43.11 102l.7.09a1.67 1.67 0 0 1-.61 1 2.07 2.07 0 0 1-2.53-.2 2.07 2.07 0 0 1-.52-1.51 2.23 2.23 0 0 1 .52-1.57 1.77 1.77 0 0 1 1.33-.62 1.73 1.73 0 0 1 1.31.54 2.2 2.2 0 0 1 .5 1.53v.19h-3a1.57 1.57 0 0 0 .37 1 1.11 1.11 0 0 0 .84.35 1 1 0 0 0 .63-.19 1.25 1.25 0 0 0 .46-.61zm-2.22-1.09h2.23a1.36 1.36 0 0 0-.26-.76 1 1 0 0 0-.84-.39 1.1 1.1 0 0 0-.78.31 1.24 1.24 0 0 0-.35.82zM44.66 103.27v-4h.61v.56a1.45 1.45 0 0 1 1.27-.65 1.59 1.59 0 0 1 .66.13 1 1 0 0 1 .46.34 1.26 1.26 0 0 1 .21.5 4.68 4.68 0 0 1 0 .65v2.46h-.67v-2.43a1.89 1.89 0 0 0-.08-.62.69.69 0 0 0-.28-.33.91.91 0 0 0-.47-.12 1.08 1.08 0 0 0-.75.28 1.35 1.35 0 0 0-.31 1v2.18zM51.55 101.81l.66.08a1.72 1.72 0 0 1-.56 1.08 1.59 1.59 0 0 1-1.1.39 1.73 1.73 0 0 1-1.32-.54 2.16 2.16 0 0 1-.49-1.53 2.81 2.81 0 0 1 .21-1.13 1.46 1.46 0 0 1 .65-.73 2 2 0 0 1 1-.24 1.71 1.71 0 0 1 1.06.32 1.52 1.52 0 0 1 .53.94l-.66.1a1 1 0 0 0-.33-.6.84.84 0 0 0-.58-.21 1 1 0 0 0-.83.37 1.75 1.75 0 0 0-.32 1.16 1.8 1.8 0 0 0 .31 1.17 1 1 0 0 0 .8.36 1 1 0 0 0 .67-.24 1.22 1.22 0 0 0 .3-.75zM52.8 98.54v-.78h.67v.78zm0 4.73v-4h.67v4zM57.11 102.78a2.54 2.54 0 0 1-.73.45 2 2 0 0 1-.74.13 1.46 1.46 0 0 1-1-.32 1.06 1.06 0 0 1-.36-.82 1.14 1.14 0 0 1 .49-.93 1.51 1.51 0 0 1 .48-.22 4 4 0 0 1 .61-.1 6.53 6.53 0 0 0 1.2-.24v-.17a.72.72 0 0 0-.2-.58 1.09 1.09 0 0 0-.77-.23 1.19 1.19 0 0 0-.7.16 1 1 0 0 0-.34.6l-.66-.09a1.57 1.57 0 0 1 .3-.69 1.17 1.17 0 0 1 .59-.4 2.6 2.6 0 0 1 .91-.14 2.39 2.39 0 0 1 .83.12 1.12 1.12 0 0 1 .47.3 1 1 0 0 1 .21.46 2.9 2.9 0 0 1 0 .62v.91a9.65 9.65 0 0 0 0 1.19 1.62 1.62 0 0 0 .17.48h-.71a1.47 1.47 0 0 1-.05-.49zm-.06-1.52a4.81 4.81 0 0 1-1.1.26 2.41 2.41 0 0 0-.59.14.54.54 0 0 0-.27.22.57.57 0 0 0-.09.32.56.56 0 0 0 .2.45.9.9 0 0 0 .6.18 1.48 1.48 0 0 0 .7-.17 1 1 0 0 0 .44-.47 1.52 1.52 0 0 0 .11-.68zM60.89 104.81l-.07-.64a1.55 1.55 0 0 0 .39.06.74.74 0 0 0 .36-.07.63.63 0 0 0 .22-.21 4.52 4.52 0 0 0 .21-.51 1.16 1.16 0 0 1 .06-.16l-1.52-4h.73l.83 2.31a8.25 8.25 0 0 1 .29.92c.08-.31.17-.61.28-.91l.85-2.32h.68l-1.52 4.06a6.83 6.83 0 0 1-.38.9 1.29 1.29 0 0 1-.41.49 1 1 0 0 1-.56.16 1.52 1.52 0 0 1-.44-.08zM66.9 103.27v-5.51h.68v5.51zM71.23 102.78a2.64 2.64 0 0 1-.72.45 2.11 2.11 0 0 1-.75.13 1.46 1.46 0 0 1-1-.32 1.05 1.05 0 0 1-.35-.82 1.08 1.08 0 0 1 .13-.54 1.1 1.1 0 0 1 .35-.39 1.51 1.51 0 0 1 .48-.22A4 4 0 0 1 70 101a6.53 6.53 0 0 0 1.2-.24 1.49 1.49 0 0 0 0-.17.72.72 0 0 0-.2-.59 1.08 1.08 0 0 0-.77-.23 1.21 1.21 0 0 0-.7.16 1.07 1.07 0 0 0-.34.6l-.66-.09a1.57 1.57 0 0 1 .3-.69 1.25 1.25 0 0 1 .6-.4 2.5 2.5 0 0 1 .9-.14 2.39 2.39 0 0 1 .83.12 1.06 1.06 0 0 1 .47.3 1 1 0 0 1 .21.46 2.9 2.9 0 0 1 0 .62v.91a9.65 9.65 0 0 0 0 1.19 1.62 1.62 0 0 0 .17.48h-.71a1.47 1.47 0 0 1-.07-.51zm-.06-1.52a4.81 4.81 0 0 1-1.1.26 2.41 2.41 0 0 0-.59.14.54.54 0 0 0-.27.22.57.57 0 0 0-.09.32.59.59 0 0 0 .2.45.9.9 0 0 0 .6.18 1.48 1.48 0 0 0 .7-.17 1 1 0 0 0 .44-.47 1.52 1.52 0 0 0 .11-.68zM79.07 101.34l.72.18a2.4 2.4 0 0 1-.82 1.37 2.24 2.24 0 0 1-1.46.47 2.66 2.66 0 0 1-1.45-.36 2.3 2.3 0 0 1-.85-1 3.83 3.83 0 0 1-.29-1.48 3.25 3.25 0 0 1 .33-1.5 2.2 2.2 0 0 1 .94-1 2.63 2.63 0 0 1 1.33-.34 2.25 2.25 0 0 1 1.39.42 2.19 2.19 0 0 1 .79 1.19l-.72.17a1.74 1.74 0 0 0-.55-.88 1.52 1.52 0 0 0-.92-.27 1.77 1.77 0 0 0-1.06.3 1.55 1.55 0 0 0-.6.82 3.15 3.15 0 0 0-.18 1.06 3.3 3.3 0 0 0 .21 1.23 1.52 1.52 0 0 0 .64.78 1.79 1.79 0 0 0 .93.26 1.59 1.59 0 0 0 1-.35 1.92 1.92 0 0 0 .62-1.07zM83.22 103.27v-.59a1.46 1.46 0 0 1-1.26.68 1.59 1.59 0 0 1-.66-.14 1 1 0 0 1-.46-.34 1.2 1.2 0 0 1-.21-.5 4.26 4.26 0 0 1 0-.63v-2.47h.68v2.21a3.71 3.71 0 0 0 0 .71.68.68 0 0 0 .27.42.8.8 0 0 0 .51.16 1.17 1.17 0 0 0 .57-.16.86.86 0 0 0 .38-.42 2.23 2.23 0 0 0 .11-.78v-2.14h.68v4zM84.87 103.27v-5.51h.68v5.51zM88.08 102.66l.09.6a2.5 2.5 0 0 1-.51.06 1.15 1.15 0 0 1-.57-.12.58.58 0 0 1-.28-.3 2.24 2.24 0 0 1-.09-.8v-2.3h-.49v-.52h.49v-1l.68-.41v1.4h.68v.52h-.68v2.34a1.41 1.41 0 0 0 0 .37.3.3 0 0 0 .12.13.46.46 0 0 0 .23 0zM91.36 103.27v-.59a1.49 1.49 0 0 1-1.27.68 1.59 1.59 0 0 1-.66-.14 1 1 0 0 1-.46-.34 1.2 1.2 0 0 1-.21-.5 4.26 4.26 0 0 1 0-.63v-2.47h.68v2.21a3.71 3.71 0 0 0 0 .71.68.68 0 0 0 .27.42.8.8 0 0 0 .51.16 1.11 1.11 0 0 0 .57-.16.86.86 0 0 0 .38-.42 2 2 0 0 0 .11-.78v-2.14H92v4zM93 103.27v-4h.61v.6a1.77 1.77 0 0 1 .43-.56.76.76 0 0 1 .44-.13 1.34 1.34 0 0 1 .69.21L95 100a1 1 0 0 0-.5-.14.64.64 0 0 0-.4.13.76.76 0 0 0-.25.37 2.79 2.79 0 0 0-.11.79v2.09zM98.19 102.78a2.64 2.64 0 0 1-.72.45 2.11 2.11 0 0 1-.75.13 1.46 1.46 0 0 1-1-.32 1.05 1.05 0 0 1-.35-.82 1.08 1.08 0 0 1 .13-.54 1.1 1.1 0 0 1 .35-.39 1.51 1.51 0 0 1 .48-.22 4 4 0 0 1 .61-.1 6.53 6.53 0 0 0 1.2-.24 1.49 1.49 0 0 0 0-.17.72.72 0 0 0-.2-.58 1.08 1.08 0 0 0-.77-.23 1.21 1.21 0 0 0-.7.16 1.07 1.07 0 0 0-.34.6l-.66-.09a1.57 1.57 0 0 1 .3-.69 1.25 1.25 0 0 1 .6-.4 2.5 2.5 0 0 1 .9-.14 2.39 2.39 0 0 1 .83.12 1.06 1.06 0 0 1 .47.3 1 1 0 0 1 .21.46 2.9 2.9 0 0 1 0 .62v.91a9.65 9.65 0 0 0 0 1.19 1.62 1.62 0 0 0 .17.48h-.71a1.47 1.47 0 0 1-.05-.49zm-.06-1.52a4.81 4.81 0 0 1-1.1.26 2.41 2.41 0 0 0-.59.14.54.54 0 0 0-.27.22.57.57 0 0 0-.09.32.59.59 0 0 0 .2.45.9.9 0 0 0 .6.18 1.48 1.48 0 0 0 .7-.17 1 1 0 0 0 .44-.47 1.52 1.52 0 0 0 .11-.68zM163.43 58.32v4.43h5.34V38.16h-5.34v15a5.39 5.39 0 0 1-3 5.18 6.3 6.3 0 0 1-5.72.08c-1.48-.7-2.26-2.22-2.26-4.55V38.16h-5.33v17.37a6.85 6.85 0 0 0 3.88 6.55 9.41 9.41 0 0 0 9.17 0c2.1-1.07 3.2-2.33 3.25-3.78m0-.23v.23m-1.08-31.76a2.93 2.93 0 0 0 .9 2.21 3.06 3.06 0 0 0 4.49 0 3 3 0 0 0 .94-2.21 3.14 3.14 0 0 0-.94-2.28 3.09 3.09 0 0 0-2.22-.94 3.14 3.14 0 0 0-3.17 3.11v.11m-6.77-2.28a3.06 3.06 0 0 0-.94 2.28 2.88 2.88 0 0 0 .94 2.21 3 3 0 0 0 2.22 1 3.09 3.09 0 0 0 2.28-1 3 3 0 0 0 .94-2.21 3.21 3.21 0 0 0-3.23-3.22 3 3 0 0 0-2.22.94m-5.47 7.24h15.46v2.7h-15.44zm-3.17-5a2.94 2.94 0 0 0 .93 2.21 3 3 0 0 0 2.21 1 3.12 3.12 0 0 0 2.28-1 2.92 2.92 0 0 0 .89-2.21 3.13 3.13 0 0 0-.89-2.28 3.17 3.17 0 0 0-2.25-.94 3.08 3.08 0 0 0-2.21.94 3.15 3.15 0 0 0-.93 2.28m9-6.65a1.73 1.73 0 0 0 1.5 1.94 1.61 1.61 0 0 0 .38 0 1.76 1.76 0 0 0 2-1.47 1.46 1.46 0 0 0 0-.51 1.74 1.74 0 0 0-1.5-2 1.35 1.35 0 0 0-.49 0 1.74 1.74 0 0 0-1.94 1.52 1.62 1.62 0 0 0 0 .44" style="fill: rgb(16, 19, 63);"/>
</svg>