<?xml version="1.0" encoding="utf-8"?>
<svg id="Layer_1" data-name="Layer 1" viewBox="0 0 214.49 111.15" xmlns="http://www.w3.org/2000/svg">
  <path d="M99.19 9a.83.83 0 1 1-.82-.83.83.83 0 0 1 .82.83M99.19 12a.83.83 0 1 1-.82-.83.82.82 0 0 1 .82.83M99.19 15.16a.83.83 0 1 1-.82-.83.83.83 0 0 1 .82.83M99.19 18.35a.83.83 0 1 1-.82-.83.82.82 0 0 1 .82.83M99.19 21.78a.83.83 0 1 1-.82-.83.82.82 0 0 1 .82.83M99.19 25.21a.83.83 0 1 1-.82-.83.82.82 0 0 1 .82.83M99.19 28.73a.83.83 0 1 1-.82-.82.83.83 0 0 1 .82.82M99.19 32.26a.83.83 0 1 1-.82-.82.83.83 0 0 1 .82.82M99.19 36.08a.83.83 0 1 1-.82-.82.83.83 0 0 1 .82.82M99.19 39.91a.83.83 0 1 1-.82-.83.82.82 0 0 1 .82.83M99.19 43.92a.83.83 0 1 1-.82-.82.83.83 0 0 1 .82.82M99.19 48a.83.83 0 1 1-.82-.83.83.83 0 0 1 .82.83M99.19 52.35a.83.83 0 1 1-.82-.82.83.83 0 0 1 .82.82M99.19 57.25a.83.83 0 1 1-.82-.82.83.83 0 0 1 .82.82M99.19 62.64a.83.83 0 1 1-.82-.82.83.83 0 0 1 .82.82M99.19 69a.83.83 0 1 1-.82-.82.83.83 0 0 1 .82.82M99.19 75.87a.83.83 0 1 1-.82-.82.83.83 0 0 1 .82.82M99.19 83.7a.83.83 0 1 1-.82-.82.83.83 0 0 1 .82.82M99.19 92.54a.83.83 0 0 1-1.65 0 .83.83 0 1 1 1.65 0M99.19 102.34a.83.83 0 0 1-1.65 0 .83.83 0 1 1 1.65 0M35.58 53.81h48.48v2.03H35.58zM32.83 57.26h53.86v2.03H32.83zM30.29 60.72h59.05v2.03H30.29zM35.58 28.18h48.48v2.03H35.58zM45.38 26.88l14.43-4.32 14.13 4.32h5.9l-20.03-6.2-20.32 6.2h5.89z" class="cls-1" style="fill: rgb(16, 19, 63);"/>
  <path d="M35.58 26.88l24.08-7.37 24.39 7.37v-2.19l-24.24-7.47-24.23 7.47v2.19zM38.42 51.17a1.57 1.57 0 0 0 1.73 1.53 1.46 1.46 0 0 0 1.63-1.53V31.46H40.5v19.76s0 .36-.45.36-.36-.46-.36-.46V31.46h-1.27zM46.4 52.7h1.02V39.93l1.27 12.77h1.06V31.46h-1.06v11.35l-1.27-11.35H46.4V52.7zM54.48 52.7h3.25v-1.12H55.9v-9.6h1.37v-1.17H55.9v-8.29h1.37v-1.06h-2.79V52.7zM73.18 37.76V33a1.59 1.59 0 0 0-1.68-1.52A1.52 1.52 0 0 0 69.88 33v18.17a1.48 1.48 0 0 0 1.62 1.53 1.55 1.55 0 0 0 1.68-1.53v-5.33h-1.27v5.33a.4.4 0 0 1-.41.41.5.5 0 0 1-.46-.41V33a.45.45 0 0 1 .46-.46c.41 0 .41.46.41.46v4.78zM81.26 33a1.47 1.47 0 0 0-1.68-1.52A1.58 1.58 0 0 0 77.8 33v18.17a1.55 1.55 0 0 0 1.68 1.53 1.59 1.59 0 0 0 1.78-1.53zM80 51.17s0 .41-.46.41-.51-.41-.51-.41V33a.45.45 0 0 1 .46-.46.47.47 0 0 1 .51.46zM63.88 51.17s0 .41-.33.38-.33-.38-.33-.38v-5.33H61.9v5.33a1.49 1.49 0 0 0 1.62 1.53 1.55 1.55 0 0 0 1.68-1.53v-4.59c0-2.5-2-7.25-2-8.82V33s0-.46.3-.46.36.46.36.46v4.78h1.34V33a1.46 1.46 0 0 0-1.62-1.52A1.57 1.57 0 0 0 61.9 33v4.07c0 2.66 2 7.16 2 9.22zM108.34 103.23h-.63v-5.52h.68v2a1.34 1.34 0 0 1 1.09-.54 1.66 1.66 0 0 1 .7.15 1.41 1.41 0 0 1 .54.42 1.83 1.83 0 0 1 .34.65 2.64 2.64 0 0 1 .12.81 2.3 2.3 0 0 1-.51 1.59 1.6 1.6 0 0 1-1.22.56 1.28 1.28 0 0 1-1.11-.59zm0-2a2.09 2.09 0 0 0 .2 1 1 1 0 0 0 1.63.13 1.7 1.7 0 0 0 .32-1.14 1.83 1.83 0 0 0-.3-1.16 1 1 0 0 0-.75-.37 1 1 0 0 0-.77.39 1.64 1.64 0 0 0-.34 1.12zM114.61 102.73a2.37 2.37 0 0 1-.73.45 2 2 0 0 1-.74.14 1.46 1.46 0 0 1-1-.33 1.14 1.14 0 0 1-.22-1.35 1.2 1.2 0 0 1 .35-.39 1.67 1.67 0 0 1 .49-.22 3.65 3.65 0 0 1 .6-.1 6.49 6.49 0 0 0 1.21-.24v-.18a.75.75 0 0 0-.19-.58 1.14 1.14 0 0 0-.77-.23 1.18 1.18 0 0 0-.7.17 1 1 0 0 0-.34.59l-.66-.09a1.7 1.7 0 0 1 .29-.68 1.34 1.34 0 0 1 .6-.41 2.81 2.81 0 0 1 .91-.14 2.39 2.39 0 0 1 .83.12 1 1 0 0 1 .47.31 1 1 0 0 1 .21.46 4.18 4.18 0 0 1 0 .62v.9a9 9 0 0 0 0 1.2 1.54 1.54 0 0 0 .17.48h-.71a1.47 1.47 0 0 1-.07-.5zm-.06-1.51a4.92 4.92 0 0 1-1.11.26 2.81 2.81 0 0 0-.59.13.63.63 0 0 0-.26.22.55.55 0 0 0-.1.32.57.57 0 0 0 .21.46.86.86 0 0 0 .6.18 1.41 1.41 0 0 0 .69-.17 1 1 0 0 0 .45-.47 1.71 1.71 0 0 0 .11-.68zM115.42 104.77l.13-.57a1.68 1.68 0 0 0 .32 0 .36.36 0 0 0 .31-.13 1.55 1.55 0 0 0 .1-.69v-4.2h.72v4.21a1.92 1.92 0 0 1-.2 1 .89.89 0 0 1-.81.38 1.89 1.89 0 0 1-.57 0zm.86-6.27v-.79h.72v.79zM117.74 101.23a2 2 0 0 1 .62-1.64 1.83 1.83 0 0 1 1.25-.45 1.8 1.8 0 0 1 1.35.54 2 2 0 0 1 .52 1.49 2.6 2.6 0 0 1-.23 1.22 1.63 1.63 0 0 1-.67.68 2 2 0 0 1-1 .25 1.79 1.79 0 0 1-1.35-.54 2.14 2.14 0 0 1-.49-1.55zm.7 0a1.73 1.73 0 0 0 .33 1.15 1.09 1.09 0 0 0 .84.38 1.07 1.07 0 0 0 .84-.38 1.72 1.72 0 0 0 .34-1.17 1.65 1.65 0 0 0-.34-1.12 1.05 1.05 0 0 0-.84-.39 1.09 1.09 0 0 0-.84.38 1.73 1.73 0 0 0-.33 1.15zM127.15 101.94l.7.09a1.75 1.75 0 0 1-.62 1 2.07 2.07 0 0 1-2.53-.2 2.13 2.13 0 0 1-.51-1.52 2.18 2.18 0 0 1 .52-1.56 1.74 1.74 0 0 1 1.34-.56 1.69 1.69 0 0 1 1.31.55 2.14 2.14 0 0 1 .51 1.53v.18h-3a1.52 1.52 0 0 0 .37 1 1.12 1.12 0 0 0 .84.35 1 1 0 0 0 .63-.2 1.22 1.22 0 0 0 .44-.66zm-2.22-1.09h2.23a1.36 1.36 0 0 0-.26-.76 1 1 0 0 0-.84-.39 1.06 1.06 0 0 0-.78.31 1.24 1.24 0 0 0-.35.84zM128.68 103.23v-5.52h.68v5.52zM135.15 102.73a2.23 2.23 0 0 1-.72.45 2 2 0 0 1-.75.14 1.43 1.43 0 0 1-1-.33 1.14 1.14 0 0 1-.22-1.35 1.2 1.2 0 0 1 .35-.39 1.67 1.67 0 0 1 .49-.22 3.65 3.65 0 0 1 .6-.1 6.49 6.49 0 0 0 1.21-.24v-.18a.75.75 0 0 0-.19-.58 1.14 1.14 0 0 0-.77-.23 1.24 1.24 0 0 0-.71.17 1 1 0 0 0-.33.59l-.66-.09a1.57 1.57 0 0 1 .29-.68 1.34 1.34 0 0 1 .6-.41 2.76 2.76 0 0 1 .91-.14 2.43 2.43 0 0 1 .83.12 1 1 0 0 1 .47.31 1 1 0 0 1 .21.46 4.18 4.18 0 0 1 0 .62v2.1a1.57 1.57 0 0 0 .18.48h-.71a1.47 1.47 0 0 1-.08-.5zm-.05-1.51a5.06 5.06 0 0 1-1.11.26 2.66 2.66 0 0 0-.59.13.73.73 0 0 0-.27.22.62.62 0 0 0-.09.32.57.57 0 0 0 .21.46.86.86 0 0 0 .6.18 1.41 1.41 0 0 0 .69-.17 1.13 1.13 0 0 0 .45-.47 1.71 1.71 0 0 0 .11-.68zM139.45 103.23v-.59a1.48 1.48 0 0 1-1.27.68 1.59 1.59 0 0 1-.66-.14 1.11 1.11 0 0 1-.46-.34 1.42 1.42 0 0 1-.2-.5 3 3 0 0 1-.05-.63v-2.48h.68v2.22a4.83 4.83 0 0 0 0 .71.77.77 0 0 0 .27.42.85.85 0 0 0 .51.15 1.17 1.17 0 0 0 .58-.15 1 1 0 0 0 .38-.43 2.23 2.23 0 0 0 .11-.78v-2.14h.67v4zM140.84 102l.67-.1a1 1 0 0 0 .31.62 1.15 1.15 0 0 0 .73.21 1 1 0 0 0 .69-.19.56.56 0 0 0 .22-.45.4.4 0 0 0-.2-.36 3.21 3.21 0 0 0-.69-.23 5.86 5.86 0 0 1-1-.32 1 1 0 0 1-.44-.38 1 1 0 0 1-.15-.54 1.05 1.05 0 0 1 .13-.49 1.1 1.1 0 0 1 .33-.38 1.57 1.57 0 0 1 .43-.2 2.2 2.2 0 0 1 .58-.08 2.33 2.33 0 0 1 .83.14 1.1 1.1 0 0 1 .52.36 1.39 1.39 0 0 1 .24.62l-.66.09a.73.73 0 0 0-.27-.48 1 1 0 0 0-.61-.17 1.11 1.11 0 0 0-.66.15.48.48 0 0 0-.2.36.41.41 0 0 0 .08.24.66.66 0 0 0 .26.18l.6.18a7.35 7.35 0 0 1 1 .31 1.06 1.06 0 0 1 .45.35 1.07 1.07 0 0 1 .16.58 1.15 1.15 0 0 1-.2.64 1.26 1.26 0 0 1-.57.46 2.07 2.07 0 0 1-.84.17 1.85 1.85 0 0 1-1.19-.33 1.51 1.51 0 0 1-.55-.96zM145 104.76v-5.53h.62v.52a1.48 1.48 0 0 1 .49-.45 1.28 1.28 0 0 1 .67-.16 1.54 1.54 0 0 1 .9.27 1.57 1.57 0 0 1 .59.74 2.77 2.77 0 0 1 .2 1 2.73 2.73 0 0 1-.22 1.1 1.71 1.71 0 0 1-.64.76 1.67 1.67 0 0 1-.88.26 1.23 1.23 0 0 1-.61-.15 1.2 1.2 0 0 1-.44-.36v2zm.61-3.51a1.71 1.71 0 0 0 .32 1.14 1 1 0 0 0 .75.37 1 1 0 0 0 .78-.38 1.85 1.85 0 0 0 .32-1.18 1.79 1.79 0 0 0-.32-1.15.92.92 0 0 0-1.51 0 1.81 1.81 0 0 0-.38 1.2zM149.25 98.49v-.78h.68v.78zm0 4.74v-4h.68v4zM153.56 101.76l.67.09a1.77 1.77 0 0 1-.56 1.08 1.64 1.64 0 0 1-1.11.39 1.7 1.7 0 0 1-1.31-.54 2.15 2.15 0 0 1-.5-1.54 2.85 2.85 0 0 1 .21-1.13 1.52 1.52 0 0 1 .65-.72 1.91 1.91 0 0 1 1-.25 1.64 1.64 0 0 1 1.06.33 1.5 1.5 0 0 1 .53.94l-.66.1a1.09 1.09 0 0 0-.33-.61.89.89 0 0 0-.58-.2 1 1 0 0 0-.83.37 1.75 1.75 0 0 0-.32 1.16 1.81 1.81 0 0 0 .31 1.16 1 1 0 0 0 .81.37 1 1 0 0 0 .66-.24 1.25 1.25 0 0 0 .3-.76zM154.81 98.49v-.78h.68v.78zm0 4.74v-4h.68v4zM156.26 101.23a2 2 0 0 1 .62-1.64 1.84 1.84 0 0 1 1.26-.45 1.78 1.78 0 0 1 1.34.54 2.05 2.05 0 0 1 .53 1.49 2.59 2.59 0 0 1-.24 1.22 1.63 1.63 0 0 1-.67.68 2 2 0 0 1-1 .25 1.81 1.81 0 0 1-1.36-.54 2.18 2.18 0 0 1-.48-1.55zm.7 0a1.73 1.73 0 0 0 .33 1.15 1.13 1.13 0 0 0 1.69 0 1.78 1.78 0 0 0 .33-1.17 1.6 1.6 0 0 0-.34-1.12 1 1 0 0 0-.83-.39 1.11 1.11 0 0 0-.85.38 1.73 1.73 0 0 0-.29 1.15zM165.53 103.23v-.51a1.25 1.25 0 0 1-1.12.6 1.55 1.55 0 0 1-.88-.27 1.78 1.78 0 0 1-.62-.73 2.68 2.68 0 0 1-.22-1.09 2.88 2.88 0 0 1 .2-1.08 1.67 1.67 0 0 1 .6-.75 1.63 1.63 0 0 1 .89-.26 1.22 1.22 0 0 1 .64.16 1.26 1.26 0 0 1 .46.39v-2h.68v5.52zm-2.14-2a1.77 1.77 0 0 0 .32 1.15 1 1 0 0 0 .77.38 1 1 0 0 0 .75-.36 1.65 1.65 0 0 0 .31-1.11 1.85 1.85 0 0 0-.32-1.2 1 1 0 0 0-1.53 0 1.83 1.83 0 0 0-.3 1.14zM170 101.94l.7.09a1.73 1.73 0 0 1-.61 1 1.88 1.88 0 0 1-1.14.34 1.82 1.82 0 0 1-1.39-.54 2.14 2.14 0 0 1-.52-1.52 2.22 2.22 0 0 1 .52-1.56 1.78 1.78 0 0 1 1.35-.56 1.7 1.7 0 0 1 1.31.55 2.14 2.14 0 0 1 .51 1.53v.18h-3a1.52 1.52 0 0 0 .38 1 1.11 1.11 0 0 0 .83.35 1.06 1.06 0 0 0 .64-.2 1.27 1.27 0 0 0 .42-.66zm-2.22-1.09H170a1.36 1.36 0 0 0-.25-.76 1.05 1.05 0 0 0-.84-.39 1.08 1.08 0 0 0-.79.31 1.24 1.24 0 0 0-.39.84zM177.35 97.71h.72v3.19a4 4 0 0 1-.18 1.32 1.67 1.67 0 0 1-.68.79 2.37 2.37 0 0 1-1.29.31 2.63 2.63 0 0 1-1.27-.27 1.46 1.46 0 0 1-.7-.77 3.71 3.71 0 0 1-.21-1.38v-3.19h.73v3.18a3.07 3.07 0 0 0 .13 1.06 1 1 0 0 0 .46.53 1.63 1.63 0 0 0 .8.18 1.53 1.53 0 0 0 1.14-.36 2.11 2.11 0 0 0 .35-1.41zM179.28 103.23v-5.52h.72l2.89 4.33v-4.33h.7v5.52h-.74L180 98.89v4.34zM184.86 103.23v-5.52h4v.65h-3.26v1.69h3v.65h-3v1.88h3.4v.65zM189.74 101.46l.69-.07a1.44 1.44 0 0 0 .22.68 1.25 1.25 0 0 0 .56.43 2.17 2.17 0 0 0 1.58 0 1 1 0 0 0 .48-.34.8.8 0 0 0 .15-.47.72.72 0 0 0-.15-.45 1.09 1.09 0 0 0-.5-.33 7.88 7.88 0 0 0-1-.27 4.86 4.86 0 0 1-1.06-.34 1.57 1.57 0 0 1-.59-.51 1.28 1.28 0 0 1-.19-.69 1.4 1.4 0 0 1 .93-1.33 2.53 2.53 0 0 1 1-.19 2.77 2.77 0 0 1 1.08.2 1.54 1.54 0 0 1 .72.58 1.6 1.6 0 0 1 .27.87h-.7a1.13 1.13 0 0 0-.38-.79 1.48 1.48 0 0 0-1-.27 1.5 1.5 0 0 0-1 .25.72.72 0 0 0-.3.58.64.64 0 0 0 .21.49 2.9 2.9 0 0 0 1.1.39 8.29 8.29 0 0 1 1.23.35 1.63 1.63 0 0 1 .7.57 1.28 1.28 0 0 1 .23.78 1.49 1.49 0 0 1-.25.83 1.64 1.64 0 0 1-.72.6 2.45 2.45 0 0 1-1.06.22 3.13 3.13 0 0 1-1.26-.22 1.74 1.74 0 0 1-.79-.65 1.92 1.92 0 0 1-.2-.9zM199.05 101.29l.73.19a2.49 2.49 0 0 1-.82 1.37 2.32 2.32 0 0 1-1.46.47 2.64 2.64 0 0 1-1.45-.36 2.3 2.3 0 0 1-.85-1 3.83 3.83 0 0 1-.29-1.48 3.19 3.19 0 0 1 .33-1.5 2.28 2.28 0 0 1 .94-1 2.73 2.73 0 0 1 1.33-.33 2.25 2.25 0 0 1 1.39.42 2.19 2.19 0 0 1 .79 1.19l-.72.16a1.65 1.65 0 0 0-.56-.87 1.47 1.47 0 0 0-.91-.28 1.78 1.78 0 0 0-1.06.31 1.52 1.52 0 0 0-.6.82 3.15 3.15 0 0 0-.18 1.06 3.28 3.28 0 0 0 .21 1.22 1.56 1.56 0 0 0 .63.79 1.82 1.82 0 0 0 .94.26 1.57 1.57 0 0 0 1-.36 1.79 1.79 0 0 0 .61-1.08zM200.46 100.54a3 3 0 0 1 .74-2.15 2.52 2.52 0 0 1 1.9-.77 2.68 2.68 0 0 1 1.38.36 2.42 2.42 0 0 1 .93 1 3.35 3.35 0 0 1 .32 1.48 3.19 3.19 0 0 1-.34 1.5 2.27 2.27 0 0 1-1 1 2.69 2.69 0 0 1-1.33.34 2.65 2.65 0 0 1-1.4-.38 2.45 2.45 0 0 1-.92-1 3 3 0 0 1-.28-1.38zm.75 0a2.19 2.19 0 0 0 .54 1.57 1.72 1.72 0 0 0 1.34.58 1.8 1.8 0 0 0 1.36-.58 2.39 2.39 0 0 0 .53-1.65 2.84 2.84 0 0 0-.23-1.17 1.75 1.75 0 0 0-.66-.78 1.87 1.87 0 0 0-1-.28 1.85 1.85 0 0 0-1.33.54 2.36 2.36 0 0 0-.55 1.78zM111.74 75.14l.73.18a2.46 2.46 0 0 1-.83 1.37 2.24 2.24 0 0 1-1.46.47 2.66 2.66 0 0 1-1.45-.36 2.22 2.22 0 0 1-.84-1 3.66 3.66 0 0 1-.3-1.48 3.25 3.25 0 0 1 .33-1.5 2.2 2.2 0 0 1 .94-1 2.74 2.74 0 0 1 1.34-.33 2.27 2.27 0 0 1 1.39.42 2.15 2.15 0 0 1 .78 1.18l-.72.17a1.71 1.71 0 0 0-.55-.88 1.52 1.52 0 0 0-.92-.27 1.79 1.79 0 0 0-1.06.3 1.59 1.59 0 0 0-.6.82 3.18 3.18 0 0 0-.17 1.06 3.31 3.31 0 0 0 .2 1.23 1.52 1.52 0 0 0 .64.78 1.81 1.81 0 0 0 .93.26 1.59 1.59 0 0 0 1-.35 1.86 1.86 0 0 0 .62-1.07zM115.88 76.58a2.64 2.64 0 0 1-.72.45 2 2 0 0 1-.75.13 1.49 1.49 0 0 1-1-.32 1.15 1.15 0 0 1-.22-1.36 1.2 1.2 0 0 1 .35-.39 2 2 0 0 1 .49-.22 5.21 5.21 0 0 1 .6-.1 6.67 6.67 0 0 0 1.21-.23v-.18a.72.72 0 0 0-.19-.58 1.09 1.09 0 0 0-.77-.23 1.16 1.16 0 0 0-.71.17 1 1 0 0 0-.33.59l-.66-.09a1.62 1.62 0 0 1 .29-.69 1.32 1.32 0 0 1 .6-.4A2.52 2.52 0 0 1 115 73a2.43 2.43 0 0 1 .83.12 1.12 1.12 0 0 1 .47.3 1.09 1.09 0 0 1 .21.46 4.35 4.35 0 0 1 0 .63v.9a8.7 8.7 0 0 0 0 1.19 1.2 1.2 0 0 0 .17.48H116a1.41 1.41 0 0 1-.12-.5zm0-1.51a5.16 5.16 0 0 1-1.11.25 2.54 2.54 0 0 0-.59.14.64.64 0 0 0-.27.22.6.6 0 0 0 .12.77.86.86 0 0 0 .6.18 1.41 1.41 0 0 0 .69-.17 1.07 1.07 0 0 0 .45-.47 1.68 1.68 0 0 0 .11-.68zm-1.32-2.49l.5-1h.89l-.83 1zM119 76.47l.1.59a2.59 2.59 0 0 1-.52.06 1.28 1.28 0 0 1-.57-.11.64.64 0 0 1-.28-.31 2.32 2.32 0 0 1-.08-.8v-2.3h-.5v-.52h.5v-1l.67-.41v1.4h.68v.52h-.68v2.34a1.36 1.36 0 0 0 0 .37.3.3 0 0 0 .12.13.37.37 0 0 0 .23 0zM122.43 75.79l.7.08a1.67 1.67 0 0 1-.61.95 2.07 2.07 0 0 1-2.53-.2 2.11 2.11 0 0 1-.51-1.51 2.26 2.26 0 0 1 .51-1.57 1.77 1.77 0 0 1 1.35-.55 1.73 1.73 0 0 1 1.31.54 2.18 2.18 0 0 1 .51 1.54v.18h-3a1.55 1.55 0 0 0 .38 1 1.1 1.1 0 0 0 .83.34 1.05 1.05 0 0 0 .64-.19 1.32 1.32 0 0 0 .42-.61zm-2.22-1.1h2.23a1.36 1.36 0 0 0-.25-.76 1.05 1.05 0 0 0-.84-.39 1.09 1.09 0 0 0-.79.32 1.2 1.2 0 0 0-.35.83zM126.57 77.07v-.5a1.24 1.24 0 0 1-1.11.59 1.62 1.62 0 0 1-.88-.26 1.67 1.67 0 0 1-.62-.74 2.45 2.45 0 0 1-.22-1.08 2.75 2.75 0 0 1 .2-1.09 1.58 1.58 0 0 1 1.49-1 1.34 1.34 0 0 1 .64.15 1.27 1.27 0 0 1 .46.4v-2h.67v5.51zm-2.14-2a1.69 1.69 0 0 0 .33 1.14 1 1 0 0 0 1.51 0 1.65 1.65 0 0 0 .31-1.11 1.89 1.89 0 0 0-.31-1.2 1 1 0 0 0-.78-.38.92.92 0 0 0-.75.37 1.75 1.75 0 0 0-.31 1.19zM128.26 77.07v-4h.61v.6a1.63 1.63 0 0 1 .43-.56.73.73 0 0 1 .43-.13 1.3 1.3 0 0 1 .7.22l-.24.62a1 1 0 0 0-.49-.14.64.64 0 0 0-.4.13.7.7 0 0 0-.25.37 2.47 2.47 0 0 0-.12.79v2.09zM133.44 76.58a2.84 2.84 0 0 1-.73.45 2 2 0 0 1-.75.13 1.49 1.49 0 0 1-1-.32 1.15 1.15 0 0 1-.22-1.36 1.2 1.2 0 0 1 .35-.39 2 2 0 0 1 .49-.22 5.21 5.21 0 0 1 .6-.1 6.67 6.67 0 0 0 1.21-.23v-.18a.72.72 0 0 0-.19-.58 1.09 1.09 0 0 0-.77-.23 1.16 1.16 0 0 0-.71.17 1 1 0 0 0-.33.59l-.66-.09a1.75 1.75 0 0 1 .29-.69 1.32 1.32 0 0 1 .6-.4 2.52 2.52 0 0 1 .91-.14 2.39 2.39 0 0 1 .83.12 1.12 1.12 0 0 1 .47.3 1.09 1.09 0 0 1 .21.46 4.35 4.35 0 0 1 0 .63v.9a8.7 8.7 0 0 0 .05 1.19 1.38 1.38 0 0 0 .17.48h-.71a1.22 1.22 0 0 1-.11-.49zm-.06-1.51a5.16 5.16 0 0 1-1.11.25 2.54 2.54 0 0 0-.59.14.56.56 0 0 0-.26.22.51.51 0 0 0-.1.32.57.57 0 0 0 .21.45.86.86 0 0 0 .6.18 1.41 1.41 0 0 0 .69-.17 1.07 1.07 0 0 0 .45-.47 1.68 1.68 0 0 0 .11-.68zM137.46 77.07v-5.51h.73v5.51zM140 77.07h-.63v-5.51h.67v2a1.35 1.35 0 0 1 1.1-.54 1.62 1.62 0 0 1 .69.15 1.42 1.42 0 0 1 .55.41 2.09 2.09 0 0 1 .33.65 2.74 2.74 0 0 1 .12.81 2.27 2.27 0 0 1-.51 1.59 1.6 1.6 0 0 1-1.22.56 1.26 1.26 0 0 1-1.1-.59zm0-2a2.08 2.08 0 0 0 .19 1 1 1 0 0 0 .87.52 1 1 0 0 0 .76-.38 1.73 1.73 0 0 0 .33-1.15 1.8 1.8 0 0 0-.31-1.15 1 1 0 0 0-.75-.38 1 1 0 0 0-.77.39A1.67 1.67 0 0 0 140 75zM146.41 75.79l.7.08a1.68 1.68 0 0 1-.62.95 2.07 2.07 0 0 1-2.53-.2 2.11 2.11 0 0 1-.51-1.51 2.22 2.22 0 0 1 .52-1.57 1.74 1.74 0 0 1 1.34-.55 1.71 1.71 0 0 1 1.31.54 2.18 2.18 0 0 1 .51 1.54 1.36 1.36 0 0 1 0 .18h-3a1.54 1.54 0 0 0 .37 1 1.1 1.1 0 0 0 .83.34 1.05 1.05 0 0 0 .64-.19 1.41 1.41 0 0 0 .44-.61zm-2.23-1.1h2.23a1.36 1.36 0 0 0-.25-.76 1.05 1.05 0 0 0-.84-.39 1.06 1.06 0 0 0-.78.32 1.21 1.21 0 0 0-.36.83zM148 77.07v-4h.61v.6a1.63 1.63 0 0 1 .43-.56.73.73 0 0 1 .43-.13 1.3 1.3 0 0 1 .7.22l-.24.62a1 1 0 0 0-.49-.14.64.64 0 0 0-.4.13.7.7 0 0 0-.25.37 2.47 2.47 0 0 0-.12.79v2.09zM150.27 75.07a2.07 2.07 0 0 1 .61-1.64 1.92 1.92 0 0 1 1.26-.44 1.8 1.8 0 0 1 1.35.54A2.08 2.08 0 0 1 154 75a2.68 2.68 0 0 1-.23 1.21 1.74 1.74 0 0 1-.68.69 2 2 0 0 1-1 .24 1.81 1.81 0 0 1-1.36-.54 2.16 2.16 0 0 1-.46-1.53zm.69 0a1.65 1.65 0 0 0 .34 1.15 1.12 1.12 0 0 0 1.68 0 1.74 1.74 0 0 0 .33-1.17 1.66 1.66 0 0 0-.33-1.12 1.1 1.1 0 0 0-.84-.38 1 1 0 0 0-.84.38 1.64 1.64 0 0 0-.3 1.14zM157.41 76.58a2.54 2.54 0 0 1-.73.45 2 2 0 0 1-.74.13 1.46 1.46 0 0 1-1-.32 1 1 0 0 1-.36-.82 1.14 1.14 0 0 1 .49-.93 1.76 1.76 0 0 1 .48-.22c.14 0 .34-.07.6-.1a6.67 6.67 0 0 0 1.21-.23v-.18a.72.72 0 0 0-.19-.58 1.09 1.09 0 0 0-.77-.23 1.11 1.11 0 0 0-.7.17 1 1 0 0 0-.34.59l-.66-.09a1.62 1.62 0 0 1 .3-.69 1.24 1.24 0 0 1 .59-.4 2.56 2.56 0 0 1 .91-.14 2.39 2.39 0 0 1 .83.12 1.12 1.12 0 0 1 .47.3 1.09 1.09 0 0 1 .21.46 4 4 0 0 1 0 .63v.9a9.43 9.43 0 0 0 0 1.19 1.38 1.38 0 0 0 .17.48h-.71a1.41 1.41 0 0 1-.06-.49zm-.06-1.51a5 5 0 0 1-1.1.25 2.41 2.41 0 0 0-.59.14.54.54 0 0 0-.27.22.58.58 0 0 0-.1.32.57.57 0 0 0 .21.45.9.9 0 0 0 .6.18 1.41 1.41 0 0 0 .69-.17 1 1 0 0 0 .45-.47 1.68 1.68 0 0 0 .11-.68zM159.08 77.07v-4h.61v.56a1.33 1.33 0 0 1 .5-.47 1.39 1.39 0 0 1 .71-.18 1.34 1.34 0 0 1 .73.18 1 1 0 0 1 .4.52 1.42 1.42 0 0 1 1.23-.7 1.23 1.23 0 0 1 .92.33 1.4 1.4 0 0 1 .31 1v2.74h-.67v-2.49a2 2 0 0 0-.06-.59.67.67 0 0 0-.24-.29.78.78 0 0 0-.41-.11 1 1 0 0 0-.7.28 1.27 1.27 0 0 0-.28.9v2.32h-.67v-2.59a1.15 1.15 0 0 0-.17-.68.63.63 0 0 0-.54-.23 1 1 0 0 0-.53.15.86.86 0 0 0-.35.44 2.62 2.62 0 0 0-.11.84v2.07zM168.23 75.79l.7.08a1.67 1.67 0 0 1-.61.95 2.07 2.07 0 0 1-2.53-.2 2.07 2.07 0 0 1-.52-1.51 2.27 2.27 0 0 1 .52-1.57 1.77 1.77 0 0 1 1.35-.55 1.73 1.73 0 0 1 1.31.54 2.23 2.23 0 0 1 .5 1.54v.18h-3a1.6 1.6 0 0 0 .37 1 1.14 1.14 0 0 0 .84.34 1 1 0 0 0 .63-.19 1.26 1.26 0 0 0 .44-.61zm-2.23-1.1h2.23a1.36 1.36 0 0 0-.26-.76 1 1 0 0 0-.84-.39 1.06 1.06 0 0 0-.78.32 1.2 1.2 0 0 0-.35.83zM169.77 77.07v-4h.61v.6a1.77 1.77 0 0 1 .43-.56.76.76 0 0 1 .44-.13 1.25 1.25 0 0 1 .69.22l-.23.62a1.05 1.05 0 0 0-.5-.14.64.64 0 0 0-.4.13.76.76 0 0 0-.25.37 2.79 2.79 0 0 0-.11.79v2.09zM172.35 72.34v-.78h.65v.78zm0 4.73v-4h.65v4zM176.66 75.61l.67.08a1.77 1.77 0 0 1-.56 1.08 1.63 1.63 0 0 1-1.1.39 1.73 1.73 0 0 1-1.32-.53 2.19 2.19 0 0 1-.5-1.54 2.81 2.81 0 0 1 .21-1.13 1.47 1.47 0 0 1 .66-.73 1.94 1.94 0 0 1 .95-.24 1.64 1.64 0 0 1 1.06.33 1.46 1.46 0 0 1 .53.93l-.66.1a1 1 0 0 0-.33-.6.84.84 0 0 0-.58-.21 1.08 1.08 0 0 0-.83.37 1.77 1.77 0 0 0-.32 1.16 1.82 1.82 0 0 0 .31 1.17 1 1 0 0 0 .81.36 1 1 0 0 0 .66-.24 1.2 1.2 0 0 0 .34-.75zM180.51 76.58a2.64 2.64 0 0 1-.72.45 2 2 0 0 1-.75.13 1.47 1.47 0 0 1-1-.32 1 1 0 0 1-.35-.82 1.08 1.08 0 0 1 .13-.54 1.2 1.2 0 0 1 .35-.39 1.83 1.83 0 0 1 .49-.22 5.21 5.21 0 0 1 .6-.1 6.52 6.52 0 0 0 1.2-.23 1.62 1.62 0 0 0 0-.18.76.76 0 0 0-.19-.58 1.11 1.11 0 0 0-.77-.23 1.14 1.14 0 0 0-.71.17 1 1 0 0 0-.34.59l-.66-.09a1.62 1.62 0 0 1 .3-.69 1.32 1.32 0 0 1 .6-.4 2.5 2.5 0 0 1 .9-.14 2.39 2.39 0 0 1 .83.12 1.06 1.06 0 0 1 .47.3 1.09 1.09 0 0 1 .21.46 3 3 0 0 1 0 .63v.9a9.43 9.43 0 0 0 0 1.19 1.62 1.62 0 0 0 .17.48h-.7a1.41 1.41 0 0 1-.06-.49zm-.06-1.51a4.9 4.9 0 0 1-1.1.25 2.41 2.41 0 0 0-.59.14.54.54 0 0 0-.27.22.57.57 0 0 0-.09.32.59.59 0 0 0 .2.45.9.9 0 0 0 .6.18 1.48 1.48 0 0 0 .7-.17 1.07 1.07 0 0 0 .45-.47 1.71 1.71 0 0 0 .1-.68zM182.19 77.07v-4h.61v.57a1.42 1.42 0 0 1 1.27-.66 1.59 1.59 0 0 1 .66.13 1 1 0 0 1 .45.34 1.26 1.26 0 0 1 .21.5 3.3 3.3 0 0 1 0 .66v2.45h-.67v-2.42a1.94 1.94 0 0 0-.08-.62.72.72 0 0 0-.28-.32.86.86 0 0 0-.48-.13 1.12 1.12 0 0 0-.74.28 1.34 1.34 0 0 0-.32 1v2.18zM189.08 76.58a2.84 2.84 0 0 1-.73.45 2 2 0 0 1-.75.13 1.49 1.49 0 0 1-1-.32 1.15 1.15 0 0 1-.22-1.36 1.2 1.2 0 0 1 .35-.39 2 2 0 0 1 .49-.22 5.21 5.21 0 0 1 .6-.1 6.67 6.67 0 0 0 1.21-.23v-.18a.72.72 0 0 0-.19-.58 1.09 1.09 0 0 0-.77-.23 1.16 1.16 0 0 0-.71.17 1 1 0 0 0-.33.59l-.66-.09a1.75 1.75 0 0 1 .29-.69 1.32 1.32 0 0 1 .6-.4 2.52 2.52 0 0 1 .91-.14 2.39 2.39 0 0 1 .83.12 1.12 1.12 0 0 1 .47.3 1.09 1.09 0 0 1 .21.46 4.35 4.35 0 0 1 0 .63v.9a8.7 8.7 0 0 0 .05 1.19 1.38 1.38 0 0 0 .17.48h-.71a1.41 1.41 0 0 1-.11-.49zm-.08-1.51a5.16 5.16 0 0 1-1.11.25 2.68 2.68 0 0 0-.59.14.56.56 0 0 0-.26.22.51.51 0 0 0-.1.32.57.57 0 0 0 .21.45.86.86 0 0 0 .6.18 1.41 1.41 0 0 0 .69-.17 1 1 0 0 0 .45-.47 1.68 1.68 0 0 0 .11-.68zM110.31 85.57v-.5a1.25 1.25 0 0 1-1.12.59 1.62 1.62 0 0 1-.88-.26 1.81 1.81 0 0 1-.62-.74 2.6 2.6 0 0 1-.22-1.08 2.94 2.94 0 0 1 .2-1.09 1.65 1.65 0 0 1 .6-.74 1.55 1.55 0 0 1 .89-.26 1.32 1.32 0 0 1 .64.15 1.2 1.2 0 0 1 .46.4v-2h.68v5.51zm-2.14-2a1.74 1.74 0 0 0 .32 1.14 1 1 0 0 0 1.52 0 1.65 1.65 0 0 0 .31-1.11 1.89 1.89 0 0 0-.32-1.2 1 1 0 0 0-.77-.38.94.94 0 0 0-.76.37 1.81 1.81 0 0 0-.3 1.19zM114.73 84.29l.7.08a1.67 1.67 0 0 1-.61.95 2.07 2.07 0 0 1-2.53-.2 2.11 2.11 0 0 1-.52-1.51 2.27 2.27 0 0 1 .52-1.57 1.77 1.77 0 0 1 1.35-.55A1.73 1.73 0 0 1 115 82a2.18 2.18 0 0 1 .51 1.54v.18h-3a1.55 1.55 0 0 0 .38 1 1.1 1.1 0 0 0 .83.34 1.05 1.05 0 0 0 .64-.19 1.32 1.32 0 0 0 .37-.58zm-2.22-1.1h2.23a1.36 1.36 0 0 0-.25-.76 1.05 1.05 0 0 0-.84-.39 1.09 1.09 0 0 0-.79.32 1.2 1.2 0 0 0-.35.83zM118.51 85.57v-5.51h1.9a4.78 4.78 0 0 1 1 .08 1.91 1.91 0 0 1 .81.39 2.24 2.24 0 0 1 .65.94 4.35 4.35 0 0 1 .07 2.43 2.59 2.59 0 0 1-.38.8 2 2 0 0 1-.5.5 2.22 2.22 0 0 1-.66.28 3.84 3.84 0 0 1-.88.09zm.73-.65h1.17a2.81 2.81 0 0 0 .86-.1 1.12 1.12 0 0 0 .49-.29 1.67 1.67 0 0 0 .41-.69 3.39 3.39 0 0 0 .14-1.07 2.58 2.58 0 0 0-.28-1.33 1.5 1.5 0 0 0-.69-.62 3 3 0 0 0-.94-.11h-1.16zM126.59 85.08a2.54 2.54 0 0 1-.73.45 2 2 0 0 1-.74.13 1.46 1.46 0 0 1-1-.32 1 1 0 0 1-.36-.82 1.14 1.14 0 0 1 .49-.93 1.76 1.76 0 0 1 .48-.22c.14 0 .34-.07.6-.1a6.67 6.67 0 0 0 1.21-.23v-.18a.72.72 0 0 0-.2-.58 1.09 1.09 0 0 0-.77-.23 1.11 1.11 0 0 0-.7.17 1 1 0 0 0-.34.59l-.66-.09a1.62 1.62 0 0 1 .3-.69 1.27 1.27 0 0 1 .6-.4 2.47 2.47 0 0 1 .9-.14 2.39 2.39 0 0 1 .83.12 1.12 1.12 0 0 1 .47.3 1.09 1.09 0 0 1 .21.46 4 4 0 0 1 0 .63v.9a9.43 9.43 0 0 0 0 1.19 1.62 1.62 0 0 0 .17.48h-.71a1.41 1.41 0 0 1-.05-.49zm-.06-1.51a4.9 4.9 0 0 1-1.1.25 2.41 2.41 0 0 0-.59.14.54.54 0 0 0-.27.22.57.57 0 0 0-.09.32.56.56 0 0 0 .2.45.9.9 0 0 0 .6.18A1.48 1.48 0 0 0 126 85a1 1 0 0 0 .44-.47 1.52 1.52 0 0 0 .11-.68zM128.27 85.57v-4h.6v.57a1.44 1.44 0 0 1 1.27-.66 1.6 1.6 0 0 1 .67.13 1 1 0 0 1 .45.34 1.26 1.26 0 0 1 .21.5 3.3 3.3 0 0 1 0 .66v2.45h-.68v-2.42a1.69 1.69 0 0 0-.08-.62.62.62 0 0 0-.28-.32.81.81 0 0 0-.47-.13 1.1 1.1 0 0 0-.74.28 1.34 1.34 0 0 0-.32 1v2.18zM132.19 85.57V85l2.54-2.92H132.34v-.55h3.26V82l-2.16 2.53-.44.47h2.7v.58zM139 85.08a2.64 2.64 0 0 1-.72.45 2 2 0 0 1-.75.13 1.47 1.47 0 0 1-1-.32 1.15 1.15 0 0 1-.23-1.34 1.2 1.2 0 0 1 .35-.39 1.83 1.83 0 0 1 .49-.22 5.21 5.21 0 0 1 .6-.1A6.67 6.67 0 0 0 139 83v-.18a.72.72 0 0 0-.19-.58 1.11 1.11 0 0 0-.77-.23 1.14 1.14 0 0 0-.71.17 1 1 0 0 0-.33.59l-.67-.09a1.62 1.62 0 0 1 .3-.69 1.32 1.32 0 0 1 .6-.4 2.5 2.5 0 0 1 .9-.14 2.45 2.45 0 0 1 .84.12 1.12 1.12 0 0 1 .47.3 1.09 1.09 0 0 1 .21.46 4.35 4.35 0 0 1 0 .63v.9a9.43 9.43 0 0 0 0 1.19 1.62 1.62 0 0 0 .17.48h-.7a1.41 1.41 0 0 1-.12-.45zm0-1.51a5.16 5.16 0 0 1-1.11.25 2.54 2.54 0 0 0-.59.14.64.64 0 0 0-.27.22.57.57 0 0 0-.09.32.59.59 0 0 0 .2.45.9.9 0 0 0 .6.18 1.45 1.45 0 0 0 .7-.17 1.07 1.07 0 0 0 .45-.47 1.68 1.68 0 0 0 .11-.68zM107.2 94.07l2.12-5.51h.78l2.26 5.51h-.83l-.65-1.67h-2.3l-.58 1.67zm1.59-2.26h1.87l-.58-1.53q-.26-.69-.39-1.14a6.9 6.9 0 0 1-.3 1zM112.84 94.07v-5.51h.68v5.51zM114.57 89.34v-.78h.68v.78zm0 4.73v-4h.68v4zM118.88 92.61l.67.08a1.77 1.77 0 0 1-.56 1.08 1.63 1.63 0 0 1-1.1.39 1.73 1.73 0 0 1-1.32-.53 2.15 2.15 0 0 1-.5-1.54 2.81 2.81 0 0 1 .21-1.13 1.47 1.47 0 0 1 .66-.73 1.94 1.94 0 0 1 1-.24 1.64 1.64 0 0 1 1.06.33 1.5 1.5 0 0 1 .53.93l-.66.1a1 1 0 0 0-.33-.6.84.84 0 0 0-.58-.21 1.08 1.08 0 0 0-.83.37 1.77 1.77 0 0 0-.32 1.16 1.82 1.82 0 0 0 .31 1.17 1 1 0 0 0 .81.36 1 1 0 0 0 .66-.24 1.2 1.2 0 0 0 .29-.75zM120.13 89.34v-.78h.68v.78zm0 4.73v-4h.68v4zM124.44 93.58a2.64 2.64 0 0 1-.72.45 2 2 0 0 1-.75.13 1.47 1.47 0 0 1-1-.32 1.15 1.15 0 0 1-.22-1.36 1.2 1.2 0 0 1 .35-.39 1.83 1.83 0 0 1 .49-.22 5.21 5.21 0 0 1 .6-.1 6.67 6.67 0 0 0 1.21-.23v-.18a.76.76 0 0 0-.19-.58 1.11 1.11 0 0 0-.77-.23 1.14 1.14 0 0 0-.71.17 1 1 0 0 0-.33.59l-.67-.09a1.62 1.62 0 0 1 .3-.69 1.32 1.32 0 0 1 .6-.4 2.5 2.5 0 0 1 .9-.14 2.39 2.39 0 0 1 .83.12 1 1 0 0 1 .47.3 1 1 0 0 1 .22.46 4.35 4.35 0 0 1 0 .63v.9a9.43 9.43 0 0 0 0 1.19 1.62 1.62 0 0 0 .17.48h-.7a1.41 1.41 0 0 1-.08-.49zm0-1.51a5.16 5.16 0 0 1-1.11.25 2.54 2.54 0 0 0-.59.14.54.54 0 0 0-.27.22.57.57 0 0 0-.09.32.59.59 0 0 0 .2.45.9.9 0 0 0 .6.18 1.45 1.45 0 0 0 .7-.17 1.07 1.07 0 0 0 .45-.47 1.68 1.68 0 0 0 .11-.68zM127.74 94.07l2.12-5.51h.78l2.26 5.51h-.83l-.65-1.67h-2.3l-.61 1.67zm1.59-2.26h1.87l-.58-1.53q-.26-.69-.39-1.14a8.22 8.22 0 0 1-.29 1zM133.38 94.07v-5.51h.68v5.51zM134.85 92.07a2.08 2.08 0 0 1 .62-1.64 1.88 1.88 0 0 1 1.26-.44 1.79 1.79 0 0 1 1.34.54 2 2 0 0 1 .52 1.49 2.56 2.56 0 0 1-.23 1.21 1.71 1.71 0 0 1-.67.69 2 2 0 0 1-1 .24 1.79 1.79 0 0 1-1.36-.54 2.12 2.12 0 0 1-.48-1.55zm.7 0a1.7 1.7 0 0 0 .33 1.15 1.08 1.08 0 0 0 .85.38 1 1 0 0 0 .83-.38 1.69 1.69 0 0 0 .34-1.17 1.61 1.61 0 0 0-.34-1.12 1.12 1.12 0 0 0-1.68 0 1.69 1.69 0 0 0-.33 1.14zM139.39 94.07v-4h.61v.57a1.42 1.42 0 0 1 1.27-.66 1.59 1.59 0 0 1 .66.13 1 1 0 0 1 .45.34 1.26 1.26 0 0 1 .21.5 3.3 3.3 0 0 1 0 .66v2.45H142v-2.42a2 2 0 0 0-.07-.62.72.72 0 0 0-.28-.32.86.86 0 0 0-.48-.13 1.12 1.12 0 0 0-.74.28 1.34 1.34 0 0 0-.32 1v2.18zM143.4 92.88l.67-.11a.91.91 0 0 0 .31.62 1.1 1.1 0 0 0 .72.21 1 1 0 0 0 .69-.19.55.55 0 0 0 .21-.41.42.42 0 0 0-.2-.36 2.71 2.71 0 0 0-.69-.23 6.6 6.6 0 0 1-1-.33.92.92 0 0 1-.44-.38 1 1 0 0 1-.15-.53 1.08 1.08 0 0 1 .12-.5 1.2 1.2 0 0 1 .34-.37 1.23 1.23 0 0 1 .43-.2 1.81 1.81 0 0 1 .59-.1 2.37 2.37 0 0 1 .83.13 1.16 1.16 0 0 1 .52.37 1.41 1.41 0 0 1 .23.62l-.66.09a.68.68 0 0 0-.26-.48.92.92 0 0 0-.61-.18 1.16 1.16 0 0 0-.67.16.44.44 0 0 0-.19.36.35.35 0 0 0 .08.24.6.6 0 0 0 .26.18l.59.17a9.56 9.56 0 0 1 1 .31 1 1 0 0 1 .44.36 1 1 0 0 1 .16.58 1.16 1.16 0 0 1-.19.64 1.32 1.32 0 0 1-.53.45 2.08 2.08 0 0 1-.85.16 1.91 1.91 0 0 1-1.18-.32 1.51 1.51 0 0 1-.57-.96zM147.27 92.07a2.07 2.07 0 0 1 .61-1.64 1.9 1.9 0 0 1 1.26-.44 1.76 1.76 0 0 1 1.34.54A2 2 0 0 1 151 92a2.68 2.68 0 0 1-.23 1.21 1.74 1.74 0 0 1-.68.69 2 2 0 0 1-1 .24 1.81 1.81 0 0 1-1.36-.54 2.16 2.16 0 0 1-.46-1.53zm.69 0a1.65 1.65 0 0 0 .34 1.15 1 1 0 0 0 .84.38 1.06 1.06 0 0 0 .84-.38 1.74 1.74 0 0 0 .33-1.17 1.66 1.66 0 0 0-.33-1.12 1.1 1.1 0 0 0-.84-.38 1 1 0 0 0-.84.38 1.64 1.64 0 0 0-.3 1.14zM44.41 74.54a3 3 0 0 1 .74-2.15 2.52 2.52 0 0 1 1.9-.77 2.68 2.68 0 0 1 1.38.36 2.35 2.35 0 0 1 .93 1 3.22 3.22 0 0 1 .32 1.48 3.31 3.31 0 0 1-.33 1.5 2.38 2.38 0 0 1-1 1 2.72 2.72 0 0 1-1.34.34 2.6 2.6 0 0 1-1.35-.3 2.5 2.5 0 0 1-.93-1 3.11 3.11 0 0 1-.32-1.46zm.75 0a2.19 2.19 0 0 0 .54 1.57 1.75 1.75 0 0 0 1.3.59 1.78 1.78 0 0 0 1.36-.58 2.38 2.38 0 0 0 .53-1.64 2.73 2.73 0 0 0-.23-1.18 1.8 1.8 0 0 0-.66-.78 1.83 1.83 0 0 0-1-.27 1.86 1.86 0 0 0-1.34.53 2.36 2.36 0 0 0-.5 1.77zM50.53 77.23v-4h.61v.61a1.63 1.63 0 0 1 .43-.56.76.76 0 0 1 .43-.14 1.4 1.4 0 0 1 .7.22l-.23.63a1 1 0 0 0-.5-.15.65.65 0 0 0-.4.14.7.7 0 0 0-.25.37 2.48 2.48 0 0 0-.11.79v2.09zM53 77.56l.66.1a.6.6 0 0 0 .22.44 1.18 1.18 0 0 0 .69.19 1.25 1.25 0 0 0 .73-.19.93.93 0 0 0 .34-.53 3.4 3.4 0 0 0 .05-.86 1.4 1.4 0 0 1-1.1.52 1.51 1.51 0 0 1-1.28-.6 2.27 2.27 0 0 1-.45-1.42 2.67 2.67 0 0 1 .21-1.06 1.65 1.65 0 0 1 .6-.74 1.58 1.58 0 0 1 .92-.27 1.46 1.46 0 0 1 1.17.58v-.49h.62v3.46a3.21 3.21 0 0 1-.21 1.31 1.41 1.41 0 0 1-.6.61 2.07 2.07 0 0 1-1 .23 2 2 0 0 1-1.16-.32 1.1 1.1 0 0 1-.41-.96zm.56-2.4a1.74 1.74 0 0 0 .31 1.15 1 1 0 0 0 1.56 0 1.69 1.69 0 0 0 .32-1.13 1.61 1.61 0 0 0-.33-1.1 1 1 0 0 0-.78-.38 1 1 0 0 0-.77.37 1.65 1.65 0 0 0-.33 1.09zM60 76.73a2.47 2.47 0 0 1-.72.46 2.36 2.36 0 0 1-.75.13 1.46 1.46 0 0 1-1-.32 1.06 1.06 0 0 1-.36-.82 1.14 1.14 0 0 1 .49-.93 1.51 1.51 0 0 1 .48-.22 4 4 0 0 1 .61-.1 6.53 6.53 0 0 0 1.2-.24 1.49 1.49 0 0 0 0-.17.76.76 0 0 0-.2-.59 1.14 1.14 0 0 0-.75-.23 1.2 1.2 0 0 0-.7.17 1.07 1.07 0 0 0-.34.59l-.66-.09a1.58 1.58 0 0 1 .3-.68 1.2 1.2 0 0 1 .6-.4 2.5 2.5 0 0 1 .9-.15 2.39 2.39 0 0 1 .83.12 1.16 1.16 0 0 1 .47.31 1 1 0 0 1 .21.46 2.9 2.9 0 0 1 0 .62v.91a9.65 9.65 0 0 0 0 1.19 1.72 1.72 0 0 0 .17.48h-.71a1.47 1.47 0 0 1-.07-.5zm-.06-1.51a4.81 4.81 0 0 1-1.1.26 2.53 2.53 0 0 0-.59.13.6.6 0 0 0-.27.22.63.63 0 0 0-.09.33.56.56 0 0 0 .2.45.9.9 0 0 0 .6.18 1.48 1.48 0 0 0 .7-.17 1 1 0 0 0 .44-.47 1.52 1.52 0 0 0 .11-.68zM61.67 77.23v-4h.6v.57a1.45 1.45 0 0 1 1.28-.66 1.76 1.76 0 0 1 .66.13 1.07 1.07 0 0 1 .45.34 1.4 1.4 0 0 1 .21.5 3.43 3.43 0 0 1 0 .66v2.46h-.68V74.8a1.66 1.66 0 0 0-.08-.62.6.6 0 0 0-.28-.33.89.89 0 0 0-.47-.12 1.05 1.05 0 0 0-.74.28 1.34 1.34 0 0 0-.32 1v2.18zM66 72.49v-.77h.68v.77zm0 4.74v-4h.68v4zM67.3 77.23v-.55l2.54-2.92H67.45v-.55h3.27v.45l-2.17 2.54-.41.46h2.7v.59zM74.11 76.73a2.47 2.47 0 0 1-.72.46 2.27 2.27 0 0 1-.75.13 1.49 1.49 0 0 1-1-.32 1.15 1.15 0 0 1-.22-1.36 1.2 1.2 0 0 1 .35-.39 1.67 1.67 0 0 1 .49-.22 3.65 3.65 0 0 1 .6-.1 6.49 6.49 0 0 0 1.21-.24v-.17a.76.76 0 0 0-.19-.59 1.14 1.14 0 0 0-.77-.23 1.24 1.24 0 0 0-.71.17 1 1 0 0 0-.33.59l-.66-.09a1.7 1.7 0 0 1 .29-.68 1.25 1.25 0 0 1 .6-.4 2.52 2.52 0 0 1 .91-.15 2.43 2.43 0 0 1 .83.12 1.24 1.24 0 0 1 .47.31 1 1 0 0 1 .21.46 4.18 4.18 0 0 1 0 .62v.91a8.92 8.92 0 0 0 .05 1.19 1.26 1.26 0 0 0 .17.48h-.71a1.47 1.47 0 0 1-.12-.5zm0-1.51a5.06 5.06 0 0 1-1.11.26 2.66 2.66 0 0 0-.59.13.63.63 0 0 0-.26.22.56.56 0 0 0-.1.33.57.57 0 0 0 .21.45.86.86 0 0 0 .6.18 1.41 1.41 0 0 0 .69-.17 1.13 1.13 0 0 0 .45-.47 1.68 1.68 0 0 0 .11-.68zM78.4 75.76l.66.09a1.72 1.72 0 0 1-.56 1.08 1.61 1.61 0 0 1-1.1.39 1.7 1.7 0 0 1-1.32-.54 2.17 2.17 0 0 1-.5-1.53 2.86 2.86 0 0 1 .22-1.14 1.48 1.48 0 0 1 .65-.72 1.85 1.85 0 0 1 1-.25 1.67 1.67 0 0 1 1.07.33 1.54 1.54 0 0 1 .53.94l-.66.1a1.09 1.09 0 0 0-.39-.61.89.89 0 0 0-.58-.2 1 1 0 0 0-.83.37 1.75 1.75 0 0 0-.32 1.16 1.8 1.8 0 0 0 .31 1.17 1 1 0 0 0 .8.36 1 1 0 0 0 .67-.24 1.25 1.25 0 0 0 .35-.76zM79.64 72.49v-.77h.68v.77zm0 4.74v-4h.68v4zM81.1 75.23a2 2 0 0 1 .62-1.64 1.83 1.83 0 0 1 1.28-.45 1.8 1.8 0 0 1 1.35.54 2.06 2.06 0 0 1 .52 1.5 2.71 2.71 0 0 1-.23 1.21 1.63 1.63 0 0 1-.67.68 1.92 1.92 0 0 1-1 .25 1.77 1.77 0 0 1-1.35-.54 2.12 2.12 0 0 1-.52-1.55zm.7 0a1.72 1.72 0 0 0 .33 1.15 1.12 1.12 0 0 0 1.68 0 1.78 1.78 0 0 0 .33-1.17 1.66 1.66 0 0 0-.33-1.12 1.11 1.11 0 0 0-1.68 0 1.73 1.73 0 0 0-.33 1.14zm.8-2.49l.5-1h.9l-.82 1zM85.63 77.23v-4h.61v.57a1.44 1.44 0 0 1 1.27-.66 1.82 1.82 0 0 1 .67.13 1.07 1.07 0 0 1 .45.34 1.4 1.4 0 0 1 .21.5 3.43 3.43 0 0 1 0 .66v2.46h-.64V74.8a1.66 1.66 0 0 0-.08-.62.6.6 0 0 0-.28-.33.89.89 0 0 0-.47-.12 1.08 1.08 0 0 0-.75.28 1.39 1.39 0 0 0-.31 1v2.18zM11.61 85.63v-.51a1.23 1.23 0 0 1-1.11.6 1.62 1.62 0 0 1-.88-.26 1.67 1.67 0 0 1-.62-.74 2.48 2.48 0 0 1-.22-1.08A2.75 2.75 0 0 1 9 82.55a1.55 1.55 0 0 1 1.49-1 1.34 1.34 0 0 1 1.1.54v-2h.67v5.51zm-2.14-2a1.69 1.69 0 0 0 .33 1.14 1 1 0 0 0 1.51 0 1.65 1.65 0 0 0 .31-1.11 1.87 1.87 0 0 0-.31-1.2 1 1 0 0 0-.78-.38.94.94 0 0 0-.75.36 1.8 1.8 0 0 0-.31 1.2zM16 84.34l.7.09a1.71 1.71 0 0 1-.62.95 1.8 1.8 0 0 1-1.14.34 1.83 1.83 0 0 1-1.39-.54 2.12 2.12 0 0 1-.51-1.51 2.19 2.19 0 0 1 .52-1.57 1.74 1.74 0 0 1 1.34-.55 1.71 1.71 0 0 1 1.31.54 2.16 2.16 0 0 1 .51 1.53v.19h-3a1.51 1.51 0 0 0 .37 1 1.07 1.07 0 0 0 .83.35 1.05 1.05 0 0 0 .64-.19 1.25 1.25 0 0 0 .44-.63zm-2.22-1.09h2.23a1.36 1.36 0 0 0-.26-.76 1.05 1.05 0 0 0-.75-.39 1.1 1.1 0 0 0-.78.31 1.24 1.24 0 0 0-.4.84zM19.71 85.63v-5.51h.68v5.51zM24 85.14a2.64 2.64 0 0 1-.72.45 2 2 0 0 1-.75.13 1.47 1.47 0 0 1-1-.32 1.05 1.05 0 0 1-.35-.82 1.08 1.08 0 0 1 .13-.54 1.2 1.2 0 0 1 .35-.39 1.56 1.56 0 0 1 .49-.22 3.65 3.65 0 0 1 .6-.1 6.67 6.67 0 0 0 1.25-.24v-.17a.72.72 0 0 0-.19-.58 1.11 1.11 0 0 0-.77-.23 1.22 1.22 0 0 0-.71.16 1 1 0 0 0-.33.59l-.67-.09a1.58 1.58 0 0 1 .3-.68 1.25 1.25 0 0 1 .6-.4 2.5 2.5 0 0 1 .9-.14 2.45 2.45 0 0 1 .84.12 1.12 1.12 0 0 1 .47.3 1 1 0 0 1 .21.46 4.18 4.18 0 0 1 0 .62V84a9.65 9.65 0 0 0 0 1.19 1.62 1.62 0 0 0 .17.48h-.7a1.47 1.47 0 0 1-.12-.53zm0-1.52a5.06 5.06 0 0 1-1.11.26 2.41 2.41 0 0 0-.59.14.59.59 0 0 0-.27.22.57.57 0 0 0-.09.32.59.59 0 0 0 .2.45.9.9 0 0 0 .6.18 1.45 1.45 0 0 0 .7-.17 1.13 1.13 0 0 0 .45-.47 1.68 1.68 0 0 0 .11-.68zM25.45 84.44l.67-.11a.91.91 0 0 0 .31.62 1.1 1.1 0 0 0 .72.21 1 1 0 0 0 .69-.19.55.55 0 0 0 .23-.44.4.4 0 0 0-.2-.36 2.71 2.71 0 0 0-.69-.23 7.24 7.24 0 0 1-1-.33 1 1 0 0 1-.43-.38 1 1 0 0 1-.15-.53 1.06 1.06 0 0 1 .12-.5 1.12 1.12 0 0 1 .34-.38 1.34 1.34 0 0 1 .43-.19 1.81 1.81 0 0 1 .58-.08 2.37 2.37 0 0 1 .83.13 1.09 1.09 0 0 1 .52.37 1.41 1.41 0 0 1 .23.62l-.66.09a.76.76 0 0 0-.26-.49 1 1 0 0 0-.61-.17 1.08 1.08 0 0 0-.67.16.44.44 0 0 0-.19.36.34.34 0 0 0 .08.23.47.47 0 0 0 .26.18 5.27 5.27 0 0 0 .59.18 9.56 9.56 0 0 1 1 .31 1 1 0 0 1 .44.36 1 1 0 0 1 .16.58 1.13 1.13 0 0 1-.19.63 1.27 1.27 0 0 1-.57.47 2.26 2.26 0 0 1-.85.16A1.91 1.91 0 0 1 26 85.4a1.51 1.51 0 0 1-.55-.96zM31.79 85.63v-5.51h.75l2.89 4.32v-4.32h.7v5.51h-.75l-2.89-4.33v4.33zM39.87 85.14a2.64 2.64 0 0 1-.72.45 2 2 0 0 1-.75.13 1.49 1.49 0 0 1-1-.32 1.15 1.15 0 0 1-.23-1.4 1.2 1.2 0 0 1 .35-.39 1.67 1.67 0 0 1 .49-.22 3.65 3.65 0 0 1 .6-.1 6.49 6.49 0 0 0 1.21-.24v-.17a.72.72 0 0 0-.19-.58 1.09 1.09 0 0 0-.77-.23 1.24 1.24 0 0 0-.71.16 1 1 0 0 0-.33.59l-.66-.09a1.57 1.57 0 0 1 .29-.68 1.25 1.25 0 0 1 .6-.4 2.52 2.52 0 0 1 .91-.14 2.43 2.43 0 0 1 .83.12 1.12 1.12 0 0 1 .47.3 1 1 0 0 1 .21.46 4.18 4.18 0 0 1 0 .62V84a8.92 8.92 0 0 0 0 1.19 1.2 1.2 0 0 0 .17.48H40a1.47 1.47 0 0 1-.13-.53zm0-1.52a5.06 5.06 0 0 1-1.11.26 2.54 2.54 0 0 0-.59.14.64.64 0 0 0-.27.22.6.6 0 0 0 .1.76.86.86 0 0 0 .6.18 1.41 1.41 0 0 0 .69-.17 1.13 1.13 0 0 0 .45-.47 1.68 1.68 0 0 0 .11-.68zM44.16 84.17l.66.08a1.72 1.72 0 0 1-.56 1.08 1.61 1.61 0 0 1-1.1.39 1.7 1.7 0 0 1-1.32-.54 2.17 2.17 0 0 1-.5-1.53 2.9 2.9 0 0 1 .22-1.14 1.48 1.48 0 0 1 .65-.72 1.94 1.94 0 0 1 .95-.24 1.66 1.66 0 0 1 1.07.32 1.57 1.57 0 0 1 .53.94l-.66.1a1 1 0 0 0-.33-.6.84.84 0 0 0-.58-.21 1 1 0 0 0-.83.37 1.75 1.75 0 0 0-.36 1.16 1.8 1.8 0 0 0 .31 1.17 1 1 0 0 0 .8.36 1 1 0 0 0 .67-.24 1.22 1.22 0 0 0 .38-.75zM45.4 80.89v-.77h.68v.77zm0 4.74v-4h.68v4zM46.86 83.63a2 2 0 0 1 .62-1.63 1.82 1.82 0 0 1 1.25-.44 1.76 1.76 0 0 1 1.35.54 2 2 0 0 1 .52 1.49 2.71 2.71 0 0 1-.23 1.21 1.63 1.63 0 0 1-.67.68 1.92 1.92 0 0 1-1 .25 1.77 1.77 0 0 1-1.35-.54 2.12 2.12 0 0 1-.49-1.56zm.7 0a1.72 1.72 0 0 0 .33 1.15 1 1 0 0 0 .84.38 1.07 1.07 0 0 0 .84-.38 1.78 1.78 0 0 0 .33-1.17 1.66 1.66 0 0 0-.33-1.12 1.07 1.07 0 0 0-.84-.38 1 1 0 0 0-.84.38 1.69 1.69 0 0 0-.33 1.14zM51.39 85.63v-4H52v.56a1.44 1.44 0 0 1 1.27-.65 1.67 1.67 0 0 1 .67.13 1.06 1.06 0 0 1 .45.33 1.4 1.4 0 0 1 .21.5 3.43 3.43 0 0 1 0 .66v2.46H54V83.2a1.66 1.66 0 0 0-.08-.62.64.64 0 0 0-.28-.33.89.89 0 0 0-.47-.12 1.08 1.08 0 0 0-.75.28 1.39 1.39 0 0 0-.31 1v2.18zM58.41 84.34l.7.09a1.75 1.75 0 0 1-.61.95 2.08 2.08 0 0 1-2.54-.2 2.12 2.12 0 0 1-.51-1.51A2.19 2.19 0 0 1 56 82.1a1.74 1.74 0 0 1 1.34-.55 1.71 1.71 0 0 1 1.31.54 2.16 2.16 0 0 1 .51 1.53v.19h-3a1.51 1.51 0 0 0 .37 1 1.08 1.08 0 0 0 .84.35A1 1 0 0 0 58 85a1.25 1.25 0 0 0 .41-.66zm-2.22-1.09h2.23a1.36 1.36 0 0 0-.26-.76 1 1 0 0 0-.84-.39 1.1 1.1 0 0 0-.78.31 1.24 1.24 0 0 0-.35.84zM59.69 84.44l.67-.11a.91.91 0 0 0 .31.62 1.1 1.1 0 0 0 .72.21 1 1 0 0 0 .69-.19.55.55 0 0 0 .23-.44.4.4 0 0 0-.2-.36 2.71 2.71 0 0 0-.69-.23 7.24 7.24 0 0 1-1-.33 1 1 0 0 1-.43-.38 1 1 0 0 1-.15-.53 1.06 1.06 0 0 1 .12-.5 1 1 0 0 1 .34-.38 1.34 1.34 0 0 1 .43-.19 1.81 1.81 0 0 1 .58-.08 2.37 2.37 0 0 1 .83.13 1.09 1.09 0 0 1 .52.37 1.41 1.41 0 0 1 .23.62l-.66.09a.76.76 0 0 0-.26-.49 1 1 0 0 0-.61-.17 1.08 1.08 0 0 0-.67.16.45.45 0 0 0-.2.36.35.35 0 0 0 .09.23.47.47 0 0 0 .26.18 5.27 5.27 0 0 0 .59.18 9.56 9.56 0 0 1 1 .31 1 1 0 0 1 .44.36 1 1 0 0 1 .16.58 1.13 1.13 0 0 1-.19.63 1.39 1.39 0 0 1-.57.47 2.26 2.26 0 0 1-.85.16 1.91 1.91 0 0 1-1.18-.32 1.51 1.51 0 0 1-.55-.96zM69.65 80.12h.73v3.18a3.65 3.65 0 0 1-.19 1.32 1.59 1.59 0 0 1-.68.8 2.4 2.4 0 0 1-1.28.3 2.75 2.75 0 0 1-1.23-.26 1.52 1.52 0 0 1-.7-.78 3.45 3.45 0 0 1-.21-1.38v-3.18h.72v3.18a3.06 3.06 0 0 0 .14 1.06 1 1 0 0 0 .46.52 1.59 1.59 0 0 0 .79.18 1.54 1.54 0 0 0 1.15-.36 2.08 2.08 0 0 0 .34-1.4zM71.51 85.63v-4h.61v.56a1.41 1.41 0 0 1 1.27-.65 1.59 1.59 0 0 1 .66.13 1.06 1.06 0 0 1 .45.33 1.62 1.62 0 0 1 .22.5 5 5 0 0 1 0 .66v2.46h-.67V83.2a1.89 1.89 0 0 0-.08-.62.74.74 0 0 0-.28-.33.92.92 0 0 0-.48-.12 1.07 1.07 0 0 0-.74.28 1.35 1.35 0 0 0-.31 1v2.18zM75.79 80.89v-.77h.68v.77zm0 4.74v-4h.68v4zM80.09 85.63v-.51a1.23 1.23 0 0 1-1.12.6 1.58 1.58 0 0 1-.87-.26 1.67 1.67 0 0 1-.62-.74 2.48 2.48 0 0 1-.22-1.08 2.75 2.75 0 0 1 .2-1.09 1.55 1.55 0 0 1 1.48-1 1.36 1.36 0 0 1 .65.15 1.45 1.45 0 0 1 .46.39v-2h.67v5.51zm-2.14-2a1.74 1.74 0 0 0 .32 1.14 1 1 0 0 0 .77.38 1 1 0 0 0 .75-.36 1.65 1.65 0 0 0 .31-1.11 1.87 1.87 0 0 0-.31-1.2 1 1 0 0 0-.78-.38 1 1 0 0 0-.76.36 1.86 1.86 0 0 0-.25 1.18zM84.39 85.14a2.54 2.54 0 0 1-.73.45 2 2 0 0 1-.74.13 1.46 1.46 0 0 1-1-.32 1.06 1.06 0 0 1-.36-.82 1.14 1.14 0 0 1 .49-.93 1.51 1.51 0 0 1 .48-.22 4.09 4.09 0 0 1 .6-.1 6.49 6.49 0 0 0 1.21-.24v-.17a.72.72 0 0 0-.2-.58 1.09 1.09 0 0 0-.77-.23 1.21 1.21 0 0 0-.7.16 1 1 0 0 0-.34.59l-.66-.09a1.58 1.58 0 0 1 .3-.68 1.17 1.17 0 0 1 .59-.4 2.6 2.6 0 0 1 .91-.14 2.39 2.39 0 0 1 .83.12 1.06 1.06 0 0 1 .47.3 1 1 0 0 1 .21.46 3.8 3.8 0 0 1 0 .62V84a9.65 9.65 0 0 0 0 1.19 1.38 1.38 0 0 0 .17.48h-.71a1.47 1.47 0 0 1-.05-.53zm-.06-1.52a4.81 4.81 0 0 1-1.1.26 2.41 2.41 0 0 0-.59.14.54.54 0 0 0-.27.22.58.58 0 0 0-.1.32.57.57 0 0 0 .21.45.9.9 0 0 0 .6.18 1.41 1.41 0 0 0 .69-.17 1 1 0 0 0 .45-.47 1.52 1.52 0 0 0 .11-.68zM85.79 84.44l.67-.11a1 1 0 0 0 .32.62 1.1 1.1 0 0 0 .72.21 1 1 0 0 0 .69-.19.54.54 0 0 0 .22-.44.39.39 0 0 0-.19-.36 3 3 0 0 0-.7-.23 7 7 0 0 1-1-.33 1 1 0 0 1-.43-.38 1 1 0 0 1-.15-.53 1.06 1.06 0 0 1 .12-.5 1.1 1.1 0 0 1 .33-.38 1.58 1.58 0 0 1 .43-.19 1.87 1.87 0 0 1 .59-.08 2.28 2.28 0 0 1 .82.13 1.12 1.12 0 0 1 .53.37 1.41 1.41 0 0 1 .23.62l-.66.09a.76.76 0 0 0-.26-.49 1 1 0 0 0-.61-.17 1 1 0 0 0-.67.16.45.45 0 0 0-.2.36.4.4 0 0 0 .08.23.55.55 0 0 0 .26.18l.6.18a9.18 9.18 0 0 1 1 .31 1 1 0 0 1 .45.36 1 1 0 0 1 .16.58 1.14 1.14 0 0 1-.2.63 1.27 1.27 0 0 1-.57.47 2.21 2.21 0 0 1-.84.16 1.94 1.94 0 0 1-1.19-.32 1.56 1.56 0 0 1-.55-.96zM26.14 95.56V90h.61v.52a1.44 1.44 0 0 1 .5-.46 1.34 1.34 0 0 1 .66-.15 1.54 1.54 0 0 1 .9.26 1.57 1.57 0 0 1 .59.74 2.59 2.59 0 0 1 .2 1 2.65 2.65 0 0 1-.22 1.11 1.68 1.68 0 0 1-.64.75 1.64 1.64 0 0 1-.88.26 1.33 1.33 0 0 1-.6-.14 1.62 1.62 0 0 1-.45-.36v1.94zm.61-3.5a1.7 1.7 0 0 0 .31 1.13 1 1 0 0 0 1.53 0 1.77 1.77 0 0 0 .32-1.19 1.74 1.74 0 0 0-.31-1.14.93.93 0 0 0-.75-.38 1 1 0 0 0-.77.4 1.82 1.82 0 0 0-.33 1.18zM33 93.54a2.64 2.64 0 0 1-.72.45 2 2 0 0 1-.74.13 1.5 1.5 0 0 1-1-.32 1.15 1.15 0 0 1-.22-1.36 1.2 1.2 0 0 1 .35-.39 1.67 1.67 0 0 1 .49-.22 3.65 3.65 0 0 1 .6-.1 5.76 5.76 0 0 0 1.24-.24v-.17a.72.72 0 0 0-.19-.58 1.09 1.09 0 0 0-.77-.23 1.19 1.19 0 0 0-.7.16 1 1 0 0 0-.34.59l-.66-.08a1.69 1.69 0 0 1 .29-.69 1.25 1.25 0 0 1 .6-.4 2.52 2.52 0 0 1 .91-.14 2.39 2.39 0 0 1 .83.12 1.12 1.12 0 0 1 .47.3 1 1 0 0 1 .21.46 4.18 4.18 0 0 1 0 .62v.91a8.92 8.92 0 0 0 .05 1.19 1.38 1.38 0 0 0 .17.48h-.71a1.76 1.76 0 0 1-.16-.49zM33 92a4.54 4.54 0 0 1-1.11.26 2.54 2.54 0 0 0-.59.14.56.56 0 0 0-.26.22.51.51 0 0 0-.1.32.57.57 0 0 0 .21.45.86.86 0 0 0 .6.18 1.41 1.41 0 0 0 .69-.17 1.13 1.13 0 0 0 .45-.47 1.68 1.68 0 0 0 .11-.68zM34.69 94v-4h.61v.6a1.77 1.77 0 0 1 .43-.56.78.78 0 0 1 .44-.13 1.32 1.32 0 0 1 .69.21l-.23.63a.94.94 0 0 0-.5-.15.62.62 0 0 0-.39.14.72.72 0 0 0-.26.37 2.79 2.79 0 0 0-.11.79V94zM39.87 93.54a2.64 2.64 0 0 1-.72.45 2 2 0 0 1-.75.13 1.47 1.47 0 0 1-1-.32 1.05 1.05 0 0 1-.4-.8 1.08 1.08 0 0 1 .13-.54 1.2 1.2 0 0 1 .35-.39 1.56 1.56 0 0 1 .49-.22 3.65 3.65 0 0 1 .6-.1 5.63 5.63 0 0 0 1.2-.24 1.49 1.49 0 0 0 0-.17.76.76 0 0 0-.19-.58 1.11 1.11 0 0 0-.77-.23 1.22 1.22 0 0 0-.71.16 1.07 1.07 0 0 0-.34.59l-.66-.08a1.57 1.57 0 0 1 .3-.69 1.25 1.25 0 0 1 .6-.4 2.5 2.5 0 0 1 1-.11 2.39 2.39 0 0 1 .83.12 1.06 1.06 0 0 1 .47.3 1 1 0 0 1 .22.46 4.18 4.18 0 0 1 0 .62v.91a9.65 9.65 0 0 0 0 1.19 1.62 1.62 0 0 0 .17.48H40a1.47 1.47 0 0 1-.13-.54zM39.81 92a4.33 4.33 0 0 1-1.1.26 2.41 2.41 0 0 0-.59.14.54.54 0 0 0-.27.22.57.57 0 0 0-.09.32.59.59 0 0 0 .2.45.9.9 0 0 0 .6.18 1.45 1.45 0 0 0 .7-.17 1.13 1.13 0 0 0 .45-.47 1.71 1.71 0 0 0 .1-.68zM43.67 94v-5.48h.68V94zM48 93.54a2.64 2.64 0 0 1-.72.45 2 2 0 0 1-.75.13 1.47 1.47 0 0 1-1-.32 1.15 1.15 0 0 1-.22-1.36 1.2 1.2 0 0 1 .35-.39 1.67 1.67 0 0 1 .49-.22 3.65 3.65 0 0 1 .6-.1 5.76 5.76 0 0 0 1.25-.24v-.17a.72.72 0 0 0-.19-.58 1.09 1.09 0 0 0-.77-.23 1.22 1.22 0 0 0-.71.16 1 1 0 0 0-.33.59l-.67-.08a1.69 1.69 0 0 1 .3-.69 1.25 1.25 0 0 1 .6-.4 2.52 2.52 0 0 1 .91-.14 2.43 2.43 0 0 1 .83.12 1.12 1.12 0 0 1 .47.3 1 1 0 0 1 .21.46 4.18 4.18 0 0 1 0 .62v.91a9.65 9.65 0 0 0 0 1.19 1.4 1.4 0 0 0 .18.48h-.71a1.47 1.47 0 0 1-.12-.49zM48 92a4.54 4.54 0 0 1-1.11.26 2.54 2.54 0 0 0-.59.14.64.64 0 0 0-.27.22.6.6 0 0 0 .12.77.85.85 0 0 0 .59.18 1.42 1.42 0 0 0 .7-.17 1.13 1.13 0 0 0 .45-.47 1.68 1.68 0 0 0 .11-.68zM51.92 94v-5.48h4v.65h-3.27v1.69h3.05v.64h-3.05v1.88H56V94zM59.55 94v-.51a1.25 1.25 0 0 1-1.12.6 1.62 1.62 0 0 1-.88-.26 1.74 1.74 0 0 1-.62-.74 2.48 2.48 0 0 1-.22-1.09 2.94 2.94 0 0 1 .2-1.09 1.58 1.58 0 0 1 1.49-1 1.34 1.34 0 0 1 1.1.54v-2h.67V94zm-2.14-2a1.69 1.69 0 0 0 .32 1.14 1 1 0 0 0 .76.38 1 1 0 0 0 .76-.36 1.71 1.71 0 0 0 .31-1.11 1.87 1.87 0 0 0-.32-1.2 1 1 0 0 0-.78-.38.94.94 0 0 0-.75.36 1.86 1.86 0 0 0-.3 1.17zM63.85 94v-.59a1.46 1.46 0 0 1-1.26.68 1.59 1.59 0 0 1-.66-.14 1 1 0 0 1-.46-.34 1.2 1.2 0 0 1-.21-.5 4.26 4.26 0 0 1 0-.63V90h.68v2.21a3.91 3.91 0 0 0 0 .72.68.68 0 0 0 .27.41.8.8 0 0 0 .51.16 1.11 1.11 0 0 0 .57-.16.82.82 0 0 0 .38-.42 2 2 0 0 0 .11-.78V90h.68v4zM68.12 92.57l.67.08a1.72 1.72 0 0 1-.56 1.08 1.63 1.63 0 0 1-1.1.39 1.7 1.7 0 0 1-1.32-.54 2.17 2.17 0 0 1-.5-1.53 2.65 2.65 0 0 1 .22-1.13 1.46 1.46 0 0 1 .65-.73 1.94 1.94 0 0 1 .95-.24 1.72 1.72 0 0 1 1.07.32 1.57 1.57 0 0 1 .53.94l-.66.1a1.09 1.09 0 0 0-.33-.6.86.86 0 0 0-.58-.21 1 1 0 0 0-.83.37A1.69 1.69 0 0 0 66 92a1.8 1.8 0 0 0 .31 1.17 1 1 0 0 0 .8.36 1 1 0 0 0 .67-.24 1.22 1.22 0 0 0 .34-.72zM72 93.54a2.84 2.84 0 0 1-.73.45 2 2 0 0 1-.75.13 1.49 1.49 0 0 1-1-.32 1.15 1.15 0 0 1-.22-1.36 1.2 1.2 0 0 1 .35-.39 1.67 1.67 0 0 1 .49-.22 3.65 3.65 0 0 1 .6-.1 5.76 5.76 0 0 0 1.21-.24v-.17a.72.72 0 0 0-.19-.58 1.09 1.09 0 0 0-.77-.23 1.24 1.24 0 0 0-.71.16 1 1 0 0 0-.33.59l-.66-.08a1.69 1.69 0 0 1 .29-.69 1.25 1.25 0 0 1 .6-.4 2.52 2.52 0 0 1 .91-.14 2.39 2.39 0 0 1 .83.12 1.12 1.12 0 0 1 .47.3 1 1 0 0 1 .21.46 4.18 4.18 0 0 1 0 .62v.91a8.92 8.92 0 0 0 .05 1.19 1.2 1.2 0 0 0 .17.48h-.71a1.27 1.27 0 0 1-.11-.49zM71.92 92a4.54 4.54 0 0 1-1.11.26 2.54 2.54 0 0 0-.59.14.56.56 0 0 0-.26.22.51.51 0 0 0-.1.32.57.57 0 0 0 .21.45.86.86 0 0 0 .6.18 1.41 1.41 0 0 0 .69-.17 1.13 1.13 0 0 0 .45-.47 1.68 1.68 0 0 0 .11-.68zM76.26 92.57l.66.08a1.72 1.72 0 0 1-.56 1.08 1.61 1.61 0 0 1-1.1.39 1.7 1.7 0 0 1-1.32-.54 2.17 2.17 0 0 1-.5-1.53 2.81 2.81 0 0 1 .22-1.13 1.46 1.46 0 0 1 .65-.73 1.94 1.94 0 0 1 1-.24 1.72 1.72 0 0 1 1.07.32 1.57 1.57 0 0 1 .53.94l-.66.1a1 1 0 0 0-.33-.6.84.84 0 0 0-.58-.21 1 1 0 0 0-.83.37 1.75 1.75 0 0 0-.37 1.13 1.8 1.8 0 0 0 .31 1.17 1 1 0 0 0 .8.36 1 1 0 0 0 .67-.24 1.22 1.22 0 0 0 .34-.72zM77.51 89.3v-.78h.67v.78zm0 4.73V90h.67v4zM79 92a2.06 2.06 0 0 1 .62-1.64 1.82 1.82 0 0 1 1.21-.36 1.8 1.8 0 0 1 1.35.54A2 2 0 0 1 82.7 92a2.71 2.71 0 0 1-.23 1.21 1.63 1.63 0 0 1-.67.68 1.92 1.92 0 0 1-1 .25 1.77 1.77 0 0 1-1.35-.54A2.12 2.12 0 0 1 79 92zm.7 0a1.72 1.72 0 0 0 .3 1.18 1 1 0 0 0 .84.38 1.07 1.07 0 0 0 .84-.38A1.77 1.77 0 0 0 82 92a1.66 1.66 0 0 0-.34-1.12 1.06 1.06 0 0 0-.84-.38 1 1 0 0 0-.84.38 1.69 1.69 0 0 0-.32 1.12zm.8-2.49l.5-1.05h.88L81 89.54zM83.49 94v-4h.61v.56a1.46 1.46 0 0 1 1.27-.56 1.63 1.63 0 0 1 .67.13 1 1 0 0 1 .45.34 1.26 1.26 0 0 1 .21.5 3.25 3.25 0 0 1 0 .65V94h-.68v-2.4A1.66 1.66 0 0 0 86 91a.68.68 0 0 0-.28-.33.89.89 0 0 0-.47-.12 1.08 1.08 0 0 0-.75.28 1.39 1.39 0 0 0-.31 1V94zM88 94v-.77h.77V94a1.41 1.41 0 0 1-.15.69 1 1 0 0 1-.47.4l-.19-.29a.57.57 0 0 0 .31-.28 1.14 1.14 0 0 0 .12-.52zM15 103.27v-5.51h.68v5.51zM19.34 102.78a2.54 2.54 0 0 1-.73.45 2 2 0 0 1-.74.13 1.46 1.46 0 0 1-1-.32 1.06 1.06 0 0 1-.36-.82 1.14 1.14 0 0 1 .49-.93 1.51 1.51 0 0 1 .48-.22 4 4 0 0 1 .61-.1 5.78 5.78 0 0 0 1.2-.24v-.17a.72.72 0 0 0-.2-.58 1.09 1.09 0 0 0-.77-.23 1.21 1.21 0 0 0-.7.16 1 1 0 0 0-.34.6l-.66-.09a1.57 1.57 0 0 1 .3-.69 1.27 1.27 0 0 1 .6-.4 2.5 2.5 0 0 1 .9-.14 2.39 2.39 0 0 1 .83.12 1.06 1.06 0 0 1 .47.3 1 1 0 0 1 .21.46 2.9 2.9 0 0 1 0 .62v.91a9.65 9.65 0 0 0 0 1.19 1.62 1.62 0 0 0 .17.48h-.71a1.47 1.47 0 0 1-.05-.49zm-.06-1.52a4.33 4.33 0 0 1-1.1.26 2.41 2.41 0 0 0-.59.14.54.54 0 0 0-.27.22.57.57 0 0 0-.09.32.56.56 0 0 0 .2.45.9.9 0 0 0 .6.18 1.48 1.48 0 0 0 .7-.17 1 1 0 0 0 .44-.47 1.52 1.52 0 0 0 .11-.68zM27.17 101.34l.73.18a2.4 2.4 0 0 1-.82 1.37 2.26 2.26 0 0 1-1.46.47 2.64 2.64 0 0 1-1.45-.36 2.3 2.3 0 0 1-.85-1 3.83 3.83 0 0 1-.29-1.48 3.25 3.25 0 0 1 .33-1.5 2.2 2.2 0 0 1 .94-1 2.63 2.63 0 0 1 1.33-.34 2.25 2.25 0 0 1 1.39.42 2.23 2.23 0 0 1 .79 1.19l-.72.17a1.68 1.68 0 0 0-.56-.88 1.47 1.47 0 0 0-.91-.27 1.77 1.77 0 0 0-1.06.3 1.59 1.59 0 0 0-.6.82 3.15 3.15 0 0 0-.18 1.06 3.3 3.3 0 0 0 .22 1.21 1.5 1.5 0 0 0 .63.78 1.85 1.85 0 0 0 .94.26 1.59 1.59 0 0 0 1-.35 1.85 1.85 0 0 0 .6-1.05zM28.72 98.54v-.78h.68v.78zm0 4.73v-4h.68v4zM33.16 102l.7.09a1.72 1.72 0 0 1-.61 1 2.08 2.08 0 0 1-2.54-.2 2.11 2.11 0 0 1-.51-1.51 2.2 2.2 0 0 1 .52-1.57 1.74 1.74 0 0 1 1.34-.55 1.71 1.71 0 0 1 1.31.54 2.18 2.18 0 0 1 .51 1.53v.19h-3a1.51 1.51 0 0 0 .37 1 1.08 1.08 0 0 0 .84.35 1 1 0 0 0 .63-.19 1.25 1.25 0 0 0 .44-.68zm-2.22-1.09h2.23a1.36 1.36 0 0 0-.26-.76 1 1 0 0 0-.84-.39 1.1 1.1 0 0 0-.78.31 1.24 1.24 0 0 0-.35.82zM34.71 103.27v-4h.61v.56a1.44 1.44 0 0 1 1.27-.65 1.59 1.59 0 0 1 .66.13 1 1 0 0 1 .45.34 1.27 1.27 0 0 1 .22.5 4.68 4.68 0 0 1 0 .65v2.46h-.67v-2.43a1.89 1.89 0 0 0-.08-.62.8.8 0 0 0-.28-.33.92.92 0 0 0-.48-.12 1.07 1.07 0 0 0-.74.28 1.35 1.35 0 0 0-.31 1v2.18zM41.6 101.81l.66.08a1.72 1.72 0 0 1-.56 1.11 1.61 1.61 0 0 1-1.1.39 1.7 1.7 0 0 1-1.32-.54 2.17 2.17 0 0 1-.5-1.53 2.65 2.65 0 0 1 .22-1.13 1.46 1.46 0 0 1 .65-.73 1.94 1.94 0 0 1 1-.24 1.72 1.72 0 0 1 1.07.32 1.57 1.57 0 0 1 .53.94l-.66.1a1 1 0 0 0-.33-.6.86.86 0 0 0-.58-.21 1 1 0 0 0-.83.37 1.75 1.75 0 0 0-.32 1.16 1.78 1.78 0 0 0 .31 1.17 1 1 0 0 0 .8.36 1 1 0 0 0 .67-.24 1.22 1.22 0 0 0 .29-.78zM42.84 98.54v-.78h.68v.78zm0 4.73v-4h.68v4zM47.16 102.78a2.68 2.68 0 0 1-.73.45 2 2 0 0 1-.74.13 1.46 1.46 0 0 1-1-.32 1.06 1.06 0 0 1-.36-.82 1.1 1.1 0 0 1 .48-.93 1.67 1.67 0 0 1 .49-.22 3.65 3.65 0 0 1 .6-.1 5.76 5.76 0 0 0 1.21-.24v-.17a.72.72 0 0 0-.19-.58 1.09 1.09 0 0 0-.77-.23 1.19 1.19 0 0 0-.7.16 1 1 0 0 0-.34.6l-.66-.09a1.69 1.69 0 0 1 .29-.69 1.32 1.32 0 0 1 .6-.4 2.52 2.52 0 0 1 .91-.14 2.39 2.39 0 0 1 .83.12 1.12 1.12 0 0 1 .47.3 1 1 0 0 1 .21.46 4.18 4.18 0 0 1 0 .62v.91a8.92 8.92 0 0 0 0 1.19 1.38 1.38 0 0 0 .17.48h-.71a1.47 1.47 0 0 1-.06-.49zm-.06-1.52a4.43 4.43 0 0 1-1.11.26 2.68 2.68 0 0 0-.59.14.56.56 0 0 0-.26.22.51.51 0 0 0-.1.32.57.57 0 0 0 .21.45.88.88 0 0 0 .6.18 1.41 1.41 0 0 0 .69-.17 1 1 0 0 0 .45-.47 1.68 1.68 0 0 0 .11-.68zM50.94 104.81l-.07-.64a1.48 1.48 0 0 0 .38.06.74.74 0 0 0 .36-.07.58.58 0 0 0 .23-.21 3.49 3.49 0 0 0 .2-.51.91.91 0 0 0 .06-.16l-1.51-4h.73l.83 2.31c.11.29.2.6.29.92.08-.31.17-.61.28-.91l.85-2.32h.68l-1.52 4.06a8.6 8.6 0 0 1-.38.9 1.29 1.29 0 0 1-.41.49 1 1 0 0 1-.56.16 1.52 1.52 0 0 1-.44-.08zM57 103.27v-5.51h.67v5.51zM61.28 102.78a2.54 2.54 0 0 1-.73.45 2 2 0 0 1-.74.13 1.46 1.46 0 0 1-1-.32 1.06 1.06 0 0 1-.36-.82 1.09 1.09 0 0 1 .14-.54 1 1 0 0 1 .35-.39 1.51 1.51 0 0 1 .48-.22 4.09 4.09 0 0 1 .6-.1 5.76 5.76 0 0 0 1.21-.24v-.17A.72.72 0 0 0 61 100a1.09 1.09 0 0 0-.77-.23 1.19 1.19 0 0 0-.7.16 1 1 0 0 0-.34.6l-.66-.09a1.57 1.57 0 0 1 .3-.69 1.24 1.24 0 0 1 .59-.4 2.56 2.56 0 0 1 .91-.14 2.39 2.39 0 0 1 .83.12 1.12 1.12 0 0 1 .47.3 1 1 0 0 1 .21.46 3.8 3.8 0 0 1 0 .62v.91a9.65 9.65 0 0 0 0 1.19 1.38 1.38 0 0 0 .17.48h-.71a1.47 1.47 0 0 1-.02-.51zm-.06-1.52a4.33 4.33 0 0 1-1.1.26 2.66 2.66 0 0 0-.6.14.56.56 0 0 0-.26.22.58.58 0 0 0-.1.32.57.57 0 0 0 .21.45.9.9 0 0 0 .6.18 1.41 1.41 0 0 0 .69-.17 1 1 0 0 0 .45-.47 1.52 1.52 0 0 0 .11-.68zM69.11 101.34l.73.18a2.45 2.45 0 0 1-.82 1.37 2.26 2.26 0 0 1-1.46.47 2.64 2.64 0 0 1-1.45-.36 2.24 2.24 0 0 1-.85-1 3.83 3.83 0 0 1-.29-1.48A3.25 3.25 0 0 1 65.3 99a2.24 2.24 0 0 1 .93-1 2.67 2.67 0 0 1 1.34-.34 2.25 2.25 0 0 1 1.39.42 2.23 2.23 0 0 1 .79 1.19l-.72.17a1.68 1.68 0 0 0-.56-.88 1.49 1.49 0 0 0-.91-.27 1.82 1.82 0 0 0-1.07.3 1.71 1.71 0 0 0-.6.82 3.41 3.41 0 0 0-.17 1.06 3.3 3.3 0 0 0 .21 1.23 1.45 1.45 0 0 0 .63.78 1.82 1.82 0 0 0 .94.26 1.61 1.61 0 0 0 1-.35 1.85 1.85 0 0 0 .61-1.05zM73.27 103.27v-.59a1.46 1.46 0 0 1-1.27.68 1.66 1.66 0 0 1-.66-.14 1.07 1.07 0 0 1-.45-.34 1.2 1.2 0 0 1-.21-.5 3.21 3.21 0 0 1 0-.63v-2.47h.68v2.21a3.91 3.91 0 0 0 0 .72.68.68 0 0 0 .27.41.8.8 0 0 0 .51.16 1.17 1.17 0 0 0 .57-.16.86.86 0 0 0 .38-.42 2.23 2.23 0 0 0 .11-.78v-2.14h.68v4zM74.92 103.27v-5.51h.68v5.51zM78.12 102.66l.1.6a2.5 2.5 0 0 1-.51.06 1.22 1.22 0 0 1-.57-.11.67.67 0 0 1-.29-.31 2.61 2.61 0 0 1-.08-.8v-2.3h-.5v-.52h.5v-1l.67-.41v1.4h.68v.52h-.68v2.34a1.28 1.28 0 0 0 0 .37.25.25 0 0 0 .12.13.46.46 0 0 0 .23 0zM81.4 103.27v-.59a1.46 1.46 0 0 1-1.26.68 1.59 1.59 0 0 1-.66-.14 1 1 0 0 1-.46-.34 1.2 1.2 0 0 1-.21-.5 3.21 3.21 0 0 1 0-.63v-2.47h.68v2.21a3.91 3.91 0 0 0 0 .72.68.68 0 0 0 .27.41.8.8 0 0 0 .51.16 1.17 1.17 0 0 0 .57-.16.82.82 0 0 0 .38-.42 2.23 2.23 0 0 0 .11-.78v-2.14H82v4zM83.06 103.27v-4h.61v.6a1.63 1.63 0 0 1 .43-.56.75.75 0 0 1 .43-.13 1.38 1.38 0 0 1 .7.21L85 100a1 1 0 0 0-.5-.14.64.64 0 0 0-.4.13.7.7 0 0 0-.25.37 2.48 2.48 0 0 0-.11.79v2.09zM88.24 102.78a2.54 2.54 0 0 1-.73.45 2 2 0 0 1-.74.13 1.46 1.46 0 0 1-1-.32 1.06 1.06 0 0 1-.36-.82 1.09 1.09 0 0 1 .14-.54 1 1 0 0 1 .35-.39 1.51 1.51 0 0 1 .48-.22 4.09 4.09 0 0 1 .6-.1 5.76 5.76 0 0 0 1.21-.24v-.17A.72.72 0 0 0 88 100a1.09 1.09 0 0 0-.77-.23 1.19 1.19 0 0 0-.7.16 1 1 0 0 0-.34.6l-.66-.09a1.57 1.57 0 0 1 .3-.69 1.24 1.24 0 0 1 .59-.4 2.56 2.56 0 0 1 .91-.14 2.39 2.39 0 0 1 .83.12 1.12 1.12 0 0 1 .47.3 1 1 0 0 1 .21.46 3.8 3.8 0 0 1 0 .62v.91a9.65 9.65 0 0 0 0 1.19 1.38 1.38 0 0 0 .17.48h-.71a1.47 1.47 0 0 1-.06-.51zm-.06-1.52a4.33 4.33 0 0 1-1.1.26 2.66 2.66 0 0 0-.6.14.56.56 0 0 0-.26.22.58.58 0 0 0-.1.32.57.57 0 0 0 .21.45.9.9 0 0 0 .6.18 1.41 1.41 0 0 0 .69-.17 1 1 0 0 0 .45-.47 1.68 1.68 0 0 0 .11-.68zM157.56 62.55h-.59c-2.2-.21-3.25-1-8.11-12.07l-8.24-18.82-.25 1.49 7.5 17.33a23.17 23.17 0 0 1 2 7.8c.13 2.4-.26 4.11-2.76 4.27h-1.12v.16h11.62zM139.83 48.18c-.11-.63-.34-1.28-.4-1.93a10.72 10.72 0 0 0-.3-2.48c-.46-1.41-1-2.81-1.54-4.16l-2.14 5.07c.51 1.09 1 2.19 1.5 3.28a8.56 8.56 0 0 1 .51 1.63 12 12 0 0 0 1.8 4.39l2.52 3.26a.9.9 0 0 1 .08 1.08.9.9 0 0 0 .52 1.45 1.39 1.39 0 0 1 .69.66c.33.56.19 1.2.38 1.79a.85.85 0 0 0 .71.59c.22 0 .44-.33.5-.58a6.17 6.17 0 0 0-.47-4.16c-1.85-3.16-3.71-6.31-4.36-9.89zM127.63 37.79a27.7 27.7 0 0 0 3 .47 2.35 2.35 0 0 1 1.26.37l1.85-4.84a5.15 5.15 0 0 1-2.75.59c-1.9-.09-4.08.47-6 .58-1.68.11-3.51 0-5.21 0-1.33 0-2.71.26-4.06.38a6.41 6.41 0 0 1-4.24-.84 6.29 6.29 0 0 0-2.83-1.31.72.72 0 0 0-.77 1 1.85 1.85 0 0 0 .48.6c1.55 1.48 4 1.67 6.09 1.92 2.47.3 5 .52 7.45.61a41.3 41.3 0 0 1 5.73.47z" class="cls-1" style="fill: rgb(16, 19, 63);"/>
  <path d="M133.19 49.26h3.48l-.2-.62h-3l1.75-4.54 2.13-5.1a12.7 12.7 0 0 1 1-2.38 7.78 7.78 0 0 0 1.27-4.07v-.81c0-.7-.09-1.4-.09-2.1a9.58 9.58 0 0 1 .05-1.07 2.32 2.32 0 0 0-.86-2.31 4.65 4.65 0 0 1-1.09-1 9.75 9.75 0 0 0-1.17-1.69 5.44 5.44 0 0 1-1.3-2.12.17.17 0 0 1 0-.2 1.62 1.62 0 0 0-.68-2.34.69.69 0 0 1-.44-.47 1.22 1.22 0 0 0-1.19-1.17.22.22 0 0 1-.2-.12 28.35 28.35 0 0 0-4.45-6.21 5.28 5.28 0 0 1-.84-2.22 1.67 1.67 0 0 1 0-.39c-.08.13-.18.25-.25.38a.57.57 0 0 0 0 .26c0 .06 0 .15-.07.1s-.47-.31-.41-.52c.14-.5-.23-.6-.51-.79H126l.09.1.15.27h-.09l-.52-.41-.1-.11c0 .08-.05.2 0 .23s.19.34.31.47a10.93 10.93 0 0 1 1.07 1.69c.53.83 1 1.73 1.49 2.55a40.6 40.6 0 0 1 2.51 4.86c.09.18.12.27-.08.38a3.09 3.09 0 0 0-.85.84c-.28.36-.28.84-.52 1.19a1.44 1.44 0 0 0 .58 2.08c.58.16.86.58 1.29.88a1.75 1.75 0 0 1 .79 2.11c-.05.17-.11.21-.28.2a4.74 4.74 0 0 0-1.07-.1 46.91 46.91 0 0 1-5.42.67c-.92 0-1.85-.09-2.77 0s-2 .29-3 .32-2.23-.08-3.33 0a7.77 7.77 0 0 1-3.29-.29c-.19-.06-.51-.23-.55-.11-.11.29.22.37.43.49l.13.11a.47.47 0 0 1-.16 0l-.39-.05c.13.1.24.25.38.3a1.25 1.25 0 0 0 .6.08 1.32 1.32 0 0 1 1 .27l.15.13a.78.78 0 0 0-.15.1c-.1.08-.36.13-.3.21a.53.53 0 0 0 .55.14 6.06 6.06 0 0 1 2.3-.47l2.82.35c1.55.17 3.32-.12 4.92-.1s3 .14 4.54.25a2.85 2.85 0 0 1 1.87.49 16.88 16.88 0 0 1 3.54 4.39.79.79 0 0 1 0 .8l-2.3 6.07-6 14.61c-3.15 7.69-3.68 8.49-5.87 8.76h-.43v.16h12.76v-.16h-1.38c-3.42-.11-2.51-2.3-.11-8.49zM146.66 48.64h-6.19l.19.62h6.21l-.21-.62z" class="cls-1" style="fill: rgb(16, 19, 63);"/>
</svg>