<?xml version="1.0" encoding="utf-8"?>
<svg id="Layer_1" data-name="Layer 1" viewBox="0 0 1545.88 452.6" xmlns="http://www.w3.org/2000/svg">
  <path d="M406.81 373.59c0 22 .49 24.58 7.66 24.58h13c16 0 23.61-3.58 33.22-33.05l1.79-5.54h.52v39.24h-83.87v-.48l3.42-.17c8-.32 9.45-2.28 9.45-24.58v-59.27c0-22.31-1.47-24.26-9.45-24.59l-3.42-.16v-.49h40.55v.49l-3.42.16c-8 .33-9.45 2.28-9.45 24.59zM505.48 373.59c0 22.3 1.47 24.26 9.45 24.58l3.41.17v.48H477.8v-.48l3.42-.17c8-.32 9.44-2.28 9.44-24.58v-59.27c0-22.31-1.46-24.26-9.44-24.59l-3.42-.16v-.49h40.54v.49l-3.41.16c-8 .33-9.45 2.28-9.45 24.59zM621.09 400.94c-4.24-5.37-8.31-9-11.73-9-2 0-3.25.82-5.86 2.61a34.09 34.09 0 0 1-20 6.35c-33.87 0-51.12-27.84-51.12-56.83 0-29.31 17.25-57.15 51.12-57.15a33.64 33.64 0 0 1 19 5.54c1.63 1.14 3.26 2.28 5.21 2.28 2.93 0 6.19-3.1 10.1-7.82h.32v31.59h-.48l-1.77-5.51c-4.4-13.67-15.15-25.4-32.08-25.4-26.22 0-34.68 28.17-34.68 56.34s8.46 56.34 34.68 56.34c21 0 31.91-19.38 35.33-30.29l1.79-5.53h.49v36.47zM667.16 373.59c0 22.3 1.47 24.26 9.44 24.58l3.42.17v.48h-40.54v-.48l3.42-.17c8-.32 9.44-2.28 9.44-24.58v-59.27c0-22.31-1.46-24.26-9.44-24.59l-3.42-.16v-.49H680v.49l-3.42.16c-8 .33-9.44 2.28-9.44 24.59zM720.24 372.28c-7.33 18.89-10.1 25.57.32 25.89l4.24.17v.48h-38.92v-.48l1.31-.17c6.67-.81 8.3-3.25 17.91-26.7l34.35-84h1.79l28.34 73.92c13 33.87 16.12 36.15 22.79 36.8l1.79.17v.48h-33v-.48l3.42-.17c7.65-.49 9.12-5.7 9.12-13a68.4 68.4 0 0 0-4.73-23.78l-3.09-8.14h-38.31zm26.54-68.71l-18.89 49h37.61zM870.85 372.28c-7.33 18.89-10.1 25.57.32 25.89l4.24.17v.48h-38.92v-.48l1.3-.17c6.68-.81 8.31-3.25 17.91-26.7l34.36-84h1.79l28.33 73.92c13 33.87 16.12 36.15 22.8 36.8l1.79.17v.48h-33v-.48l3.42-.17c7.65-.49 9.11-5.7 9.11-13a68.37 68.37 0 0 0-4.72-23.78l-3.09-8.14h-38.32zm26.54-68.71l-18.89 49h37.61zM978.31 373.59c0 22 .49 24.58 7.65 24.58h13c16 0 23.61-3.58 33.21-33.05l1.79-5.54h.49v39.24h-83.82v-.48l3.42-.17c8-.32 9.44-2.28 9.44-24.58v-59.27c0-22.31-1.46-24.26-9.44-24.59l-3.42-.16v-.49h40.54v.49l-3.42.16c-8 .33-9.44 2.28-9.44 24.59zM1099.61 400.94c-34.52 0-53.73-27.35-53.73-57.15s19.21-56.79 53.73-56.79 53.73 27 53.73 56.83-19.21 57.15-53.73 57.15m0-113.33c-28 0-37 26.71-37 56.34 0 29.31 8.95 56.34 37 56.34s37-26.7 37-56.34c0-29.31-9-56.34-37-56.34M1267.64 380.1v-51.94c0-13.35-4.56-37.78-16.93-38.43l-3.42-.16v-.49h35.33v.49l-1.79.16c-8.95.81-12.54 13.35-12.54 38.43v72.13H1266l-85.33-101.44v60.9c0 13.35 4.56 37.77 16.94 38.42l3.42.17v.48h-35.34v-.48l1.8-.17c9-.81 12.53-13.35 12.53-38.42v-45.43c0-22.31-3.42-24.26-11.4-24.59l-2.93-.16v-.49h26.87zM1341.4 400.94a37.87 37.87 0 0 1-21.82-6.35c-2.44-1.63-3.91-2.44-6-2.44-3.59 0-7.33 3.58-11.4 8.79h-.33v-36.47h.49l2 6c4.23 12.86 14.49 29.8 37 29.8 14.49 0 25.4-6.51 25.4-21.49 0-33.06-60.25-26.38-60.25-63 0-17.26 14.33-28.82 32.08-28.82a32.64 32.64 0 0 1 18.43 5.54c2.12 1.46 3.75 2.28 5.37 2.28 2.77 0 6.19-3.26 9.94-7.82h.32v31.59h-.49l-1.79-5.7c-4.88-16.44-17.91-25.24-31.42-25.24s-21.17 7-21.17 17.91c0 33.71 61.06 27 61.06 65.46 0 17.91-16 30-37.45 30M1449.19 400.94c-34.52 0-53.73-27.35-53.73-57.15s19.21-56.79 53.73-56.79 53.73 27 53.73 56.83-19.21 57.15-53.73 57.15m0-113.33c-28 0-37 26.71-37 56.34 0 29.31 9 56.34 37 56.34s37-26.7 37-56.34c0-29.31-9-56.34-37-56.34M372.06 223.48v7h15.74v6.59h-15.74v12.76h-7.25v-33h25.11v6.6zM433 250.37c-8.86 0-14.27-4.94-14.27-14.65v-18.84H426v18.66c0 5.37 2.68 8.14 7.11 8.14s7.11-2.68 7.11-7.91v-18.89h7.26v18.61c0 9.98-5.61 14.88-14.48 14.88zM501.56 249.85l-16-21v21h-7.16v-33h6.69l15.45 20.3v-20.3h7.16v33zM552.05 249.85h-12.86v-33h12.86c10.37 0 17.53 7.12 17.53 16.39v.1c0 9.31-7.16 16.51-17.53 16.51zm9.95-16.48c0-5.84-4-9.94-9.94-9.94h-5.6v19.88h5.6c5.94 0 9.94-4 9.94-9.85zM621.72 249.85l-3-7.39h-13.95l-3 7.39h-7.39l14.13-33.2h6.69l14.13 33.2zm-10-24.49l-4.38 10.69h8.76zM671.28 250.42a16.65 16.65 0 0 1-16.91-17v-.09a16.76 16.76 0 0 1 17.19-17.05c6.22 0 9.94 2.07 13 5.08l-4.56 5.37c-2.55-2.31-5.14-3.72-8.44-3.72-5.55 0-9.56 4.61-9.56 10.26v.1c0 5.65 3.91 10.36 9.56 10.36 3.77 0 6.08-1.51 8.67-3.86l4.62 4.66a16.85 16.85 0 0 1-13.57 5.89zM714.47 249.85v-33h7.26v33zM769.49 250.42c-10.17 0-17.47-7.58-17.47-17v-.09c0-9.37 7.39-17.05 17.57-17.05s17.47 7.58 17.47 17v.1c0 9.36-7.39 17.04-17.57 17.04zm10-17c0-5.65-4.15-10.36-10-10.36s-9.89 4.61-9.89 10.26v.1c0 5.65 4.15 10.36 10 10.36s9.89-4.61 9.89-10.27zM767 214.29l5.32-8.34 6.17 2.69-6 5.65zM840.2 249.85l-16-21v21h-7.16v-33h6.69l15.45 20.3v-20.3h7.16v33zM928.38 249.85h-12.86v-33h12.86c10.36 0 17.52 7.12 17.52 16.39v.1c0 9.31-7.16 16.51-17.52 16.51zm9.94-16.48c0-5.84-4-9.94-9.94-9.94h-5.61v19.88h5.61c5.93 0 9.94-4 9.94-9.85zM975.86 249.85v-33h24.87v6.46h-17.66V230h15.54v6.46h-15.54v6.92H1001v6.45zM1068.66 249.85v-33h7.26v26.38h16.44v6.59zM1145.91 249.85l-3-7.39H1129l-3 7.39h-7.39l14.13-33.2h6.69l14.13 33.2zm-10-24.49l-4.38 10.69h8.76zM1232.68 249.85h-12.86v-33h12.86c10.36 0 17.52 7.12 17.52 16.39v.1c0 9.31-7.2 16.51-17.52 16.51zm9.94-16.48c0-5.84-4-9.94-9.94-9.94h-5.6v19.88h5.6c5.94 0 9.94-4 9.94-9.85zM1302.4 249.85l-3-7.39h-13.94l-3 7.39H1275l14.13-33.2h6.69l14.13 33.2zm-10-24.49l-4.4 10.69h8.76zM1361.7 249.85l-16-21v21h-7.16v-33h6.69l15.45 20.3v-20.3h7.15v33zM1398.31 249.85v-5.51l18.13-21.1h-17.57v-6.36h26.9v5.51l-18.14 21.11h18.14v6.35zM1480.69 249.85l-3-7.39h-13.94l-3 7.39h-7.39l14.13-33.2h6.69l14.13 33.2zm-10-24.49l-4.38 10.69h8.76zM367.68 398.2l-3.73-.33c-13.91-1.35-20.57-6.08-51.27-76.26L262.27 206l-.78 1.28 49.84 114.31c7.29 16.53 11.61 34.42 12.39 49.26.8 15.19-1.66 26-17.47 27l-7.07.33.06 1h68.49zM259.49 203.45c-.14-4.41-.55-8.84-.58-13.29a54 54 0 0 1 .34-6.71c.68-5.74-.59-11-5.45-14.63a28.27 28.27 0 0 1-6.88-6.52c-2.45-3.58-4.33-7.76-7.4-10.67-4.05-3.83-6.35-8.38-8.21-13.37a1.09 1.09 0 0 1 .1-1.27c3.84-4.89.9-12.29-4.27-14.76a4.3 4.3 0 0 1-2.78-3c-.74-4.6-2.87-6.75-7.54-7.39a1.37 1.37 0 0 1-1.23-.74c-7.27-14.41-17.11-27.1-28.14-39.24-3.63-4-3.78-9.23-5.31-14a10.61 10.61 0 0 1-.21-2.48 19.85 19.85 0 0 0-1.6 2.42 4 4 0 0 0-.07 1.64c0 .35-.17.94-.45.61-.93-1.09-2.95-1.94-2.58-3.3.86-3.16-1.47-3.76-3.2-5a4.15 4.15 0 0 0-.78-.33 4 4 0 0 1 .56.61c.34.57.64 1.16.95 1.74-.19 0-.42 0-.55-.11-1.1-.83-2.19-1.68-3.26-2.54a8.31 8.31 0 0 1-.65-.68c-.06.49-.35 1.25-.15 1.43 1 .82 1.22 2.15 2 3 3 3.24 4.5 7.44 6.82 11.1 3.33 5.25 6 10.94 9.43 16.15 6.3 9.62 10.94 20.35 15.87 30.71.53 1.1.73 1.65-.52 2.38a19.66 19.66 0 0 0-5.41 5.31c-1.75 2.26-1.76 5.29-3.25 7.53-2.82 4.24-1.28 11.81 3.65 13.13 3.65 1 5.47 3.66 8.14 5.53 4.73 3.32 6.68 7.61 5 13.35-.3 1.06-.72 1.32-1.76 1.24-2.27-.18-4.47-.95-6.79-.63-11.31 1.57-22.75 4-34.21 4.24-5.82.12-11.73-.57-17.51-.23-6.38.38-12.73 1.79-19.14 2-7 .26-14.11-.56-21.05.2a48.33 48.33 0 0 1-20.76-1.8c-1.18-.38-3.2-1.49-3.48-.73-.67 1.84 1.42 2.34 2.69 3.12a5.35 5.35 0 0 1 .81.7 4 4 0 0 1-1 .13c-.82-.08-1.63-.22-2.45-.33a10.13 10.13 0 0 0 2.41 1.9 7.31 7.31 0 0 0 3.76.49 8.13 8.13 0 0 1 6.6 1.72c.34.24.65.53 1 .8-.32.22-.66.42-1 .66-.63.52-2.28.82-1.87 1.31a3.33 3.33 0 0 0 3.46.89c4.8-1.19 9.37-3.63 14.52-3 5.94.73 12.25 1.58 17.83 2.21 9.81 1.11 21-.7 31.09-.59 9.22.11 19.18.9 28.67 1.54 4 .27 8.84.21 11.79 3.1A170.79 170.79 0 0 1 220 194.55c3.35 4.21 10 11.4 8.05 17.2-4.34 12.94-9.8 25.65-14.64 38.44l-37.74 92.3c-19.91 48.59-23.28 53.65-37.12 55.34l-2.7.33v1h80.64v-1l-8.77-.33c-21.59-.68-15.86-14.51-.67-53.65l24.16-62.55v-.08l13.68-32.25c2.1-5.08 3.47-10.67 6.53-15.09 5.25-7.59 7.6-16.61 8-25.7.07-1.7.09-3.41 0-5.1" class="cls-1" style="fill: rgb(164, 166, 190);"/>
  <path d="M302.58 311.79l-.5-1.5h-39.14l.39 1.5h39.25zM200.6 310.29v1.5h41.62l-.48-1.5H200.6z" class="cls-1" style="fill: rgb(164, 166, 190);"/>
  <path d="M288.12 369.87c-11.72-20-23.45-39.85-27.56-62.48-.72-3.95-2.15-8.06-2.52-12.14-.48-5.27-.29-10.77-1.9-15.71-2.61-8-5.41-15.88-8.62-23.58l-13.07 30.82v.12l-.35.92c2.78 6.08 5.53 12.17 8.33 18.19a59.43 59.43 0 0 1 3.2 10.29c2.53 9.61 5.19 19.76 11.38 27.77 5.25 6.81 10.6 13.72 15.92 20.55a5.75 5.75 0 0 1 .48 6.85c-2.3 4.3-1.28 7.28 3.3 9.17a8.91 8.91 0 0 1 4.37 4.13c2.08 3.53 1.19 7.62 2.4 11.3a5.38 5.38 0 0 0 4.48 3.77c1.39.13 2.8-2.08 3.17-3.65 1.86-7.82 1.24-19.16-3-26.32M213.92 235.3c2.36-6 4.77-12 7-18.15a32.61 32.61 0 0 1-16.15 3.08c-12-.52-25.76 3-38.17 3.71-10.66.64-22.21-.18-33-.09-8.36.06-17.07 1.68-25.61 2.38-9.14.76-19.19.08-26.81-5.26-5.4-3.79-11.11-7.57-17.83-8.28a4.55 4.55 0 0 0-4.87 6.43 11.7 11.7 0 0 0 3 3.8C71.3 232.25 86.72 233.43 100 235c15.61 1.91 31.5 3.3 47.07 3.85 12.11.43 24.41.76 36.44 2.91 6.29 1.12 12.57 2.52 19 2.95a15.6 15.6 0 0 1 7 1.77c1.44-3.76 2.94-7.54 4.39-11.22" class="cls-1" style="fill: rgb(164, 166, 190);"/>
</svg>