<?xml version="1.0" encoding="utf-8"?>
<svg id="Layer_1" data-name="Layer 1" viewBox="0 0 1425.39 1423.05" xmlns="http://www.w3.org/2000/svg">
  <defs>
    <style>.cls-1,.cls-10,.cls-2,.cls-6,.cls-7,.cls-8{fill:#c8a977;}.cls-2,.cls-6,.cls-7,.cls-8{font-size:92.72px;font-family:GothamHTF-Black, Gotham HTF;}.cls-2,.cls-9{letter-spacing:0.2em;}.cls-3{letter-spacing:0.15em;}.cls-4{letter-spacing:0.16em;}.cls-5,.cls-7{letter-spacing:0.2em;}.cls-6{letter-spacing:0.2em;}.cls-8{letter-spacing:0.15em;}.cls-10{font-size:158px;font-family:AWConquerorDidot-Light, AW Conqueror Didot;}.cls-11{letter-spacing:-0.03em;}.cls-12{letter-spacing:-0.04em;}</style>
  </defs>
  <title>Logo ISDAA - Fundacion Square Color</title>
  <path class="cls-1" d="M 1189.555 1322.166 L 1176.294 1320.909 C 1126.883 1316.108 1103.214 1299.327 994.123 1049.935 L 814.994 639.261 L 812.228 643.786 L 989.321 1049.997 C 1015.214 1108.748 1030.562 1172.299 1033.315 1225.054 C 1036.155 1279.003 1027.394 1317.365 971.234 1320.972 L 946.094 1322.229 L 946.283 1325.824 L 1189.68 1325.824 Z" style="fill: rgb(16, 19, 63);"/>
  <path class="cls-1" d="M 906.84 1221.472 C 865.209 1150.541 823.503 1079.888 808.897 999.442 C 806.384 985.415 801.28 970.834 799.948 956.304 C 798.238 937.6 798.942 918.042 793.211 900.507 C 782.866 868.819 771.654 837.534 758.544 807.229 L 710.641 921.071 C 721.954 945.582 732.99 970.256 744.327 994.566 C 749.808 1006.343 752.46 1018.837 755.64 1031.118 C 764.615 1065.257 774.105 1101.331 796.076 1129.814 C 814.742 1154.011 833.785 1178.571 852.64 1202.843 C 858.799 1210.737 858.924 1218.543 854.349 1227.165 C 846.166 1242.45 849.799 1253.046 866.051 1259.758 C 873.417 1262.8 877.716 1267.866 881.6 1274.452 C 888.978 1287.022 885.823 1301.502 890.122 1314.6 C 892.338 1321.802 898.571 1327.036 906.048 1327.973 C 910.975 1328.439 915.978 1320.595 917.36 1315.014 C 923.984 1287.223 921.772 1246.925 906.84 1221.472 Z" style="fill: rgb(16, 19, 63);"/>
  <path class="cls-1" d="M 535.132 766.39 C 557.456 770.387 579.792 775.352 602.631 776.873 C 615.527 777.715 623.999 780.216 630.812 785.269 L 672.367 676.48 C 653.827 687.189 631.905 690.683 610.663 689.753 C 568.102 687.88 519.144 700.274 475.037 702.926 C 437.165 705.201 396.1 702.273 357.926 702.587 C 328.212 702.826 297.228 708.557 266.922 711.071 C 234.418 713.761 198.707 711.36 171.645 692.368 C 152.451 678.893 132.164 665.494 108.257 662.955 C 94.92 661.535 85.971 673.011 90.974 685.794 C 93.01 690.973 97.635 695.485 101.62 699.281 C 136.4 732.452 191.216 736.638 238.364 742.382 C 293.834 749.145 350.322 754.084 405.628 756.058 C 448.641 757.591 492.395 758.773 535.132 766.39 Z" style="fill: rgb(16, 19, 63);"/>
  <path class="cls-1" d="M 805.101 630.098 C 804.599 614.449 803.153 598.674 803.065 582.887 C 802.962 574.909 803.356 566.933 804.247 559.005 C 806.66 538.592 802.148 519.863 784.877 507.017 C 775.676 500.179 766.903 493.303 760.429 483.838 C 751.731 471.106 745.069 456.273 734.134 445.929 C 719.741 432.303 711.596 416.151 704.96 398.416 C 704.344 396.744 704.004 395.625 705.337 393.916 C 718.962 376.582 708.592 350.262 690.153 341.463 C 685.791 339.376 681.128 336.297 680.26 330.879 C 677.646 314.539 670.092 306.909 653.5 304.647 C 651.589 304.395 650.119 303.968 649.126 302.007 C 623.295 250.711 588.301 205.523 549.109 162.485 C 536.226 148.344 535.673 129.691 530.255 112.822 C 529.375 110.095 529.74 106.965 529.526 104.024 C 527.423 106.751 525.516 109.624 523.819 112.621 C 523.04 114.23 523.581 116.493 523.568 118.453 C 523.568 119.71 522.977 121.797 521.959 120.603 C 518.666 116.757 511.476 113.74 512.796 108.901 C 515.875 97.676 507.58 95.527 501.42 91.303 C 500.55 90.803 499.632 90.391 498.68 90.071 C 499.421 90.729 500.091 91.462 500.679 92.258 C 501.936 94.27 502.941 96.369 504.06 98.43 C 503.406 98.317 502.577 98.43 502.099 98.04 C 498.203 95.087 494.344 92.057 490.523 89.003 C 489.691 88.251 488.914 87.44 488.197 86.577 C 487.984 88.324 486.94 91.039 487.694 91.605 C 491.164 94.521 492.018 99.247 494.696 102.1 C 505.531 113.614 510.659 128.497 518.905 141.544 C 530.745 160.197 540.336 180.396 552.44 198.911 C 574.802 233.113 591.306 271.249 608.815 308.04 C 610.688 311.975 611.417 313.923 606.967 316.5 C 599.048 321.1 593.329 328.202 587.748 335.354 C 581.539 343.373 581.463 354.12 576.184 362.09 C 566.129 377.173 571.647 404.072 589.169 408.773 C 602.128 412.242 608.589 421.757 618.079 428.407 C 634.897 440.197 641.835 455.444 635.94 475.844 C 634.847 479.615 633.426 480.52 629.655 480.231 C 621.598 479.603 613.78 476.862 605.522 478.006 C 565.299 483.574 524.674 492.285 483.974 493.09 C 463.272 493.504 442.281 491.079 421.729 492.285 C 399.104 493.618 376.479 498.57 353.715 499.475 C 328.802 500.418 303.575 497.489 278.926 500.204 C 253.473 503.02 229.289 501.65 205.143 493.794 C 200.97 492.436 193.83 488.514 192.787 491.28 C 190.399 497.803 197.815 499.576 202.365 502.353 C 203.397 503.104 204.361 503.946 205.244 504.867 C 204.102 505.137 202.935 505.284 201.762 505.307 C 198.858 505.031 195.98 504.541 193.089 504.126 C 195.904 506.439 198.406 509.694 201.623 510.876 C 205.797 512.409 210.774 513.478 214.998 512.623 C 224.048 510.8 231.338 513.792 238.465 518.744 C 239.722 519.586 240.74 520.642 241.884 521.61 C 240.74 522.377 239.546 523.068 238.49 523.935 C 236.24 525.783 230.383 526.839 231.841 528.586 C 234.355 531.641 238.855 533.048 244.134 531.741 C 261.178 527.518 277.443 518.845 295.669 521.107 C 316.799 523.722 339.197 526.751 359.032 528.988 C 393.888 532.935 433.52 526.474 469.519 526.902 C 502.275 527.266 537.646 530.069 571.332 532.357 C 585.687 533.337 602.756 533.086 613.227 543.355 C 643.293 572.743 673.95 603.941 692.843 641.876 C 695.683 647.582 696.387 655.828 692.843 659.85 L 692.843 659.85 L 641.307 796.18 L 641.408 796.318 L 507.24 1124.334 C 436.511 1296.99 424.52 1314.977 375.36 1320.972 L 365.77 1322.229 L 365.77 1325.824 L 652.356 1325.824 L 652.356 1322.229 L 621.183 1320.972 C 544.509 1318.571 564.834 1269.437 618.783 1130.329 L 704.645 908.049 L 704.733 907.773 L 753.34 793.163 C 760.781 775.138 765.671 755.253 776.531 739.566 C 795.197 712.605 803.543 680.489 804.988 648.249 C 805.227 642.19 805.29 636.131 805.101 630.098 Z" style="fill: rgb(16, 19, 63);"/>
  <polygon class="cls-1" points="958.237 1015.104 956.464 1009.787 817.382 1009.787 818.765 1015.104 958.237 1015.104" style="fill: rgb(16, 19, 63);"/>
  <polygon class="cls-1" points="595.843 1009.787 595.843 1015.104 743.724 1015.104 742.04 1009.787 595.843 1009.787" style="fill: rgb(16, 19, 63);"/>
</svg>