<?xml version="1.0" encoding="utf-8"?>
<svg id="Layer_1" data-name="Layer 1" viewBox="0 0 529.39 119.86" xmlns="http://www.w3.org/2000/svg">
  <path d="M54.62 59.56a2.22 2.22 0 0 1-.76-1.78 25.94 25.94 0 0 1 1.59-12.33c.27-.75.62-1.46 1-2.4-.54.3-1 .52-1.36.76a145.74 145.74 0 0 0-12.58 9c-3.22 2.42-6.46 4.84-9.75 7.16a33.6 33.6 0 0 1-10.53 5 14 14 0 0 1-6.88-.18 5.27 5.27 0 0 1-2.91-2.38 11.35 11.35 0 0 1-1.8-6c-.63-9 2.75-16.77 8.26-23.59 3-3.66 5.92-7.41 9.82-10.22a31.39 31.39 0 0 1 3.55-2.43c.19-.1.44-.4.61-.14s.42.45.16.83a5.13 5.13 0 0 1-.49.81C29.91 24.45 28.1 27.85 26 31a34.27 34.27 0 0 0-5.17 14.28 6.44 6.44 0 0 0 0 1.91c.38 2.48 1.7 3.47 4.24 3.27a9.29 9.29 0 0 0 3.51-1.1c8.17-4.07 16-8.71 24-13.22a88.59 88.59 0 0 1 23.85-9.64c1.74-.4 3.52-.45 5.26-.83a27.16 27.16 0 0 1 11.14-.24 22.21 22.21 0 0 1 12.18 6.17c.91 1 1.86 1.89 2 3.33a.94.94 0 0 0 .2.43c2.1 2.89 2.87 6.25 3.57 9.67a30.47 30.47 0 0 1 .42 8.47 12.71 12.71 0 0 1-1.2 3.67.77.77 0 0 1-.81.58c-.45-.09-.39-.53-.43-.88A29.47 29.47 0 0 0 108 52c-2.39-8.91-8.3-14.21-17.09-16.45-5.44-1.39-10.93-.92-16.38.08a26.27 26.27 0 0 0-6 1.62 3.7 3.7 0 0 0-1.47.88 12 12 0 0 1 3 2A13.68 13.68 0 0 1 74 47.77a61 61 0 0 1 .79 11.46A95 95 0 0 1 73 74.07c-.48 2.5-.83 5-1.37 7.53a56 56 0 0 1-2.1 8.54 135 135 0 0 1-7.22 16c-.45.84-1 1.65-1.49 2.45a2.42 2.42 0 0 1-.94.91.89.89 0 0 1-1 0c-.35-.26-.18-.57-.1-.87.7-2.86 1.4-5.73 2.12-8.58a140.25 140.25 0 0 0 4.29-27.38 132.77 132.77 0 0 0 .19-17.84 24.22 24.22 0 0 0-1-5.53 7.1 7.1 0 0 0-.67-1.52 2.47 2.47 0 0 0-4.21-.47 14.55 14.55 0 0 0-3.69 7.12c-.34 1.35-.51 2.74-.76 4.11-.05.35-.05.74-.43 1.02zm47.49-29.3a6.51 6.51 0 0 0 1.81 1.37c-.55-.53-1-1.24-1.82-1.34-1-1.32-2.54-1.72-4-2.33zm-80.94 2.12c1.52-1.11 2.22-2.87 3.43-4.22a14.89 14.89 0 0 0-3.41 4.24l-.18.38h.16c.01 0 .14-.28 0-.4zm5.35 19c-.24 0-.48 0-.71.09-2.83.61-4.72-.62-5.4-3.43-.22-.89 0-1.81-.28-2.86a10.32 10.32 0 0 0-.3 2.77 4.22 4.22 0 0 0 6.67 3.41c1.89-.14 3.22-1.43 4.8-2.21l-.12-.24zM90.63 26l3.1.54a8.33 8.33 0 0 0-3.1-.54zM107.4 81.74a11.59 11.59 0 0 1-1.26 3.87 46.93 46.93 0 0 1-13.48 16.72 38.19 38.19 0 0 1-16.72 7.76c-.66.13-1.34.22-2 .31-.27 0-.59.12-.72-.23s.12-.45.29-.6a8.47 8.47 0 0 1 .76-.58c.57-.42 1.34-.49 1.48-1.51.09-.63 1-1 1.65-1.27 3.54-1.4 6-4.16 8.6-6.73 3.47-3.37 5.78-7.48 8-11.67a33.86 33.86 0 0 1 4.24-6.49 8.89 8.89 0 0 1 5.78-3.3c2.19-.23 3.38.87 3.38 3.72zM53.36 110.88a8.9 8.9 0 0 1-3.34-.07c-8-1.17-14.65-4.93-20.63-10.12a40.24 40.24 0 0 1-8.47-9.38 16.83 16.83 0 0 1-2.21-5.13C18.05 83 20 81.61 22.9 82a9.53 9.53 0 0 1 5.34 3 37.63 37.63 0 0 1 5.2 6.84 68.2 68.2 0 0 0 9.18 11.63 33.73 33.73 0 0 0 9.46 6.53 2.51 2.51 0 0 1 1.28.88z" class="cls-1" style="fill: rgb(164, 166, 190);"/>
  <path d="M76 15.46a40.5 40.5 0 0 0-8.63-.29c-2.47.1-3.46 1.14-3.42 3.58a6.36 6.36 0 0 1-6.88 6.75 6.85 6.85 0 0 1-5.83-5.25 8.09 8.09 0 0 1 2.89-8.57 9.73 9.73 0 0 1 5.41-2 25.09 25.09 0 0 1 12.86 1.95 13.87 13.87 0 0 1 4.6 3.31 22.07 22.07 0 0 0-3.86-1.38c.8 1.06 1.99 1.14 2.86 1.9zm-3.6-1.89c.06 0 .13.12.18.12s.45.18.38-.12-.34-.2-.54 0zM17.79 80.39a4.88 4.88 0 0 1-5-6.23 5 5 0 0 1 3.91-3.4 7.11 7.11 0 0 1 4.71.77c.24.12.63.23.53.55-.32 1 .27 1.94.42 2.91.49 3.17-1.36 5.39-4.57 5.4zm-.58-4.24A1.12 1.12 0 0 0 18.29 75a1 1 0 0 0-1.12-1 1 1 0 0 0-1 1.1.94.94 0 0 0 1.04 1.05zM108 74.68c-2 .54-3.3-.85-4.33-2.27a4.43 4.43 0 0 1-.32-3.91 5 5 0 0 1 4.57-3.5 4.48 4.48 0 0 1 4.35 3.11 5.25 5.25 0 0 1-.19 3.16c-.21.75-.61 1.5-.13 2.3.27.45-.16.53-.42.65a7.56 7.56 0 0 1-3.53.46zm-.1-6c-.15-.42-.34-1-.95-.94a1.05 1.05 0 0 0-1 1 .87.87 0 0 0 .94 1c.51-.08.87-.37.96-1.07zM129.31 12.45H134v22.68h-4.66zM137.67 18.37h3.88v2.48a8.51 8.51 0 0 1 .54-1.09 4.08 4.08 0 0 1 .75-.9 3.36 3.36 0 0 1 1-.61 5 5 0 0 1 3.64.27 2.94 2.94 0 0 1 1.12 1.28 4.78 4.78 0 0 1 .41 1.73V35.13h-4.36V23.74v-.83a1.58 1.58 0 0 0-.16-.68 1 1 0 0 0-.39-.46 1.32 1.32 0 0 0-.76-.17 1.46 1.46 0 0 0-.77.18 1.2 1.2 0 0 0-.42.48 1.94 1.94 0 0 0-.17.68V35.13h-4.36zM153.41 13.23l3.78-.27v5.41h2.62v3.5h-2.62v7.07c0 .45 0 .85.05 1.17a2.22 2.22 0 0 0 .22.82 1 1 0 0 0 .53.48 2.44 2.44 0 0 0 .93.15 5.11 5.11 0 0 0 1.09-.1v3.46a11.46 11.46 0 0 1-1.68.36 9.3 9.3 0 0 1-1.11.09 6.22 6.22 0 0 1-2-.34 3 3 0 0 1-1.47-1 4.94 4.94 0 0 1-.49-.9 5.69 5.69 0 0 1-.29-1 8.72 8.72 0 0 1-.12-1.31v-8.95H151v-3.5h2zM166 27.48a11.86 11.86 0 0 0 .27 3.41 1.5 1.5 0 0 0 1.57 1.18 1.29 1.29 0 0 0 1.29-.75 7.88 7.88 0 0 0 .51-2l3.57.31a9.7 9.7 0 0 1-.39 2.1 6.1 6.1 0 0 1-1 1.88 4.74 4.74 0 0 1-1.68 1.39 5.38 5.38 0 0 1-2.48.52 6.06 6.06 0 0 1-2.82-.61 4.88 4.88 0 0 1-1.84-1.79 7.88 7.88 0 0 1-1-2.72 18.22 18.22 0 0 1-.32-3.53 19.45 19.45 0 0 1 .25-3.11 8.92 8.92 0 0 1 .94-2.86 5.72 5.72 0 0 1 1.83-2.07 5.11 5.11 0 0 1 3-.8 5.25 5.25 0 0 1 1.85.29 4.65 4.65 0 0 1 1.39.76 5 5 0 0 1 1 1.09 8.57 8.57 0 0 1 .68 1.26 7.22 7.22 0 0 1 .46 1.49c.1.55.17 1.1.22 1.65s.07 1.09.08 1.6 0 .95 0 1.31zm3.33-2.75a7.75 7.75 0 0 0-.41-2.81 1.28 1.28 0 0 0-2.1-.46 2.53 2.53 0 0 0-.53.92 4.83 4.83 0 0 0-.24 1.19c0 .43-.06.81-.08 1.16zM175.65 18.37h3.88v4q.14-.54.39-1.29a7.71 7.71 0 0 1 .66-1.43 4.7 4.7 0 0 1 1-1.17A2.19 2.19 0 0 1 183 18a5.73 5.73 0 0 1 1.15.1v4.59a6.56 6.56 0 0 0-1.68.07 2.56 2.56 0 0 0-1.32.64 3.24 3.24 0 0 0-.87 1.45 7.88 7.88 0 0 0-.31 2.46v7.79h-4.35zM186.19 18.37h3.88v2.48a7.37 7.37 0 0 1 .54-1.09 3.6 3.6 0 0 1 .75-.9 3.25 3.25 0 0 1 1-.61 5 5 0 0 1 3.63.27 2.88 2.88 0 0 1 1.12 1.28 4.58 4.58 0 0 1 .41 1.73c0 .63.05 1.26.05 1.87v11.73h-4.35V23.74v-.83a1.94 1.94 0 0 0-.16-.68 1 1 0 0 0-.39-.46 1.32 1.32 0 0 0-.76-.17 1.44 1.44 0 0 0-.77.18 1.2 1.2 0 0 0-.42.48 1.94 1.94 0 0 0-.17.68 7 7 0 0 0 0 .8v11.39h-4.35zM207.41 35.13a2.58 2.58 0 0 1-.22-.63 6.59 6.59 0 0 1-.06-1.45 5.49 5.49 0 0 1-1.49 1.72 3.33 3.33 0 0 1-2.08.7 7.45 7.45 0 0 1-.83-.1 2.93 2.93 0 0 1-1.21-.56 3.92 3.92 0 0 1-1.07-1.4 6.09 6.09 0 0 1-.46-2.6v-.83a4.66 4.66 0 0 1 .22-1.14 6.32 6.32 0 0 1 .56-1.28 4.83 4.83 0 0 1 1.09-1.27 5.21 5.21 0 0 1 2.24-1.17 15.34 15.34 0 0 1 2.72-.39 16.54 16.54 0 0 0-.2-2.74.9.9 0 0 0-.95-.8 1 1 0 0 0-.73.27 1.89 1.89 0 0 0-.41.65 3 3 0 0 0-.21.81c0 .3-.06.55-.08.75l-3.81-.44a6.46 6.46 0 0 1 1.58-3.81 5 5 0 0 1 3.87-1.42 8.42 8.42 0 0 1 .91.06 7.91 7.91 0 0 1 1.16.26 4.87 4.87 0 0 1 1.21.56 4.32 4.32 0 0 1 1.07 1 4 4 0 0 1 .69 2.09c.08.87.12 1.78.12 2.74V33.92a3.44 3.44 0 0 0 .07.63c0 .17.07.35.12.56zm-.55-8.06a2.75 2.75 0 0 0-2 1.12 4.29 4.29 0 0 0-.49 2.18 4.24 4.24 0 0 0 .22 1.48.84.84 0 0 0 .86.59c.73 0 1.15-.45 1.28-1.36a30.35 30.35 0 0 0 .13-4.01zM215.36 13.23l3.78-.27v5.41h2.61v3.5h-2.61v7.07a10 10 0 0 0 .05 1.17 2 2 0 0 0 .22.82 1 1 0 0 0 .53.48 2.38 2.38 0 0 0 .93.15 5.18 5.18 0 0 0 1.09-.1v3.46a11.46 11.46 0 0 1-1.68.36 9.3 9.3 0 0 1-1.11.09 6.33 6.33 0 0 1-2-.34 3 3 0 0 1-1.46-1 4.4 4.4 0 0 1-.49-.9 5 5 0 0 1-.29-1 8.72 8.72 0 0 1-.12-1.31v-8.95H213v-3.5h2zM228.52 12.25v4.62h-4.35v-4.62zm-4.35 6.12h4.35v16.76h-4.35zM237.16 18a5 5 0 0 1 3 .83A5.82 5.82 0 0 1 242 21a9.37 9.37 0 0 1 .89 2.8 19 19 0 0 1 .24 2.93 19.61 19.61 0 0 1-.28 3.31 8.35 8.35 0 0 1-1 2.79 5.41 5.41 0 0 1-1.83 1.94 5.46 5.46 0 0 1-2.93.73 6.13 6.13 0 0 1-1.8-.24 4.75 4.75 0 0 1-1.36-.64 4.52 4.52 0 0 1-1-1 7.57 7.57 0 0 1-.71-1.15 9 9 0 0 1-.63-1.81 16.42 16.42 0 0 1-.32-1.78c-.07-.55-.11-1-.12-1.45s0-.67 0-.81a20 20 0 0 1 .19-2.6 9.36 9.36 0 0 1 .81-2.81A6.36 6.36 0 0 1 234 19a5 5 0 0 1 3.16-1zm-.07 3.06c-.66 0-1.06.38-1.19 1.15a25 25 0 0 0-.21 3.91v2.6c0 .71.05 1.34.1 1.86a2.39 2.39 0 0 0 .41 1.42 1.13 1.13 0 0 0 .88.38 1.66 1.66 0 0 0 .61-.14 1 1 0 0 0 .51-.68 4 4 0 0 0 .21-1c0-.44.08-.91.1-1.39s0-1 0-1.42v-1.16-1.75c0-.56-.06-1.18-.1-1.88a5.32 5.32 0 0 0-.15-1 1.53 1.53 0 0 0-.31-.56.81.81 0 0 0-.43-.24 1.88 1.88 0 0 0-.43-.07zM245.79 18.37h3.88v2.48a8.51 8.51 0 0 1 .54-1.09 3.82 3.82 0 0 1 .75-.9 3.25 3.25 0 0 1 1-.61 5 5 0 0 1 3.63.27 3 3 0 0 1 1.13 1.28 4.77 4.77 0 0 1 .4 1.73c0 .63.06 1.26.06 1.87v11.73h-4.36V23.74v-.83a1.74 1.74 0 0 0-.16-.68 1 1 0 0 0-.39-.46 1.32 1.32 0 0 0-.76-.17 1.44 1.44 0 0 0-.77.18 1.2 1.2 0 0 0-.42.48 1.94 1.94 0 0 0-.17.68 7 7 0 0 0 0 .8v11.39h-4.35zM267 35.13a2.58 2.58 0 0 1-.22-.63 6.18 6.18 0 0 1-.05-1.45 5.65 5.65 0 0 1-1.5 1.72 3.3 3.3 0 0 1-2.07.7 7.29 7.29 0 0 1-.84-.1 2.89 2.89 0 0 1-1.2-.56 3.82 3.82 0 0 1-1.08-1.4 6.1 6.1 0 0 1-.45-2.6v-.83a5.18 5.18 0 0 1 .22-1.14 6.32 6.32 0 0 1 .56-1.28 4.83 4.83 0 0 1 1.09-1.27 5.21 5.21 0 0 1 2.24-1.17 15.47 15.47 0 0 1 2.72-.39 16.54 16.54 0 0 0-.2-2.74.89.89 0 0 0-.95-.8 1 1 0 0 0-.73.27 2.06 2.06 0 0 0-.41.65 3.44 3.44 0 0 0-.21.81c0 .3-.06.55-.08.75l-3.81-.44a6.46 6.46 0 0 1 1.58-3.81 5 5 0 0 1 3.87-1.42 8.74 8.74 0 0 1 .92.06 8.09 8.09 0 0 1 1.15.26 4.87 4.87 0 0 1 1.21.56 4.32 4.32 0 0 1 1.07 1 4.14 4.14 0 0 1 .7 2.09c.08.87.12 1.78.12 2.74V33.92a4.63 4.63 0 0 0 .07.63c0 .17.07.35.12.56zm-.55-8.06a2.75 2.75 0 0 0-2 1.12 4.29 4.29 0 0 0-.49 2.18 4.24 4.24 0 0 0 .22 1.48.85.85 0 0 0 .87.59c.72 0 1.15-.45 1.27-1.36a28.69 28.69 0 0 0 .14-4.01zM273.81 12.45h4.35v22.68h-4.35zM294.68 35.13H290V16.74h-3.71v-4.29h12.17v4.29h-3.81zM300.46 12.45h4.36v8.09a8.09 8.09 0 0 1 .35-.85 3.08 3.08 0 0 1 .61-.81 3 3 0 0 1 1-.61 4.72 4.72 0 0 1 3.54.23 2.88 2.88 0 0 1 1.1 1.23 4.57 4.57 0 0 1 .43 1.61c0 .58.07 1.14.07 1.69v12.1h-4.35V23.5v-.71a1.56 1.56 0 0 0-.14-.6 1 1 0 0 0-.39-.41 1.56 1.56 0 0 0-.75-.15c-.65 0-1.06.19-1.2.56a4.09 4.09 0 0 0-.22 1.48v11.46h-4.36zM318.79 27.48a11.51 11.51 0 0 0 .27 3.41 1.49 1.49 0 0 0 1.56 1.18 1.29 1.29 0 0 0 1.3-.75 7.88 7.88 0 0 0 .51-2l3.57.31a9.7 9.7 0 0 1-.39 2.1 6.1 6.1 0 0 1-1 1.88A4.74 4.74 0 0 1 323 35a5.38 5.38 0 0 1-2.48.52 6.06 6.06 0 0 1-2.82-.61 4.88 4.88 0 0 1-1.87-1.74 7.69 7.69 0 0 1-1-2.72 17.47 17.47 0 0 1-.32-3.53 19.45 19.45 0 0 1 .25-3.11 8.92 8.92 0 0 1 .94-2.86 5.72 5.72 0 0 1 1.83-2.07 5.1 5.1 0 0 1 3-.8 5.27 5.27 0 0 1 1.86.29 4.77 4.77 0 0 1 1.39.76 4.69 4.69 0 0 1 1 1.09 7 7 0 0 1 .68 1.26 6.18 6.18 0 0 1 .46 1.49 13.32 13.32 0 0 1 .22 1.65c.05.56.08 1.09.09 1.6s0 .95 0 1.31zm3.33-2.75a7.75 7.75 0 0 0-.41-2.81 1.21 1.21 0 0 0-1.15-.83 1.24 1.24 0 0 0-1 .37 2.66 2.66 0 0 0-.52.92 4.41 4.41 0 0 0-.24 1.19c0 .43-.06.81-.09 1.16zM335.11 35.13a2.58 2.58 0 0 1-.22-.63 6.18 6.18 0 0 1-.05-1.45 5.65 5.65 0 0 1-1.5 1.72 3.3 3.3 0 0 1-2.07.7 7.29 7.29 0 0 1-.84-.1 3 3 0 0 1-1.2-.56 3.7 3.7 0 0 1-1.07-1.4 5.94 5.94 0 0 1-.46-2.6v-.83a5.18 5.18 0 0 1 .22-1.14 6.93 6.93 0 0 1 .56-1.28 5 5 0 0 1 1.09-1.27 5.19 5.19 0 0 1 2.25-1.17 15.2 15.2 0 0 1 2.72-.39 17.4 17.4 0 0 0-.21-2.74.89.89 0 0 0-.95-.8 1 1 0 0 0-.73.27 2.06 2.06 0 0 0-.41.65 3 3 0 0 0-.2.81q-.06.45-.09.75l-3.81-.44a6.46 6.46 0 0 1 1.58-3.81 5 5 0 0 1 3.86-1.42 8.74 8.74 0 0 1 .92.06 8.09 8.09 0 0 1 1.15.26 4.87 4.87 0 0 1 1.21.56 4.15 4.15 0 0 1 1.07 1 4 4 0 0 1 .7 2.09c.08.87.12 1.78.12 2.74V33.92c0 .25 0 .46.07.63s.08.35.12.56zm-.54-8.06a2.77 2.77 0 0 0-2 1.12 4.29 4.29 0 0 0-.49 2.18 4.24 4.24 0 0 0 .22 1.48.86.86 0 0 0 .87.59c.72 0 1.15-.45 1.27-1.36a28.37 28.37 0 0 0 .13-4.01zM343.07 13.23l3.77-.27v5.41h2.62v3.5h-2.62v7.07c0 .45 0 .85.05 1.17a2.22 2.22 0 0 0 .22.82 1 1 0 0 0 .53.48 2.44 2.44 0 0 0 .93.15 5.11 5.11 0 0 0 1.09-.1v3.46a11.46 11.46 0 0 1-1.68.36 9.15 9.15 0 0 1-1.11.09 6.22 6.22 0 0 1-2-.34 3 3 0 0 1-1.47-1 4.94 4.94 0 0 1-.49-.9 5.69 5.69 0 0 1-.29-1 12.47 12.47 0 0 1-.12-1.31v-8.95h-1.8v-3.5h2zM351.87 18.37h3.88v4q.13-.54.39-1.29a7.71 7.71 0 0 1 .66-1.43 4.7 4.7 0 0 1 1-1.17 2.19 2.19 0 0 1 1.45-.49 5.66 5.66 0 0 1 1.15.1v4.59a6.56 6.56 0 0 0-1.68.07 2.56 2.56 0 0 0-1.32.64 3.24 3.24 0 0 0-.87 1.45 7.88 7.88 0 0 0-.31 2.46v7.79h-4.35zM366.15 27.48a12.23 12.23 0 0 0 .27 3.41 1.5 1.5 0 0 0 1.58 1.18 1.29 1.29 0 0 0 1.29-.75 7.12 7.12 0 0 0 .51-2l3.57.31a9.7 9.7 0 0 1-.39 2.1 6.1 6.1 0 0 1-1 1.88 4.74 4.74 0 0 1-1.65 1.39 5.38 5.38 0 0 1-2.48.52 6.06 6.06 0 0 1-2.82-.61 4.88 4.88 0 0 1-1.87-1.74 7.88 7.88 0 0 1-1-2.72 18.22 18.22 0 0 1-.32-3.53 19.45 19.45 0 0 1 .25-3.11 8.92 8.92 0 0 1 .91-2.91 5.72 5.72 0 0 1 1.83-2.07 5.13 5.13 0 0 1 3-.8 5.25 5.25 0 0 1 1.85.29 4.65 4.65 0 0 1 1.39.76 5 5 0 0 1 1 1.09 7.72 7.72 0 0 1 .68 1.26 7.22 7.22 0 0 1 .46 1.49c.1.55.17 1.1.22 1.65s.07 1.09.08 1.6 0 .95 0 1.31zm3.33-2.75a7.75 7.75 0 0 0-.41-2.81 1.28 1.28 0 0 0-2.1-.46 2.53 2.53 0 0 0-.53.92 5.34 5.34 0 0 0-.24 1.19c0 .43-.06.81-.08 1.16zM384.17 12.45h4.66v22.68h-4.66zM392.53 18.37h3.88v2.48a8.51 8.51 0 0 1 .54-1.09 4.08 4.08 0 0 1 .75-.9 3.36 3.36 0 0 1 1-.61 4.11 4.11 0 0 1 1.44-.22 4.05 4.05 0 0 1 2.2.49 2.94 2.94 0 0 1 1.12 1.28 4.78 4.78 0 0 1 .41 1.73V35.13h-4.35V23.74v-.83a1.75 1.75 0 0 0-.15-.68 1.06 1.06 0 0 0-.4-.46 1.32 1.32 0 0 0-.76-.17 1.4 1.4 0 0 0-.76.18 1.16 1.16 0 0 0-.43.48 1.94 1.94 0 0 0-.17.68V35.13h-4.36zM409.67 30a3.92 3.92 0 0 0 .14.68 2.16 2.16 0 0 0 .32.71 1.66 1.66 0 0 0 .65.57 2.47 2.47 0 0 0 1.1.22 2.22 2.22 0 0 0 1.17-.31 1.07 1.07 0 0 0 .5-1 1.76 1.76 0 0 0-.14-.71 1.48 1.48 0 0 0-.46-.56 4.72 4.72 0 0 0-.88-.53l-1.38-.68a14.11 14.11 0 0 1-1.7-.92 5.32 5.32 0 0 1-1.26-1.07 4.19 4.19 0 0 1-.78-1.32 5.07 5.07 0 0 1-.27-1.75 5.51 5.51 0 0 1 .39-2.09 4.88 4.88 0 0 1 1.09-1.67 5 5 0 0 1 1.7-1.1 5.7 5.7 0 0 1 2.22-.41 4.82 4.82 0 0 1 2.25.46 4.3 4.3 0 0 1 1.43 1.14 4.66 4.66 0 0 1 .79 1.42 11.75 11.75 0 0 1 .4 1.33l-3.1.78c0-.13-.06-.31-.1-.53a2 2 0 0 0-.27-.62 1.9 1.9 0 0 0-.56-.53 1.74 1.74 0 0 0-.94-.22q-.89 0-1.14.42a1.54 1.54 0 0 0-.25.77 1.19 1.19 0 0 0 .19.69 1.9 1.9 0 0 0 .61.58 9.34 9.34 0 0 0 1.12.63c.46.23 1 .49 1.72.78a6.52 6.52 0 0 1 1.87 1.23 5.31 5.31 0 0 1 1 1.36 4.42 4.42 0 0 1 .42 1.31 7.54 7.54 0 0 1 .09 1 5.85 5.85 0 0 1-.48 2.47 4.53 4.53 0 0 1-1.28 1.68 5.15 5.15 0 0 1-1.81.95 7.14 7.14 0 0 1-2.11.31 6.08 6.08 0 0 1-2.93-.61 5.34 5.34 0 0 1-1.68-1.43 4.35 4.35 0 0 1-.78-1.65c-.13-.56-.21-1-.26-1.27zM421.13 13.23l3.77-.23v5.41h2.62v3.5h-2.62v7.07c0 .45 0 .85.05 1.17a2.43 2.43 0 0 0 .22.82 1.08 1.08 0 0 0 .53.48 2.46 2.46 0 0 0 .94.15 5.08 5.08 0 0 0 1.08-.1v3.46a11.19 11.19 0 0 1-1.68.36 9 9 0 0 1-1.1.09 6.33 6.33 0 0 1-2-.34 2.92 2.92 0 0 1-1.46-1 4.45 4.45 0 0 1-.5-.9 5 5 0 0 1-.28-1 8.72 8.72 0 0 1-.12-1.31v-8.99h-1.8v-3.5h2zM434.28 12.25v4.62h-4.35v-4.62zm-4.35 6.12h4.35v16.76h-4.35zM438.71 13.23l3.77-.27v5.41h2.62v3.5h-2.62v8.24a2.22 2.22 0 0 0 .22.82 1 1 0 0 0 .53.48 2.44 2.44 0 0 0 .93.15 5.11 5.11 0 0 0 1.09-.1v3.46a11.46 11.46 0 0 1-1.68.36 9.15 9.15 0 0 1-1.11.09 6.22 6.22 0 0 1-2-.34 2.92 2.92 0 0 1-1.46-1 4.45 4.45 0 0 1-.5-.9 5.69 5.69 0 0 1-.29-1 12.47 12.47 0 0 1-.12-1.31v-8.95h-1.8v-3.5h2zM458.83 35.13H455v-2.38c-.18.36-.38.71-.58 1a3.6 3.6 0 0 1-.75.86 3.42 3.42 0 0 1-1 .6 4.17 4.17 0 0 1-1.41.22A4.13 4.13 0 0 1 449 35a2.94 2.94 0 0 1-1.12-1.3 4.8 4.8 0 0 1-.41-1.78V18.37h4.35v12.25a1.54 1.54 0 0 0 .15.63 1.3 1.3 0 0 0 .38.46 1.08 1.08 0 0 0 .71.19 1.17 1.17 0 0 0 1.19-.6 6 6 0 0 0 .27-2.19V18.37h4.35zM463.25 13.23L467 13v5.41h2.62v3.5H467v7.07a10 10 0 0 0 .05 1.17 2.22 2.22 0 0 0 .22.82 1 1 0 0 0 .53.48 2.41 2.41 0 0 0 .93.15 5.18 5.18 0 0 0 1.09-.1v3.46a11.46 11.46 0 0 1-1.68.36 9.3 9.3 0 0 1-1.11.09 6.22 6.22 0 0 1-2-.34 3 3 0 0 1-1.47-1 4.4 4.4 0 0 1-.49-.9 5.69 5.69 0 0 1-.29-1 8.72 8.72 0 0 1-.12-1.31v-8.99h-1.81v-3.5h2zM475.8 27.48a11.51 11.51 0 0 0 .27 3.41 1.5 1.5 0 0 0 1.57 1.18 1.29 1.29 0 0 0 1.29-.75 7.88 7.88 0 0 0 .51-2l3.57.31a9.7 9.7 0 0 1-.39 2.1 6.1 6.1 0 0 1-1 1.88A4.74 4.74 0 0 1 480 35a5.38 5.38 0 0 1-2.48.52 6.06 6.06 0 0 1-2.82-.61 4.88 4.88 0 0 1-1.87-1.74 7.88 7.88 0 0 1-1-2.72 17.47 17.47 0 0 1-.32-3.53 19.45 19.45 0 0 1 .25-3.11 8.92 8.92 0 0 1 .94-2.86 5.72 5.72 0 0 1 1.83-2.07 5.11 5.11 0 0 1 3-.8 5.25 5.25 0 0 1 1.85.29 4.65 4.65 0 0 1 1.39.76 5 5 0 0 1 1 1.09 8.57 8.57 0 0 1 .68 1.26 6.65 6.65 0 0 1 .45 1.49 13.32 13.32 0 0 1 .22 1.65c.05.56.08 1.09.09 1.6s0 .95 0 1.31zm3.33-2.75a7.75 7.75 0 0 0-.41-2.81 1.21 1.21 0 0 0-1.15-.83 1.24 1.24 0 0 0-1 .37 2.66 2.66 0 0 0-.52.92 4.41 4.41 0 0 0-.24 1.19c0 .43-.06.81-.08 1.16zM493.82 12.45h4.66v22.68h-4.66zM509.25 35.13h-4.65V16.74h-3.71v-4.29h12.17v4.29h-3.81zM515.48 12.45h4.65v22.68h-4.65zM133.09 52.56a4.12 4.12 0 0 1 2.3.6 4.2 4.2 0 0 1 1.48 1.66 8.26 8.26 0 0 1 .77 2.53 22.7 22.7 0 0 1 .22 3.21 21.44 21.44 0 0 1-.22 3.13 7.73 7.73 0 0 1-.77 2.46 4.24 4.24 0 0 1-1.49 1.62 4.33 4.33 0 0 1-2.35.59 4.56 4.56 0 0 1-1.53-.23 3.87 3.87 0 0 1-1-.53 3 3 0 0 1-.62-.59 4.72 4.72 0 0 1-.29-.4 8 8 0 0 1-1-2.84 21.15 21.15 0 0 1-.28-3.48 19.39 19.39 0 0 1 .25-3.19 7.37 7.37 0 0 1 .81-2.44 4 4 0 0 1 3.77-2.1zM133 55.3a1.05 1.05 0 0 0-.65.21 1.66 1.66 0 0 0-.46.75 6.39 6.39 0 0 0-.26 1.74q-.06 1.16-.06 2.61v2a9 9 0 0 0 .25 1.86 2 2 0 0 0 .36.79 1 1 0 0 0 .85.33 1 1 0 0 0 .89-.38 2.87 2.87 0 0 0 .36-1 9.69 9.69 0 0 0 .1-1q0-.65.06-1.26v-2.54-1.13c0-.39-.06-.75-.1-1.11a3.7 3.7 0 0 0-.17-.89 1.51 1.51 0 0 0-.46-.78 1.17 1.17 0 0 0-.71-.2zM140.39 59.16h-1.22v-2.37h1.22V55.3a4.34 4.34 0 0 1 .35-1.5 2.74 2.74 0 0 1 .94-1.15 3.15 3.15 0 0 1 1.86-.46 4.91 4.91 0 0 1 .75.05l.52.09v2.41h-.62c-.43 0-.69.13-.77.4a3.69 3.69 0 0 0-.13 1.12v.57h1.38v2.37h-1.38v9h-2.94zM146.46 59.16h-1.22v-2.37h1.22V55.3a4.34 4.34 0 0 1 .35-1.5 2.74 2.74 0 0 1 .94-1.15 3.15 3.15 0 0 1 1.86-.46 4.91 4.91 0 0 1 .75.05l.52.09v2.41h-.62c-.43 0-.69.13-.77.4a3.69 3.69 0 0 0-.13 1.12v.57h1.38v2.37h-1.34v9h-2.94zM155.08 52.65v3.13h-2.94v-3.13zm-2.94 4.14h2.94v11.34h-2.94zM162.26 61.05c0-.33 0-.63-.07-.91a3.54 3.54 0 0 0-.15-.75 1.13 1.13 0 0 0-.31-.51.86.86 0 0 0-.58-.18.78.78 0 0 0-.72.4 2.44 2.44 0 0 0-.29 1.09c0 .4 0 .81-.07 1.23s0 .76 0 1v.73a8.19 8.19 0 0 0 0 .85q0 .44.09.84a2.34 2.34 0 0 0 .17.67.82.82 0 0 0 .34.43 1.19 1.19 0 0 0 .46.1 1.11 1.11 0 0 0 .46-.09.78.78 0 0 0 .36-.36 2.75 2.75 0 0 0 .25-.74 10.44 10.44 0 0 0 .18-1.2l2.48.2c0 .39-.08.83-.14 1.34a3.73 3.73 0 0 1-.48 1.43 3.66 3.66 0 0 1-.38.55 3.41 3.41 0 0 1-.62.55 3.21 3.21 0 0 1-.91.44 3.86 3.86 0 0 1-1.24.18 4.19 4.19 0 0 1-1.89-.4 3.37 3.37 0 0 1-1.2-1.14 5.37 5.37 0 0 1-.73-1.84 12.12 12.12 0 0 1-.23-2.44q0-.59.06-1.23a8.33 8.33 0 0 1 .22-1.31 5.93 5.93 0 0 1 .46-1.28 4.29 4.29 0 0 1 .76-1.11 2.85 2.85 0 0 1 1.22-.8 4.62 4.62 0 0 1 1.44-.23 4.17 4.17 0 0 1 1.43.24 3 3 0 0 1 1.17.76 3.74 3.74 0 0 1 .81 1.33 6.59 6.59 0 0 1 .34 2zM169.55 52.65v3.13h-2.94v-3.13zm-2.94 4.14h2.94v11.34h-2.94zM176.36 68.13a2.16 2.16 0 0 1-.15-.43 4.64 4.64 0 0 1 0-1 3.75 3.75 0 0 1-1 1.16 2.27 2.27 0 0 1-1.4.47 3.49 3.49 0 0 1-.57-.07 1.92 1.92 0 0 1-.81-.38 2.58 2.58 0 0 1-.73-.94 4.17 4.17 0 0 1-.31-1.76v-.57a3 3 0 0 1 .15-.77 4.2 4.2 0 0 1 .38-.86 3 3 0 0 1 .73-.86 3.53 3.53 0 0 1 1.52-.79 10.68 10.68 0 0 1 1.84-.27 11.21 11.21 0 0 0-.14-1.85.6.6 0 0 0-.64-.54.67.67 0 0 0-.5.18 1.62 1.62 0 0 0-.27.44 1.93 1.93 0 0 0-.14.55q0 .3-.06.51l-2.57-.3a4.35 4.35 0 0 1 1.06-2.58 3.39 3.39 0 0 1 2.59-.94 5.28 5.28 0 0 1 .62 0 4.16 4.16 0 0 1 .79.17 3.29 3.29 0 0 1 .81.38 3 3 0 0 1 .73.66 2.88 2.88 0 0 1 .47 1.42c0 .59.08 1.21.08 1.85V67.32a2.42 2.42 0 0 0 0 .43c0 .11.05.24.08.38zm-.36-5.45a1.82 1.82 0 0 0-1.37.76 3.43 3.43 0 0 0-.18 2.47.56.56 0 0 0 .58.4c.49 0 .78-.3.87-.92a21.48 21.48 0 0 0 .1-2.71zM181.07 52.79h3v15.34h-3zM195.1 52.79v9.77c0 .48 0 .9.05 1.28a2.9 2.9 0 0 0 .21.94 1.14 1.14 0 0 0 .47.58 1.54 1.54 0 0 0 .84.19 1.39 1.39 0 0 0 .86-.24 1.37 1.37 0 0 0 .46-.67 3.21 3.21 0 0 0 .17-1V52.79h2.67v9.61q0 1-.09 2.07a5.14 5.14 0 0 1-.52 1.92 3.43 3.43 0 0 1-1.31 1.42 4.73 4.73 0 0 1-2.47.55 6.31 6.31 0 0 1-2.19-.33 3.11 3.11 0 0 1-1.39-1 4.44 4.44 0 0 1-.72-1.78 13.56 13.56 0 0 1-.21-2.56v-9.9zM203.63 52.79h3.09l2.48 7a13.27 13.27 0 0 1 .36 1.3l.38 1.73c0-.38-.06-.81-.08-1.27s-.05-.92-.07-1.36 0-.84-.06-1.21 0-.64 0-.83v-5.4h2.55v15.38h-2.55l-2.88-7.84c-.2-.54-.37-1.1-.53-1.68s-.27-1.08-.37-1.48c0 .36.07.76.1 1.21s.05.9.08 1.34 0 .84 0 1.2v7.25h-2.56zM218.33 59H222v2.6h-3.7v3.84h4.83v2.69h-8V52.79h8v2.69h-4.83zM230.57 57.11a3.78 3.78 0 0 0-.34-.91 2.09 2.09 0 0 0-.42-.55 1.27 1.27 0 0 0-.48-.26 1.79 1.79 0 0 0-.51-.07 1.26 1.26 0 0 0-.75.19 1.3 1.3 0 0 0-.39.46 1.86 1.86 0 0 0-.16.51 3.19 3.19 0 0 0 0 .33 1.81 1.81 0 0 0 .11.7 1.27 1.27 0 0 0 .37.49 5 5 0 0 0 .82.51c.35.18.81.39 1.37.66l.86.46a3.77 3.77 0 0 1 1 .77 4.14 4.14 0 0 1 .79 1.23 4.5 4.5 0 0 1 .32 1.84 5.8 5.8 0 0 1-.31 2 4.49 4.49 0 0 1-.9 1.53 4.13 4.13 0 0 1-1.47 1 5.23 5.23 0 0 1-2 .36 4.55 4.55 0 0 1-2.13-.44 4 4 0 0 1-1.35-1.07 4.21 4.21 0 0 1-.72-1.35 8.5 8.5 0 0 1-.32-1.28l2.5-.88a4 4 0 0 0 .73 1.75 1.6 1.6 0 0 0 1.27.51 1.53 1.53 0 0 0 .84-.2 1.35 1.35 0 0 0 .48-.47 1.69 1.69 0 0 0 .2-.54 2.67 2.67 0 0 0 0-.4 1.71 1.71 0 0 0-.12-.67 1.66 1.66 0 0 0-.29-.48 2 2 0 0 0-.42-.35l-.45-.25-1.28-.64c-.35-.19-.67-.37-1-.55a5.64 5.64 0 0 1-.73-.58 3.83 3.83 0 0 1-.56-.69 4 4 0 0 1-.51-1.15 5.47 5.47 0 0 1 .1-3.12 4.65 4.65 0 0 1 .8-1.49 4 4 0 0 1 1.41-1.02 3.85 3.85 0 0 1 1.8-.4 4 4 0 0 1 1.94.42 4.3 4.3 0 0 1 1.23 1 4.37 4.37 0 0 1 .69 1.18c.15.4.26.7.32.92zM241.45 58.7c0-.38 0-.78-.08-1.19a4.12 4.12 0 0 0-.25-1.1 2 2 0 0 0-.51-.8 1.25 1.25 0 0 0-.89-.31 1.33 1.33 0 0 0-.82.22 1.88 1.88 0 0 0-.49.79 4 4 0 0 0-.24 1c-.06.41-.09.82-.12 1.24s0 .82 0 1.2v2.99a8.63 8.63 0 0 0 .12 1 4.55 4.55 0 0 0 .21.88 1.7 1.7 0 0 0 .48.7 1.18 1.18 0 0 0 .79.24 1.81 1.81 0 0 0 .76-.14 1.13 1.13 0 0 0 .53-.49 3.11 3.11 0 0 0 .33-.94 11 11 0 0 0 .2-1.49l2.66.21c0 .23 0 .53-.08.89a8 8 0 0 1-.21 1.16 8.19 8.19 0 0 1-.45 1.25 4.06 4.06 0 0 1-.8 1.14 4 4 0 0 1-1.24.83 4.48 4.48 0 0 1-1.77.32 4 4 0 0 1-3.74-2 11.81 11.81 0 0 1-1.16-5.78c0-.51 0-1.06.07-1.66a15.24 15.24 0 0 1 .25-1.76 9.6 9.6 0 0 1 .53-1.7 5.21 5.21 0 0 1 .9-1.45 4.13 4.13 0 0 1 1.35-1 4.22 4.22 0 0 1 1.89-.38 4.68 4.68 0 0 1 1.77.3 3.73 3.73 0 0 1 2 1.89 7.39 7.39 0 0 1 .46 1.29 10.24 10.24 0 0 1 .22 1.29c0 .42.07.8.1 1.14zM250.65 52.56a4.14 4.14 0 0 1 2.3.6 4.25 4.25 0 0 1 1.47 1.66 8.26 8.26 0 0 1 .77 2.53 22.7 22.7 0 0 1 .22 3.21 21.44 21.44 0 0 1-.22 3.13 7.73 7.73 0 0 1-.77 2.46 4.17 4.17 0 0 1-1.49 1.62 4.33 4.33 0 0 1-2.35.59 4.56 4.56 0 0 1-1.53-.23 4 4 0 0 1-1-.53 3 3 0 0 1-.62-.59c-.14-.19-.24-.32-.29-.4a8.17 8.17 0 0 1-1-2.84 21.18 21.18 0 0 1-.27-3.48 19.45 19.45 0 0 1 .24-3.19 7.37 7.37 0 0 1 .81-2.44 4.38 4.38 0 0 1 1.5-1.55 4.33 4.33 0 0 1 2.23-.55zm-.07 2.74a1.05 1.05 0 0 0-.65.21 1.75 1.75 0 0 0-.46.75 6.81 6.81 0 0 0-.26 1.74q-.06 1.16-.06 2.61v2a8.4 8.4 0 0 0 .24 1.86 2.06 2.06 0 0 0 .37.79 1 1 0 0 0 .85.33.94.94 0 0 0 .88-.38 2.87 2.87 0 0 0 .36-1 9.69 9.69 0 0 0 .1-1q0-.65.06-1.26v-2.54-1.13c0-.39-.06-.75-.09-1.11a4.2 4.2 0 0 0-.18-.89 1.51 1.51 0 0 0-.46-.78 1.17 1.17 0 0 0-.7-.2zM263.3 52.79h4.93a5.43 5.43 0 0 1 1.06.16 3.51 3.51 0 0 1 1 .43 2.66 2.66 0 0 1 .83.84 4.42 4.42 0 0 1 .74 1.62 7.77 7.77 0 0 1 .21 1.8 6.76 6.76 0 0 1-.41 2.38 3.6 3.6 0 0 1-1.17 1.69 3.23 3.23 0 0 1-.82.43 5.06 5.06 0 0 1-.85.22 8 8 0 0 1-.8.08h-1.62v5.66h-3.1zm3.1 7h.75a2.53 2.53 0 0 0 .7-.09 1 1 0 0 0 .51-.35 1.67 1.67 0 0 0 .31-.71 5.74 5.74 0 0 0 .1-1.22 4.68 4.68 0 0 0-.07-.86 1.88 1.88 0 0 0-.25-.7 1.26 1.26 0 0 0-.5-.47 1.61 1.61 0 0 0-.8-.18h-.75zM278.25 68.13a1.36 1.36 0 0 1-.15-.43 4.64 4.64 0 0 1 0-1 3.88 3.88 0 0 1-1 1.16 2.27 2.27 0 0 1-1.4.47 3.49 3.49 0 0 1-.57-.07 1.86 1.86 0 0 1-.81-.38 2.58 2.58 0 0 1-.73-.94 4.17 4.17 0 0 1-.31-1.76v-.57a4.15 4.15 0 0 1 .15-.77 4.83 4.83 0 0 1 .38-.86 3.24 3.24 0 0 1 .74-.86 3.53 3.53 0 0 1 1.52-.79 10.68 10.68 0 0 1 1.84-.27 11.21 11.21 0 0 0-.14-1.85.6.6 0 0 0-.64-.54.67.67 0 0 0-.5.18 1.65 1.65 0 0 0-.28.44 2.33 2.33 0 0 0-.13.55q0 .3-.06.51l-2.58-.3a4.42 4.42 0 0 1 1.07-2.58 3.39 3.39 0 0 1 2.59-.94 5.28 5.28 0 0 1 .62 0 3.91 3.91 0 0 1 .78.17 3.19 3.19 0 0 1 .82.38 2.8 2.8 0 0 1 .72.66 2.88 2.88 0 0 1 .48 1.42c.05.59.08 1.21.08 1.85V67.32a4.23 4.23 0 0 0 0 .43c0 .11.05.24.08.38zm-.37-5.45a1.82 1.82 0 0 0-1.37.76 3.52 3.52 0 0 0-.19 2.47.57.57 0 0 0 .59.4c.49 0 .78-.3.86-.92a19.39 19.39 0 0 0 .11-2.71zM283 56.79h2.62v2.74a9.06 9.06 0 0 1 .27-.88 4.42 4.42 0 0 1 .45-1 3.24 3.24 0 0 1 .67-.8 1.51 1.51 0 0 1 1-.33 3.71 3.71 0 0 1 .78.07v3.1a4.7 4.7 0 0 0-1.14.05 1.74 1.74 0 0 0-.89.44 2.16 2.16 0 0 0-.59 1 5.48 5.48 0 0 0-.21 1.67v5.27H283zM291.45 53.32l2.55-.19v3.66h1.77v2.37H294v5.58a1.9 1.9 0 0 0 .15.55.75.75 0 0 0 .36.32 1.6 1.6 0 0 0 .63.1 2.93 2.93 0 0 0 .74-.07V68a9.07 9.07 0 0 1-1.14.24 6.14 6.14 0 0 1-.75.06 4.16 4.16 0 0 1-1.35-.23 1.94 1.94 0 0 1-1-.67 3.36 3.36 0 0 1-.34-.61 3.17 3.17 0 0 1-.19-.71 5.88 5.88 0 0 1-.08-.89V59.17h-1.22v-2.38h1.35zM297.52 56.79h2.62v1.68a5.68 5.68 0 0 1 .37-.74 2.71 2.71 0 0 1 .51-.61 2.19 2.19 0 0 1 .7-.41 3.4 3.4 0 0 1 2.46.18 2.05 2.05 0 0 1 .76.87 3.14 3.14 0 0 1 .27 1.17V68.13h-2.91v-7.71-.56a1.25 1.25 0 0 0-.1-.46.74.74 0 0 0-.27-.31.87.87 0 0 0-.51-.12 1 1 0 0 0-.52.13.8.8 0 0 0-.29.32 1.3 1.3 0 0 0-.11.46 4.89 4.89 0 0 0 0 .54v7.71h-2.94zM310 63a8.11 8.11 0 0 0 .18 2.31 1 1 0 0 0 1.06.8.88.88 0 0 0 .88-.51 5.17 5.17 0 0 0 .34-1.35l2.42.2a5.84 5.84 0 0 1-.27 1.42 3.92 3.92 0 0 1-.65 1.27 3.3 3.3 0 0 1-1.13.92 3.73 3.73 0 0 1-1.68.35 4 4 0 0 1-1.91-.42 3.22 3.22 0 0 1-1.24-1.22 5.08 5.08 0 0 1-.7-1.84 11.78 11.78 0 0 1-.22-2.39 12.56 12.56 0 0 1 .17-2.1 6 6 0 0 1 .63-1.94 4 4 0 0 1 1.24-1.4 3.5 3.5 0 0 1 2-.54 3.68 3.68 0 0 1 1.25.2 3.25 3.25 0 0 1 .94.51 3.17 3.17 0 0 1 .69.73 5.11 5.11 0 0 1 .77 1.86A10.4 10.4 0 0 1 315 61q0 .55.06 1.08v.88zm2.25-1.86a5.19 5.19 0 0 0-.27-1.9.88.88 0 0 0-1.43-.31 1.79 1.79 0 0 0-.35.62 3 3 0 0 0-.16.81q0 .44-.06.78zM316.7 56.79h2.62v2.74a9.06 9.06 0 0 1 .27-.88 4.42 4.42 0 0 1 .45-1 3.24 3.24 0 0 1 .67-.8 1.51 1.51 0 0 1 1-.33 3.71 3.71 0 0 1 .78.07v3.1a4.59 4.59 0 0 0-1.13.05 1.74 1.74 0 0 0-.9.44 2.26 2.26 0 0 0-.59 1 5.52 5.52 0 0 0-.2 1.67v5.27h-2.97zM127.57 85.79h3.34l.85 7.29c.09.78.16 1.49.2 2.14s.07 1.26.1 1.84c0-.42.07-.85.11-1.3s.1-.89.14-1.3.09-.78.13-1.11.07-.56.1-.73l1.13-6.83h2.83l1.22 7.21.09.65c0 .21.06.47.08.78s.05.67.09 1.1.08 1 .13 1.57v-.75c0-.36.05-.76.08-1.2s.07-.88.11-1.33.08-.84.12-1.16l.9-6.83h2.74l-2.79 15.34h-2.75l-1.32-7.52c0-.26-.11-.7-.19-1.31a20.45 20.45 0 0 1-.17-2.14c0 .27-.07.58-.1.91s-.06.65-.1 1-.08.63-.11.9-.08.5-.11.67l-1.31 7.52h-2.76zM146.69 89.56a3.5 3.5 0 0 1 2.05.56 3.9 3.9 0 0 1 1.26 1.43 6.4 6.4 0 0 1 .6 1.9 12.53 12.53 0 0 1 .16 2 13.58 13.58 0 0 1-.18 2.25 5.65 5.65 0 0 1-.65 1.88 3.55 3.55 0 0 1-1.24 1.31 3.63 3.63 0 0 1-2 .5 4.38 4.38 0 0 1-1.21-.16 3.28 3.28 0 0 1-.92-.44 2.73 2.73 0 0 1-.67-.64 4.55 4.55 0 0 1-.48-.78 5.7 5.7 0 0 1-.43-1.22c-.1-.43-.17-.84-.22-1.21s-.07-.7-.08-1 0-.46 0-.55a13.26 13.26 0 0 1 .13-1.76 5.94 5.94 0 0 1 .55-1.9 4.21 4.21 0 0 1 1.22-1.53 3.36 3.36 0 0 1 2.11-.64zm-.05 2.07c-.44 0-.71.26-.8.78a16.28 16.28 0 0 0-.14 2.65v1.76c0 .49 0 .9.07 1.25a1.59 1.59 0 0 0 .28 1 .78.78 0 0 0 .59.25 1.14 1.14 0 0 0 .42-.09.66.66 0 0 0 .34-.46 2.35 2.35 0 0 0 .14-.68c0-.3.06-.61.07-.94s0-.65 0-1v-.8-1.19c0-.38 0-.8-.07-1.28a2.66 2.66 0 0 0-.1-.68.9.9 0 0 0-.21-.38.58.58 0 0 0-.29-.17 1.66 1.66 0 0 0-.3-.02zM152.64 89.79h2.63v2.74c.06-.25.15-.54.26-.88a5.6 5.6 0 0 1 .45-1 3.07 3.07 0 0 1 .68-.8 1.49 1.49 0 0 1 1-.33 3.71 3.71 0 0 1 .78.07v3.1a4.65 4.65 0 0 0-1.14 0 1.74 1.74 0 0 0-.9.44 2.15 2.15 0 0 0-.58 1 5.48 5.48 0 0 0-.21 1.67v5.27h-3zM159.89 85.79h2.94v15.34h-2.94zM172.42 101.13h-2.57v-1.66a3.19 3.19 0 0 1-1 1.42 2.06 2.06 0 0 1-1.2.38 2.16 2.16 0 0 1-1.22-.33 2.42 2.42 0 0 1-.83-.85 4.86 4.86 0 0 1-.51-1.16 8 8 0 0 1-.26-1.27c-.05-.43-.09-.83-.1-1.2s0-.67 0-.9a11.77 11.77 0 0 1 .3-3 6.39 6.39 0 0 1 .74-1.75 2.71 2.71 0 0 1 .84-.81 2.07 2.07 0 0 1 1.18-.34A1.68 1.68 0 0 1 169 90a4.22 4.22 0 0 1 .6.62v-4.83h2.87zm-2.87-8.07v-.38a1.84 1.84 0 0 0-.08-.42.86.86 0 0 0-.23-.33.7.7 0 0 0-.46-.14.68.68 0 0 0-.54.23 1.49 1.49 0 0 0-.29.67 7.08 7.08 0 0 0-.12 1.08v3.76a5.46 5.46 0 0 0 .07.72 1.56 1.56 0 0 0 .24.68.61.61 0 0 0 .56.27.67.67 0 0 0 .68-.58 6.89 6.89 0 0 0 .15-1.65zM184.84 85.56a4.12 4.12 0 0 1 2.3.6 4.2 4.2 0 0 1 1.48 1.66 8.55 8.55 0 0 1 .77 2.53 22.7 22.7 0 0 1 .22 3.21 21.44 21.44 0 0 1-.22 3.13 8 8 0 0 1-.77 2.46 4.24 4.24 0 0 1-1.49 1.62 4.33 4.33 0 0 1-2.35.59 4.56 4.56 0 0 1-1.53-.23 3.87 3.87 0 0 1-1-.53 3 3 0 0 1-.62-.59 4.72 4.72 0 0 1-.29-.4 8 8 0 0 1-1-2.84 21.15 21.15 0 0 1-.28-3.48 18.36 18.36 0 0 1 .25-3.19 7.37 7.37 0 0 1 .81-2.44 4 4 0 0 1 3.77-2.1zm-.06 2.74a1.05 1.05 0 0 0-.65.21 1.66 1.66 0 0 0-.46.75 6 6 0 0 0-.26 1.74q-.06 1.16-.06 2.61v2a9 9 0 0 0 .25 1.86 2 2 0 0 0 .36.79 1 1 0 0 0 .85.33 1 1 0 0 0 .89-.38 2.87 2.87 0 0 0 .36-1 9.69 9.69 0 0 0 .1-1q0-.65.06-1.26v-2.54-1.13c0-.39-.06-.75-.1-1.11a3.7 3.7 0 0 0-.17-.89 1.51 1.51 0 0 0-.46-.78 1.17 1.17 0 0 0-.71-.2zM191.74 89.79h2.63v2.74c.06-.25.15-.54.26-.88a5.6 5.6 0 0 1 .45-1 3.07 3.07 0 0 1 .68-.8 1.49 1.49 0 0 1 1-.33 3.71 3.71 0 0 1 .78.07v3.1a4.65 4.65 0 0 0-1.14 0 1.74 1.74 0 0 0-.9.44 2.15 2.15 0 0 0-.58 1 5.48 5.48 0 0 0-.21 1.67v5.27h-2.95zM207.73 90l-.25-.11a1.09 1.09 0 0 0-.33 0 .78.78 0 0 0-.73.35 3.12 3.12 0 0 0-.32.73 8 8 0 0 1 .43.72 3.13 3.13 0 0 1 .26 1.44 3.49 3.49 0 0 1-1 2.6 3.45 3.45 0 0 1-2.54.94h-.49a6 6 0 0 1-.8-.12.92.92 0 0 0-.45.47 1.46 1.46 0 0 0-.1.48.76.76 0 0 0 .1.43.73.73 0 0 0 .36.26 3 3 0 0 0 .68.13l1 .12c.48 0 1 .11 1.42.18a3.83 3.83 0 0 1 1.26.43 2.34 2.34 0 0 1 .91.91 3.26 3.26 0 0 1 .35 1.63 3.44 3.44 0 0 1-.38 1.67 3.1 3.1 0 0 1-1 1.1 4.07 4.07 0 0 1-1.49.61 8.76 8.76 0 0 1-1.82.19 10.75 10.75 0 0 1-1.66-.13 4.33 4.33 0 0 1-1.33-.43 2.36 2.36 0 0 1-.87-.78 2.11 2.11 0 0 1-.32-1.22 2.37 2.37 0 0 1 .55-1.62 1.84 1.84 0 0 1 .49-.41l.47-.27a4.13 4.13 0 0 1-.75-.64 1.7 1.7 0 0 1-.4-1.2V98a2.24 2.24 0 0 1 .19-.65 3.26 3.26 0 0 1 .48-.73 2.59 2.59 0 0 1 .84-.64l-.42-.26a1.79 1.79 0 0 1-.49-.47 2.91 2.91 0 0 1-.42-.79 3.72 3.72 0 0 1-.17-1.2 3.32 3.32 0 0 1 1.27-2.89 3.65 3.65 0 0 1 1.27-.58 5.6 5.6 0 0 1 1.32-.16 6.62 6.62 0 0 1 1.17.11 4 4 0 0 1 1.11.4v-.58a2.22 2.22 0 0 1 .2-.73 1.7 1.7 0 0 1 .53-.64 1.75 1.75 0 0 1 1-.26 2.05 2.05 0 0 1 .37 0l.37.08zm-6.33 10.78l-.25.39a1.28 1.28 0 0 0-.14.63.92.92 0 0 0 .52.86 3.64 3.64 0 0 0 1.55.26h.54a2.21 2.21 0 0 0 .59-.14 1.14 1.14 0 0 0 .46-.31.81.81 0 0 0 .18-.55.69.69 0 0 0-.36-.7 3.09 3.09 0 0 0-.9-.25 4.2 4.2 0 0 1-.43 0h-1.31zm1.52-9.52a.64.64 0 0 0-.52.21 1.59 1.59 0 0 0-.26.48 1.85 1.85 0 0 0-.1.57v.47a3.23 3.23 0 0 0 .23 1.46.75.75 0 0 0 .71.42.7.7 0 0 0 .47-.15 1 1 0 0 0 .26-.4 2.39 2.39 0 0 0 .12-.57v-.67a3.1 3.1 0 0 0-.23-1.44.75.75 0 0 0-.68-.38zM213.46 101.13a1.36 1.36 0 0 1-.15-.43 4.64 4.64 0 0 1 0-1 3.88 3.88 0 0 1-1 1.16 2.27 2.27 0 0 1-1.4.47 3.49 3.49 0 0 1-.57-.07 1.92 1.92 0 0 1-.81-.38 2.58 2.58 0 0 1-.73-.94 4.17 4.17 0 0 1-.31-1.76v-.57a4.15 4.15 0 0 1 .15-.77A4.83 4.83 0 0 1 209 96a3.24 3.24 0 0 1 .74-.86 3.53 3.53 0 0 1 1.52-.79 10.68 10.68 0 0 1 1.84-.27 11.21 11.21 0 0 0-.14-1.85.6.6 0 0 0-.64-.54.67.67 0 0 0-.5.18 1.41 1.41 0 0 0-.27.44 1.93 1.93 0 0 0-.14.55c0 .2 0 .37-.06.51l-2.58-.3a4.42 4.42 0 0 1 1.07-2.58 3.39 3.39 0 0 1 2.59-.94 5.28 5.28 0 0 1 .62 0 3.91 3.91 0 0 1 .78.17 3.19 3.19 0 0 1 .82.38 2.49 2.49 0 0 1 1.2 2.08c0 .59.08 1.21.08 1.85v6.29a4.23 4.23 0 0 0 0 .43c0 .11.05.24.08.38zm-.37-5.45a1.82 1.82 0 0 0-1.37.76 3.43 3.43 0 0 0-.18 2.47.56.56 0 0 0 .58.4c.49 0 .78-.3.86-.92a19.39 19.39 0 0 0 .11-2.71zM218.17 89.79h2.62v1.68a5.68 5.68 0 0 1 .37-.74 2.71 2.71 0 0 1 .51-.61 2.31 2.31 0 0 1 .7-.41 2.81 2.81 0 0 1 1-.15 2.77 2.77 0 0 1 1.48.33 2.05 2.05 0 0 1 .76.87 3.14 3.14 0 0 1 .27 1.17V101.13H223v-7.71-.56a1.08 1.08 0 0 0-.1-.46.79.79 0 0 0-.26-.31.93.93 0 0 0-.52-.12 1 1 0 0 0-.52.13.8.8 0 0 0-.29.32 1.3 1.3 0 0 0-.11.46 4.89 4.89 0 0 0 0 .54v7.71h-2.94zM231.1 85.65v3.13h-2.95v-3.13zm-2.95 4.14h2.95v11.34h-2.95zM239.49 89.79v1.89l-3.38 7.15h3.52v2.3h-6.51V98.9l3.31-7h-3v-2.11zM245.93 101.13a2.16 2.16 0 0 1-.15-.43 4.2 4.2 0 0 1 0-1 3.88 3.88 0 0 1-1 1.16 2.32 2.32 0 0 1-1.41.47 3.4 3.4 0 0 1-.56-.07 2 2 0 0 1-.82-.38 2.57 2.57 0 0 1-.72-.94 4 4 0 0 1-.31-1.76v-.57a4.15 4.15 0 0 1 .15-.77 4.2 4.2 0 0 1 .38-.86 3.06 3.06 0 0 1 .74-.86 3.5 3.5 0 0 1 1.51-.79 11 11 0 0 1 1.84-.27 11.51 11.51 0 0 0-.13-1.85.61.61 0 0 0-.65-.54.64.64 0 0 0-.49.18 1.44 1.44 0 0 0-.28.44 2.33 2.33 0 0 0-.14.55c0 .2 0 .37-.05.51l-2.58-.3a4.36 4.36 0 0 1 1.07-2.58 3.37 3.37 0 0 1 2.59-.94 5.45 5.45 0 0 1 .62 0 4.24 4.24 0 0 1 .78.17 3.19 3.19 0 0 1 .82.38 3 3 0 0 1 .72.66 2.78 2.78 0 0 1 .47 1.42 18.41 18.41 0 0 1 .08 1.85V100.32a4 4 0 0 0 0 .43c0 .11.05.24.08.38zm-.37-5.45a1.84 1.84 0 0 0-1.37.76 3.43 3.43 0 0 0-.18 2.47.57.57 0 0 0 .59.4c.49 0 .78-.3.86-.92a19.72 19.72 0 0 0 .1-2.71zM251.43 86.32l2.55-.19v3.66h1.77v2.37H254v4.78a6.27 6.27 0 0 0 0 .8 1.43 1.43 0 0 0 .15.55.69.69 0 0 0 .35.32 1.6 1.6 0 0 0 .63.1 2.93 2.93 0 0 0 .74-.07V101a8.39 8.39 0 0 1-1.14.24 6.14 6.14 0 0 1-.75.06 4.16 4.16 0 0 1-1.35-.23 1.94 1.94 0 0 1-1-.67 2.8 2.8 0 0 1-.33-.61 3.16 3.16 0 0 1-.2-.71 5.88 5.88 0 0 1-.08-.89V92.17h-1.22v-2.38h1.36zM260.44 85.65v3.13h-2.94v-3.13zm-2.94 4.14h2.94v11.34h-2.94zM266.4 89.56a3.48 3.48 0 0 1 2.05.56 3.92 3.92 0 0 1 1.22 1.43 6.4 6.4 0 0 1 .6 1.9 13.86 13.86 0 0 1 .16 2 13.56 13.56 0 0 1-.19 2.25 5.87 5.87 0 0 1-.64 1.88 3.45 3.45 0 0 1-3.22 1.81 4.45 4.45 0 0 1-1.22-.16 3.41 3.41 0 0 1-.92-.44 3.14 3.14 0 0 1-.67-.64 5.2 5.2 0 0 1-.91-2c-.1-.43-.17-.84-.22-1.21s-.07-.7-.08-1 0-.46 0-.55a15.21 15.21 0 0 1 .13-1.76 6.2 6.2 0 0 1 .55-1.9 4.31 4.31 0 0 1 1.22-1.53 3.37 3.37 0 0 1 2.14-.64zm0 2.07q-.67 0-.81.78a17.54 17.54 0 0 0-.14 2.65v1.76c0 .49 0 .9.06 1.25a1.66 1.66 0 0 0 .28 1 .79.79 0 0 0 .6.25 1.13 1.13 0 0 0 .41-.09.67.67 0 0 0 .35-.46 3.3 3.3 0 0 0 .14-.68c0-.3.05-.61.06-.94s0-.65 0-1v-.8-1.19c0-.38 0-.8-.06-1.28a2.59 2.59 0 0 0-.11-.68.81.81 0 0 0-.21-.38.59.59 0 0 0-.28-.17zM272.36 89.79H275v1.68a5.68 5.68 0 0 1 .37-.74 2.67 2.67 0 0 1 .5-.61 2.36 2.36 0 0 1 .71-.41 2.75 2.75 0 0 1 1-.15 2.79 2.79 0 0 1 1.49.33 2.12 2.12 0 0 1 .76.87 3.14 3.14 0 0 1 .27 1.17V101.13h-2.95v-7.71-.56a1.25 1.25 0 0 0-.1-.46.74.74 0 0 0-.27-.31.87.87 0 0 0-.51-.12 1 1 0 0 0-.52.13.8.8 0 0 0-.29.32 1.55 1.55 0 0 0-.12.46v8.25h-2.94zM288.18 92.16H287v-2.37h1.22c0-.46 0-1 .05-1.49a4.33 4.33 0 0 1 .34-1.5 2.77 2.77 0 0 1 .95-1.15 3.13 3.13 0 0 1 1.86-.46 5 5 0 0 1 .75 0l.51.09v2.41H292c-.43 0-.68.13-.77.4a4.1 4.1 0 0 0-.12 1.12v.57h1.38v2.37h-1.38v9h-2.95zM297.5 89.56a3.44 3.44 0 0 1 2 .56 3.83 3.83 0 0 1 1.22 1.43 6.4 6.4 0 0 1 .6 1.9 12.53 12.53 0 0 1 .16 2 13.58 13.58 0 0 1-.18 2.25 5.65 5.65 0 0 1-.65 1.88 3.55 3.55 0 0 1-1.24 1.31 3.63 3.63 0 0 1-2 .5 4.51 4.51 0 0 1-1.22-.16 3.56 3.56 0 0 1-.92-.44 2.87 2.87 0 0 1-.66-.64 4.55 4.55 0 0 1-.48-.78 5.7 5.7 0 0 1-.43-1.22c-.1-.43-.17-.84-.22-1.21s-.07-.7-.08-1 0-.46 0-.55a13.26 13.26 0 0 1 .13-1.76 5.94 5.94 0 0 1 .55-1.9 4.21 4.21 0 0 1 1.22-1.53 3.36 3.36 0 0 1 2.2-.64zm-.05 2.07c-.44 0-.71.26-.8.78a16.28 16.28 0 0 0-.14 2.65v1.76c0 .49 0 .9.07 1.25a1.59 1.59 0 0 0 .28 1 .78.78 0 0 0 .59.25 1.18 1.18 0 0 0 .42-.09.66.66 0 0 0 .34-.46 2.74 2.74 0 0 0 .14-.68c0-.3.05-.61.07-.94s0-.65 0-1v-.8-1.19c0-.38 0-.8-.07-1.28a2.66 2.66 0 0 0-.1-.68 1 1 0 0 0-.21-.38.58.58 0 0 0-.29-.17 1.66 1.66 0 0 0-.3-.02zM303.45 89.79h2.63v2.74c.06-.25.15-.54.26-.88a5.6 5.6 0 0 1 .45-1 3.07 3.07 0 0 1 .68-.8 1.48 1.48 0 0 1 1-.33 3.74 3.74 0 0 1 .79.07v3.1a4.65 4.65 0 0 0-1.14 0 1.74 1.74 0 0 0-.9.44 2.15 2.15 0 0 0-.58 1 5.48 5.48 0 0 0-.21 1.67v5.27h-2.95zM316.93 86.32l2.55-.19v3.66h1.78v2.37h-1.78v5.58a1.43 1.43 0 0 0 .15.55.69.69 0 0 0 .35.32 1.69 1.69 0 0 0 .64.1 2.9 2.9 0 0 0 .73-.07V101a8.39 8.39 0 0 1-1.14.24 6.15 6.15 0 0 1-.74.06 4.22 4.22 0 0 1-1.36-.23 2 2 0 0 1-1-.67 2.8 2.8 0 0 1-.33-.61 3.16 3.16 0 0 1-.2-.71 7.54 7.54 0 0 1-.08-.89V92.17h-1.22v-2.38h1.36zM323 85.79h3v5.47a4.38 4.38 0 0 1 .24-.57 2.18 2.18 0 0 1 .41-.56 2.39 2.39 0 0 1 .66-.41 2.56 2.56 0 0 1 1-.16 2.64 2.64 0 0 1 1.4.32 2 2 0 0 1 .75.83 3.32 3.32 0 0 1 .29 1.09v9.33h-2.94v-7.87-.48a1 1 0 0 0-.1-.4.59.59 0 0 0-.26-.28 1 1 0 0 0-.51-.1c-.44 0-.71.12-.81.38a2.73 2.73 0 0 0-.15 1v7.75H323zM335.52 96a7.76 7.76 0 0 0 .18 2.31 1 1 0 0 0 1.06.8.86.86 0 0 0 .87-.51 5.13 5.13 0 0 0 .37-1.4l2.41.2a6.34 6.34 0 0 1-.26 1.42 4.15 4.15 0 0 1-.66 1.27 3.21 3.21 0 0 1-1.13.92 3.73 3.73 0 0 1-1.68.35 4 4 0 0 1-1.9-.42 3.24 3.24 0 0 1-1.27-1.17 5.48 5.48 0 0 1-.7-1.84 11.78 11.78 0 0 1-.22-2.39 13.72 13.72 0 0 1 .17-2.1 6.24 6.24 0 0 1 .64-1.94 3.89 3.89 0 0 1 1.24-1.4 3.47 3.47 0 0 1 2-.54 3.74 3.74 0 0 1 1.26.2 3.15 3.15 0 0 1 1.62 1.24 5.83 5.83 0 0 1 .46.85 5 5 0 0 1 .31 1 10.4 10.4 0 0 1 .15 1.12c0 .37.05.73.05 1.08v.88zm2.25-1.86a5.37 5.37 0 0 0-.28-1.9.83.83 0 0 0-.78-.56.81.81 0 0 0-.64.25 1.66 1.66 0 0 0-.36.62 3.42 3.42 0 0 0-.16.81q0 .43-.06.78zM347.94 85.79h4.93a5.43 5.43 0 0 1 1.06.16 3.51 3.51 0 0 1 1 .43 2.66 2.66 0 0 1 .83.84 4.59 4.59 0 0 1 .74 1.62 7.77 7.77 0 0 1 .21 1.8 6.76 6.76 0 0 1-.41 2.38 3.54 3.54 0 0 1-1.18 1.69 3.17 3.17 0 0 1-.81.43 5.06 5.06 0 0 1-.85.22 8 8 0 0 1-.8.08H351v5.66h-3.1zm3.1 7h.75a2.53 2.53 0 0 0 .7-.09 1 1 0 0 0 .51-.35 1.67 1.67 0 0 0 .31-.71 5.74 5.74 0 0 0 .1-1.22 4.68 4.68 0 0 0-.07-.86 1.88 1.88 0 0 0-.25-.7 1.26 1.26 0 0 0-.5-.47 1.61 1.61 0 0 0-.8-.18H351zM360.93 96a8.11 8.11 0 0 0 .18 2.31 1 1 0 0 0 1.06.8.88.88 0 0 0 .88-.51 5.17 5.17 0 0 0 .34-1.35l2.42.2a5.84 5.84 0 0 1-.27 1.42 3.92 3.92 0 0 1-.65 1.27 3.3 3.3 0 0 1-1.13.92 3.73 3.73 0 0 1-1.68.35 4 4 0 0 1-1.91-.42 3.22 3.22 0 0 1-1.26-1.17 5.28 5.28 0 0 1-.71-1.84 13.39 13.39 0 0 1 0-4.49 6 6 0 0 1 .63-1.94A4 4 0 0 1 360 90.1a3.5 3.5 0 0 1 2-.54 3.68 3.68 0 0 1 1.25.2 3.25 3.25 0 0 1 .94.51 3.17 3.17 0 0 1 .68.74 5.11 5.11 0 0 1 .77 1.86 10.4 10.4 0 0 1 .15 1.12q0 .56.06 1.08v.88zm2.25-1.86a5.19 5.19 0 0 0-.27-1.9.88.88 0 0 0-1.43-.31 1.79 1.79 0 0 0-.35.62 3.42 3.42 0 0 0-.17.81v.78zM367.6 89.79h2.62v2.74a9.06 9.06 0 0 1 .27-.88 4.42 4.42 0 0 1 .45-1 3.24 3.24 0 0 1 .67-.8 1.51 1.51 0 0 1 1-.33 3.71 3.71 0 0 1 .78.07v3.1a4.59 4.59 0 0 0-1.13 0 1.74 1.74 0 0 0-.9.44 2.16 2.16 0 0 0-.59 1 5.48 5.48 0 0 0-.21 1.67v5.27h-2.96zM375.24 92.16H374v-2.37h1.22V88.3a4.34 4.34 0 0 1 .35-1.5 2.74 2.74 0 0 1 .94-1.15 3.15 3.15 0 0 1 1.86-.46 4.91 4.91 0 0 1 .75 0l.52.09v2.41h-.62c-.43 0-.69.13-.77.4a3.69 3.69 0 0 0-.13 1.12v.57h1.38v2.37h-1.38v9h-2.94zM384.55 89.56a3.48 3.48 0 0 1 2.05.56 3.92 3.92 0 0 1 1.22 1.43 6.12 6.12 0 0 1 .59 1.9 12.59 12.59 0 0 1 .17 2 13.56 13.56 0 0 1-.19 2.25 5.87 5.87 0 0 1-.64 1.88 3.63 3.63 0 0 1-1.24 1.31 3.68 3.68 0 0 1-2 .5 4.45 4.45 0 0 1-1.22-.16 3.41 3.41 0 0 1-.92-.44 3.14 3.14 0 0 1-.67-.64 6.28 6.28 0 0 1-.48-.78 5.7 5.7 0 0 1-.43-1.22c-.1-.43-.17-.84-.22-1.21s-.07-.7-.08-1 0-.46 0-.55a13.26 13.26 0 0 1 .13-1.76 6.2 6.2 0 0 1 .55-1.9 4.21 4.21 0 0 1 1.22-1.53 3.37 3.37 0 0 1 2.16-.64zm-.05 2.07c-.44 0-.71.26-.8.78a17.54 17.54 0 0 0-.14 2.65v1.76c0 .49 0 .9.07 1.25a1.66 1.66 0 0 0 .28 1 .79.79 0 0 0 .6.25 1.13 1.13 0 0 0 .41-.09.7.7 0 0 0 .35-.46 2.82 2.82 0 0 0 .13-.68c0-.3.06-.61.07-.94s0-.65 0-1v-.8-1.19c0-.38 0-.8-.07-1.28a2.66 2.66 0 0 0-.1-.68.81.81 0 0 0-.21-.38.59.59 0 0 0-.28-.17 1.84 1.84 0 0 0-.31-.02zM390.51 89.79h2.62v2.74c.06-.25.15-.54.26-.88a5.6 5.6 0 0 1 .45-1 3.28 3.28 0 0 1 .68-.8 1.49 1.49 0 0 1 1-.33 3.71 3.71 0 0 1 .78.07v3.1a4.7 4.7 0 0 0-1.14 0 1.82 1.82 0 0 0-.9.44 2.24 2.24 0 0 0-.58 1 5.48 5.48 0 0 0-.21 1.67v5.27h-2.94zM397.75 89.79h2.65v1.68a3.56 3.56 0 0 1 .91-1.46 2.06 2.06 0 0 1 1.41-.45 3 3 0 0 1 1 .14 1.81 1.81 0 0 1 .64.39 2.9 2.9 0 0 1 .45.58 5.69 5.69 0 0 1 .32.71 3.84 3.84 0 0 1 .25-.67 2.6 2.6 0 0 1 .4-.58 2.25 2.25 0 0 1 .61-.41 2.32 2.32 0 0 1 .93-.16 2.53 2.53 0 0 1 1.44.34 2.11 2.11 0 0 1 .75.88 3.35 3.35 0 0 1 .28 1.17v9.22h-2.87v-8-.41a.93.93 0 0 0-.1-.38.62.62 0 0 0-.25-.28.89.89 0 0 0-.47-.1.77.77 0 0 0-.51.14.75.75 0 0 0-.26.35 1.4 1.4 0 0 0-.09.53v8.11h-2.87v-7.78-.51a1.36 1.36 0 0 0-.09-.43.89.89 0 0 0-.24-.3.87.87 0 0 0-.46-.11q-.64 0-.78.42a4 4 0 0 0-.12 1.07v7.64h-2.88zM415 85.65v3.13h-3v-3.13zm-3 4.14h3v11.34h-3zM417.3 89.79h2.62v1.68a5.68 5.68 0 0 1 .37-.74 2.71 2.71 0 0 1 .51-.61 2.31 2.31 0 0 1 .7-.41 2.81 2.81 0 0 1 1-.15 2.75 2.75 0 0 1 1.48.33 2 2 0 0 1 .76.87 3.35 3.35 0 0 1 .28 1.17V101.13h-2.94v-7.71-.56a1.08 1.08 0 0 0-.1-.46.79.79 0 0 0-.26-.31.93.93 0 0 0-.52-.12 1 1 0 0 0-.52.13.88.88 0 0 0-.29.32 1.3 1.3 0 0 0-.11.46 4.87 4.87 0 0 0 0 .54v7.71h-2.98zM436 90l-.25-.11a1 1 0 0 0-.32 0 .8.8 0 0 0-.74.35 3.6 3.6 0 0 0-.32.73 7.7 7.7 0 0 1 .44.72 3.15 3.15 0 0 1 .25 1.44 3.52 3.52 0 0 1-.95 2.6 3.47 3.47 0 0 1-2.55.94h-.49a5.83 5.83 0 0 1-.79-.12.92.92 0 0 0-.45.47 1.52 1.52 0 0 0-.11.48.76.76 0 0 0 .11.43.75.75 0 0 0 .35.26 3.16 3.16 0 0 0 .68.13l1.05.12c.47 0 .95.11 1.41.18a4 4 0 0 1 1.27.43 2.34 2.34 0 0 1 .91.91 3.27 3.27 0 0 1 .34 1.63 3.33 3.33 0 0 1-.38 1.67 3.08 3.08 0 0 1-1 1.1 4.19 4.19 0 0 1-1.5.61 8.66 8.66 0 0 1-1.81.19 10.78 10.78 0 0 1-1.67-.13 4.36 4.36 0 0 1-1.32-.43 2.47 2.47 0 0 1-.88-.78 2.19 2.19 0 0 1-.32-1.22 2.67 2.67 0 0 1 .16-1 2.45 2.45 0 0 1 .39-.66 1.88 1.88 0 0 1 .5-.41l.47-.27a3.86 3.86 0 0 1-.76-.64 1.7 1.7 0 0 1-.39-1.2v-.46a2.28 2.28 0 0 1 .2-.65 3.2 3.2 0 0 1 .47-.73 2.82 2.82 0 0 1 .84-.64l-.41-.26a1.81 1.81 0 0 1-.5-.47 2.66 2.66 0 0 1-.41-.79 3.47 3.47 0 0 1-.17-1.2 3.34 3.34 0 0 1 1.26-2.89 3.7 3.7 0 0 1 1.28-.58 5.54 5.54 0 0 1 1.32-.16 6.6 6.6 0 0 1 1.16.11 4.17 4.17 0 0 1 1.12.4v-.58a2 2 0 0 1 .2-.73 1.68 1.68 0 0 1 .52-.64 1.76 1.76 0 0 1 1-.26 2.05 2.05 0 0 1 .37 0l.42.11zm-6.32 10.78c-.08.11-.16.24-.25.39a1.18 1.18 0 0 0-.14.63.91.91 0 0 0 .51.86 3.69 3.69 0 0 0 1.56.26h.54a2.14 2.14 0 0 0 .58-.14 1.07 1.07 0 0 0 .46-.31.77.77 0 0 0 .19-.55.69.69 0 0 0-.37-.7 2.92 2.92 0 0 0-.9-.25h-1.73zm1.52-9.52a.63.63 0 0 0-.52.21 1.4 1.4 0 0 0-.26.48 1.86 1.86 0 0 0-.11.57v.47a3.38 3.38 0 0 0 .23 1.46.75.75 0 0 0 .71.42.68.68 0 0 0 .47-.15.89.89 0 0 0 .27-.4 2 2 0 0 0 .11-.57v-.67a3.1 3.1 0 0 0-.23-1.44.78.78 0 0 0-.65-.38zM447.25 85.79l3.47 15.34h-3.17l-.62-3.31h-3l-.6 3.31h-2.83l3.5-15.34zm-.67 9.54l-.85-4.09c-.08-.31-.14-.64-.2-1s-.09-.89-.12-1.58q-.07.48-.15 1.11c-.06.41-.13.86-.22 1.33l-.83 4.23zM451.94 89.79h2.62v2.74a9.06 9.06 0 0 1 .27-.88 4.42 4.42 0 0 1 .45-1 3.24 3.24 0 0 1 .67-.8 1.51 1.51 0 0 1 1-.33 3.71 3.71 0 0 1 .78.07v3.1a4.7 4.7 0 0 0-1.14 0 1.74 1.74 0 0 0-.89.44 2.16 2.16 0 0 0-.59 1 5.48 5.48 0 0 0-.21 1.67v5.27h-2.94zM460.43 86.32l2.55-.19v3.66h1.77v2.37H463v5.58a1.9 1.9 0 0 0 .15.55.75.75 0 0 0 .36.32 1.6 1.6 0 0 0 .63.1 3 3 0 0 0 .74-.07V101a9.07 9.07 0 0 1-1.14.24 6.14 6.14 0 0 1-.75.06 4.16 4.16 0 0 1-1.35-.23 1.94 1.94 0 0 1-1-.67 3.36 3.36 0 0 1-.34-.61 3.17 3.17 0 0 1-.19-.71 4.82 4.82 0 0 1-.08-.89V92.17h-1.21v-2.38h1.35zM468.22 97.63a3.21 3.21 0 0 0 .1.46 1.61 1.61 0 0 0 .21.49 1.18 1.18 0 0 0 .47.42 1.76 1.76 0 0 0 .75.14 1.43 1.43 0 0 0 .79-.2.74.74 0 0 0 .34-.67 1.06 1.06 0 0 0-.1-.48.92.92 0 0 0-.31-.38 2.76 2.76 0 0 0-.59-.36l-.94-.46a9.43 9.43 0 0 1-1.15-.62 4 4 0 0 1-.85-.72 3.14 3.14 0 0 1-.53-.9 3.45 3.45 0 0 1-.18-1.18 3.9 3.9 0 0 1 .26-1.42 3.52 3.52 0 0 1 .74-1.13 3.4 3.4 0 0 1 1.15-.74 3.83 3.83 0 0 1 1.51-.28 3.19 3.19 0 0 1 1.51.31 2.9 2.9 0 0 1 1 .77 3 3 0 0 1 .54 1c.12.33.2.63.27.89l-2.1.53c0-.09 0-.21-.07-.35a1.23 1.23 0 0 0-.18-.43 1.2 1.2 0 0 0-.38-.36 1.28 1.28 0 0 0-.63-.14c-.4 0-.66.09-.77.28a1 1 0 0 0-.18.52.89.89 0 0 0 .1.38 1.46 1.46 0 0 0 .42.39 7.33 7.33 0 0 0 .75.43l1.17.53a4.43 4.43 0 0 1 1.26.82 3.62 3.62 0 0 1 .69.92 3.08 3.08 0 0 1 .29.89 5.2 5.2 0 0 1 .06.7 3.89 3.89 0 0 1-.33 1.67 3 3 0 0 1-.86 1.14 3.61 3.61 0 0 1-1.23.64 4.85 4.85 0 0 1-1.43.21 4 4 0 0 1-2-.42 3.43 3.43 0 0 1-1.14-1 2.94 2.94 0 0 1-.53-1.12c-.09-.37-.14-.66-.17-.86z" class="cls-1" style="fill: rgb(164, 166, 190);"/>
</svg>