<?xml version="1.0" encoding="utf-8"?>
<svg id="Layer_1" data-name="Layer 1" viewBox="0 0 136.91 53.98" xmlns="http://www.w3.org/2000/svg">
  <path d="M15.94 23.48v3.78a3.4 3.4 0 0 1-.8 2.39 2.75 2.75 0 0 1-2.15.89 2.75 2.75 0 0 1-2.14-.89 3.45 3.45 0 0 1-.8-2.39v-3.78h1.25v4a1.86 1.86 0 0 0 .48 1.33 1.71 1.71 0 0 0 2.46 0 1.89 1.89 0 0 0 .47-1.33v-4h1.23M17.46 30.41v-3.78a3.42 3.42 0 0 1 .81-2.4 2.76 2.76 0 0 1 2.15-.88 2.75 2.75 0 0 1 2.14.88 3.46 3.46 0 0 1 .79 2.4v3.78h-1.23v-4a1.87 1.87 0 0 0-.47-1.33 1.71 1.71 0 0 0-2.46 0 1.87 1.87 0 0 0-.48 1.33v4h-1.25M24.93 20.88a.74.74 0 0 1 .21-.53.77.77 0 0 1 .54-.22.75.75 0 0 1 .75.75.75.75 0 0 1-.75.77.72.72 0 0 1-.53-.23.73.73 0 0 1-.22-.54m1.37 9.53h-1.24v-6.93h1.24zM31.71 30.41v-8.87h-3.73v-1.25h16.75v1.25H33.06v8.87h-1.35z" class="cls-1" style="fill: rgb(164, 166, 190);"/>
  <path d="M44.71 23.48v4a3.21 3.21 0 0 1-.71 2.24 2.57 2.57 0 0 1-2 .82 2.52 2.52 0 0 1-1.19-.28 2.59 2.59 0 0 1-.93-.79 2.89 2.89 0 0 1-1 .8 2.75 2.75 0 0 1-3.16-.56 3.18 3.18 0 0 1-.72-2.23v-4h1.24v4.22a1.65 1.65 0 0 0 .42 1.18 1.38 1.38 0 0 0 1.08.45 1.45 1.45 0 0 0 1.1-.45 1.67 1.67 0 0 0 .42-1.18v-4.22h1.23v4.22a1.69 1.69 0 0 0 .41 1.18 1.53 1.53 0 0 0 2.17 0 1.67 1.67 0 0 0 .42-1.18v-4.22h1.23M46.21 20.88a.71.71 0 0 1 .22-.53.73.73 0 0 1 .53-.22.75.75 0 0 1 .75.75.75.75 0 1 1-1.5 0m1.37 9.53h-1.24v-6.93h1.24zM49.19 30.41v-3.78a3.41 3.41 0 0 1 .8-2.4 3.05 3.05 0 0 1 4.29 0 3.46 3.46 0 0 1 .79 2.4v3.78h-1.23v-4a1.87 1.87 0 0 0-.47-1.33 1.71 1.71 0 0 0-2.46 0 1.87 1.87 0 0 0-.48 1.33v4h-1.24M19.09 8.25l-.06.04v.04l.06-.08zM20.45 9.05V9l-.32.23c-.24.35-.48.7-.69 1.06.56 1.26 2 3.14 5.67 4.33 0-.42.11-.89.19-1.37-3-1-4.51-2.63-4.84-4.16M33 14.35a28.48 28.48 0 0 1-6.41-.75c-.07.49-.13.94-.18 1.36a29.56 29.56 0 0 0 6.59.75v-1.36M17 11.81a28.51 28.51 0 0 0-2.29 8.29h1.39a26.6 26.6 0 0 1 3.33-9.85 3.37 3.37 0 0 1-.17-.42 22.9 22.9 0 0 0-2.23 2" class="cls-1" style="fill: rgb(164, 166, 190);"/>
  <path d="M19.12 9.34A4.71 4.71 0 0 1 19 8.29a26.75 26.75 0 0 0-9 11.84h1.5a26.07 26.07 0 0 1 5.5-8.32 22.9 22.9 0 0 1 2.23-2 3.9 3.9 0 0 1-.14-.49M24 5.51a24.35 24.35 0 0 0-3.19 1.6 2.37 2.37 0 0 0-.38 1.68v.17a22.56 22.56 0 0 1 7.32-3.25 16.63 16.63 0 0 1 1-1.6A23.75 23.75 0 0 0 24 5.51M25.1 14.58a20.82 20.82 0 0 0-.16 2.78h1.35a21.64 21.64 0 0 1 .15-2.4c-.48-.12-.92-.24-1.34-.38M25.29 13.2c.42.15.86.28 1.33.4a22.26 22.26 0 0 1 2.94-8.26c-.62.1-1.22.23-1.8.37a24.26 24.26 0 0 0-2.47 7.49M31.71 47.42l-.07.19a23.21 23.21 0 0 0 12.2-8.25 13.54 13.54 0 0 0-1.35-.54 23 23 0 0 1-10.42 7.25 7.14 7.14 0 0 1-.18.79M46.17 33.09a25.59 25.59 0 0 1-2.8 4.62 12.41 12.41 0 0 1 1.3.55 34.88 34.88 0 0 0 3-5.17h-1.5M47.36 42.54a21.23 21.23 0 0 1-14.29 5.37v1.36a22.31 22.31 0 0 0 14.18-4.87 2.68 2.68 0 0 0 .11-1.86M48.79 43.05a25.46 25.46 0 0 0 6.39-9.95h-1.43a22.91 22.91 0 0 1-5.35 8.46 4.09 4.09 0 0 1 .39 1.5M23.77 38.17l.6 1.22a13.55 13.55 0 0 1 1.92-.75c-.13-.45-.25-.89-.36-1.31a13 13 0 0 0-2.16.84M35.84 37.67a25.26 25.26 0 0 1 6.65 1.15c.3-.35.59-.72.88-1.11a25.26 25.26 0 0 0-7.46-1.39c-1.09-.07-2.1-.08-3 0v1.36h3M31.54 37.71c0-.48 0-.94.05-1.37a29.77 29.77 0 0 0-4.33.6c.1.42.22.86.35 1.32a26.57 26.57 0 0 1 3.93-.55" class="cls-1" style="fill: rgb(164, 166, 190);"/>
  <path d="M48.41 41.58a7.88 7.88 0 0 0-3.74-3.32c-.27.38-.55.75-.83 1.1 2.84 1.31 3.44 2.93 3.52 3.23.37-.33.72-.67 1-1M25.06 33.09c0 .17.31 2 .88 4.21l1.33-.36c-.58-2.23-.83-3.81-.84-3.85M30.6 46.43c.07-.27.14-.59.21-1a27.71 27.71 0 0 1-3.22-7.22q-.7.16-1.32.36a25.59 25.59 0 0 0 4.08 8.54l.07-.19" class="cls-1" style="fill: rgb(164, 166, 190);"/>
  <path d="M31.55 37.71a65.49 65.49 0 0 1-.75 7.77c.19.28.38.54.58.79l.69-.2a60.48 60.48 0 0 0 .84-8.44c-.47 0-.93 0-1.36.08M31.67 33.11s0 1.39-.07 3.24l1.4-.07c.05-1.74.06-3 .06-3.16M20.79 7.11c-.59.36-1.16.72-1.7 1.11h-.06a4.89 4.89 0 0 0 .09 1.07c0 .13.08.3.14.49a3.37 3.37 0 0 0 .17.42 12 12 0 0 1 .69-1.06l.32-.14a1 1 0 0 1 0-.17 2.36 2.36 0 0 1 .37-1.68M29.56 5.34a14.78 14.78 0 0 1 1.1-1.53c-.66.08-1.3.18-1.93.3-.35.52-.68 1.06-1 1.6.58-.14 1.18-.27 1.8-.37M26.62 13.6c-.47-.12-.91-.25-1.33-.4-.08.49-.14 1-.19 1.38.42.14.86.26 1.34.38 0-.42.11-.87.18-1.36M43.37 37.71c-.29.39-.58.76-.88 1.11a13.54 13.54 0 0 1 1.35.54c.28-.35.56-.72.83-1.1a12.41 12.41 0 0 0-1.3-.55M27.26 36.94l-1.33.36c.11.42.23.87.36 1.32q.62-.19 1.32-.36c-.13-.46-.25-.9-.35-1.32" class="cls-1" style="fill: rgb(164, 166, 190);"/>
  <path d="M32.91 37.63c0-.48 0-.93.05-1.36-.48 0-.93 0-1.37.07 0 .43 0 .89-.05 1.36.44 0 .89-.06 1.37-.07M31.38 46.27a9.37 9.37 0 0 1-.57-.79c-.07.36-.14.67-.21 1l-.12.36-.06.18-.07.19.14.16a1.83 1.83 0 0 0 .13.16l.11.13.14.15h.77l.07-.19.06-.17c0-.11.08-.25.12-.39a7.14 7.14 0 0 0 .18-.79l-.69.2M48.4 41.55l-1 1a2.79 2.79 0 0 1-.11 1.86 11.83 11.83 0 0 0 1.54-1.35 4.18 4.18 0 0 0-.39-1.5M66 20.66v-5.51h.75l2.89 4.32v-4.32h.7v5.51h-.75l-2.89-4.33v4.33zM74.2 19.37l.7.09a1.67 1.67 0 0 1-.61.95 2.07 2.07 0 0 1-2.53-.2 2.11 2.11 0 0 1-.51-1.51 2.23 2.23 0 0 1 .51-1.57 1.77 1.77 0 0 1 1.35-.55 1.73 1.73 0 0 1 1.31.54 2.17 2.17 0 0 1 .51 1.54v.18h-3a1.52 1.52 0 0 0 .38 1 1.07 1.07 0 0 0 .83.35 1.05 1.05 0 0 0 .64-.19 1.31 1.31 0 0 0 .42-.63zM72 18.28h2.23a1.36 1.36 0 0 0-.25-.76 1.05 1.05 0 0 0-.84-.39 1.12 1.12 0 0 0-.79.31 1.24 1.24 0 0 0-.35.84zM77.23 20.05l.1.6a2.5 2.5 0 0 1-.51.06 1.22 1.22 0 0 1-.57-.11.67.67 0 0 1-.29-.31 2.32 2.32 0 0 1-.08-.8v-2.3h-.5v-.52h.5v-1l.67-.41v1.4h.68v.52h-.68v2.34a1 1 0 0 0 0 .37.24.24 0 0 0 .11.13.49.49 0 0 0 .23 0zM78.63 20.66l-1.22-4h.7l.63 2.3.24.86.21-.82.63-2.34h.7l.59 2.34.2.77.23-.78.69-2.3h.66l-1.25 4h-.71l-.63-2.39-.16-.68-.8 3.07zM83.2 18.66a2.06 2.06 0 0 1 .62-1.66 1.82 1.82 0 0 1 1.25-.44 1.8 1.8 0 0 1 1.35.54 2 2 0 0 1 .52 1.49 2.71 2.71 0 0 1-.23 1.21 1.71 1.71 0 0 1-.67.69 2 2 0 0 1-1 .24 1.77 1.77 0 0 1-1.35-.54 2.12 2.12 0 0 1-.49-1.53zm.7 0a1.72 1.72 0 0 0 .33 1.15 1.12 1.12 0 0 0 1.68 0 1.77 1.77 0 0 0 .34-1.17 1.66 1.66 0 0 0-.34-1.12 1.12 1.12 0 0 0-1.68 0 1.69 1.69 0 0 0-.33 1.14zM87.73 20.66v-4h.61v.6a1.63 1.63 0 0 1 .43-.56.73.73 0 0 1 .43-.13 1.38 1.38 0 0 1 .7.21l-.24.63a.92.92 0 0 0-.49-.14.64.64 0 0 0-.4.13.7.7 0 0 0-.25.37 2.47 2.47 0 0 0-.12.79v2.09zM90.3 20.66v-5.51h.7v3.14l1.6-1.62h.88l-1.53 1.48 1.68 2.51h-.83l-1.32-2-.48.46v1.58zM96.45 20.66v-3.47h-.6v-.52h.6v-.43a1.81 1.81 0 0 1 .07-.6.89.89 0 0 1 .35-.42 1.21 1.21 0 0 1 .69-.17 3.79 3.79 0 0 1 .63.07l-.1.59a3 3 0 0 0-.4 0 .59.59 0 0 0-.44.14.72.72 0 0 0-.13.49v.37h.78v.52h-.78v3.47zM98.18 18.66a2.06 2.06 0 0 1 .61-1.66 1.85 1.85 0 0 1 1.26-.44 1.76 1.76 0 0 1 1.34.54 2 2 0 0 1 .53 1.49 2.71 2.71 0 0 1-.23 1.21 1.74 1.74 0 0 1-.68.69 2 2 0 0 1-1 .24 1.81 1.81 0 0 1-1.36-.54 2.16 2.16 0 0 1-.47-1.53zm.69 0a1.66 1.66 0 0 0 .34 1.15 1 1 0 0 0 .84.38 1.07 1.07 0 0 0 .84-.38 1.78 1.78 0 0 0 .33-1.17 1.66 1.66 0 0 0-.33-1.12 1.07 1.07 0 0 0-.84-.38 1 1 0 0 0-.84.38 1.64 1.64 0 0 0-.34 1.14zM102.7 20.66v-4h.61v.6a1.77 1.77 0 0 1 .43-.56.76.76 0 0 1 .44-.13 1.32 1.32 0 0 1 .69.21l-.23.63a1 1 0 0 0-.5-.14.66.66 0 0 0-.4.13.76.76 0 0 0-.25.37 2.79 2.79 0 0 0-.11.79v2.09zM107.52 20.66v-5.51h.73v2.26h2.87v-2.26h.73v5.51h-.73v-2.6h-2.87v2.6zM113 15.93v-.78h.68v.78zm0 4.73v-4h.68v4zM114.56 21l.66.1a.61.61 0 0 0 .23.44 1.11 1.11 0 0 0 .69.19 1.16 1.16 0 0 0 .72-.19.92.92 0 0 0 .35-.52 5 5 0 0 0 .05-.87 1.4 1.4 0 0 1-1.11.52 1.51 1.51 0 0 1-1.27-.59 2.32 2.32 0 0 1-.45-1.43 2.77 2.77 0 0 1 .2-1.05 1.62 1.62 0 0 1 .6-.75 1.59 1.59 0 0 1 .93-.26 1.43 1.43 0 0 1 1.16.57v-.48h.68v3.45a3.18 3.18 0 0 1-.2 1.32 1.31 1.31 0 0 1-.6.61 2.07 2.07 0 0 1-1 .23A1.91 1.91 0 0 1 115 22a1.09 1.09 0 0 1-.44-1zm.56-2.4a1.78 1.78 0 0 0 .31 1.15 1 1 0 0 0 1.57 0 1.68 1.68 0 0 0 .31-1.13 1.62 1.62 0 0 0-.32-1.1 1 1 0 0 0-.79-.37 1 1 0 0 0-.76.36 1.65 1.65 0 0 0-.32 1.08zM119 20.66v-5.51h.67v2a1.52 1.52 0 0 1 1.2-.55 1.68 1.68 0 0 1 .77.17 1.09 1.09 0 0 1 .47.48 2.35 2.35 0 0 1 .14.9v2.53h-.68v-2.55a1 1 0 0 0-.22-.74.81.81 0 0 0-.62-.23 1.16 1.16 0 0 0-.57.15.91.91 0 0 0-.37.43 1.82 1.82 0 0 0-.12.73v2.19zM126 19.37l.7.09a1.67 1.67 0 0 1-.61.95 2.07 2.07 0 0 1-2.53-.2 2.11 2.11 0 0 1-.56-1.51 2.23 2.23 0 0 1 .52-1.57 1.77 1.77 0 0 1 1.35-.55 1.73 1.73 0 0 1 1.31.54 2.17 2.17 0 0 1 .51 1.54v.18h-3a1.52 1.52 0 0 0 .38 1 1.07 1.07 0 0 0 .83.35 1.05 1.05 0 0 0 .64-.19 1.31 1.31 0 0 0 .46-.63zm-2.22-1.09H126a1.36 1.36 0 0 0-.25-.76 1.05 1.05 0 0 0-.84-.39 1.12 1.12 0 0 0-.79.31 1.24 1.24 0 0 0-.36.84zM127.52 20.66v-4h.61v.6a1.77 1.77 0 0 1 .43-.56.78.78 0 0 1 .44-.13 1.32 1.32 0 0 1 .69.21l-.23.63a1 1 0 0 0-.5-.14.61.61 0 0 0-.39.13.72.72 0 0 0-.26.37 2.79 2.79 0 0 0-.11.79v2.09zM66 29.06v-5.51h4v.65h-3.26v1.69h3.05v.64h-3.05v1.88h3.38v.65zM73.64 29.06v-.5a1.27 1.27 0 0 1-1.12.59 1.62 1.62 0 0 1-.88-.26 1.74 1.74 0 0 1-.62-.74 2.45 2.45 0 0 1-.22-1.08A2.94 2.94 0 0 1 71 26a1.58 1.58 0 0 1 1.49-1 1.34 1.34 0 0 1 .64.15 1.27 1.27 0 0 1 .46.4v-2h.67v5.51zm-2.14-2a1.69 1.69 0 0 0 .32 1.14 1 1 0 0 0 .76.38 1 1 0 0 0 .76-.36 1.71 1.71 0 0 0 .31-1.11 1.89 1.89 0 0 0-.32-1.2 1 1 0 0 0-.78-.38.92.92 0 0 0-.75.37 1.81 1.81 0 0 0-.3 1.17zM77.94 29.06v-.59a1.46 1.46 0 0 1-1.26.68A1.59 1.59 0 0 1 76 29a1 1 0 0 1-.46-.34 1.2 1.2 0 0 1-.21-.5 4.26 4.26 0 0 1 0-.63v-2.46H76v2.21a3.84 3.84 0 0 0 0 .72.73.73 0 0 0 .27.42.85.85 0 0 0 .51.15 1.11 1.11 0 0 0 .57-.16.82.82 0 0 0 .38-.42 2 2 0 0 0 .11-.78v-2.14h.68v4zM82.22 27.6l.66.08a1.72 1.72 0 0 1-.56 1.08 1.61 1.61 0 0 1-1.1.39 1.7 1.7 0 0 1-1.32-.54 2.15 2.15 0 0 1-.5-1.53 2.81 2.81 0 0 1 .22-1.08 1.46 1.46 0 0 1 .65-.73 1.94 1.94 0 0 1 1-.24 1.67 1.67 0 0 1 1.07.33 1.52 1.52 0 0 1 .53.93l-.66.1a1 1 0 0 0-.33-.6.84.84 0 0 0-.58-.21 1.06 1.06 0 0 0-.83.37 1.75 1.75 0 0 0-.32 1.16 1.76 1.76 0 0 0 .31 1.17 1 1 0 0 0 .8.36 1 1 0 0 0 .67-.24 1.2 1.2 0 0 0 .29-.8zM86.07 28.57a2.68 2.68 0 0 1-.73.45 2 2 0 0 1-.74.13 1.5 1.5 0 0 1-1-.32 1.09 1.09 0 0 1-.35-.82 1.1 1.1 0 0 1 .48-.93 1.67 1.67 0 0 1 .49-.22 5.21 5.21 0 0 1 .6-.1 6.67 6.67 0 0 0 1.18-.23v-.18a.72.72 0 0 0-.19-.58 1.09 1.09 0 0 0-.77-.23 1.19 1.19 0 0 0-.7.16 1 1 0 0 0-.34.6l-.66-.09a1.57 1.57 0 0 1 .3-.69 1.24 1.24 0 0 1 .59-.4 2.56 2.56 0 0 1 .91-.14 2.39 2.39 0 0 1 .83.12 1.12 1.12 0 0 1 .47.3 1.09 1.09 0 0 1 .21.46 4.28 4.28 0 0 1 0 .62v.91a8.81 8.81 0 0 0 0 1.19 1.38 1.38 0 0 0 .17.48h-.62a1.41 1.41 0 0 1-.13-.49zM86 27.06a5 5 0 0 1-1.11.25 2.68 2.68 0 0 0-.59.14.56.56 0 0 0-.26.22.51.51 0 0 0-.04.33.57.57 0 0 0 .21.45.86.86 0 0 0 .6.18 1.41 1.41 0 0 0 .69-.17 1 1 0 0 0 .4-.46 1.68 1.68 0 0 0 .1-.7zM89.22 28.45l.1.6a2.5 2.5 0 0 1-.51.06 1.22 1.22 0 0 1-.57-.11.62.62 0 0 1-.29-.31 2.32 2.32 0 0 1-.08-.8v-2.3h-.5v-.52h.5v-1l.67-.41v1.4h.68v.52h-.68v2.34a1 1 0 0 0 0 .37.24.24 0 0 0 .11.13.49.49 0 0 0 .23.05zM89.89 24.33v-.78h.67v.78zm0 4.73v-4h.67v4zM91.34 27.06a2.06 2.06 0 0 1 .66-1.64 1.82 1.82 0 0 1 1.21-.42 1.8 1.8 0 0 1 1.35.54 2 2 0 0 1 .52 1.46 2.56 2.56 0 0 1-.23 1.21 1.71 1.71 0 0 1-.67.69 2 2 0 0 1-1 .24 1.77 1.77 0 0 1-1.35-.54 2.12 2.12 0 0 1-.49-1.54zm.7 0a1.72 1.72 0 0 0 .33 1.15 1.06 1.06 0 0 0 .84.38 1 1 0 0 0 .84-.38 1.72 1.72 0 0 0 .34-1.21 1.66 1.66 0 0 0-.34-1.12 1 1 0 0 0-.84-.38 1.06 1.06 0 0 0-.84.38 1.69 1.69 0 0 0-.37 1.18zM95.88 29.06v-4h.6v.57a1.44 1.44 0 0 1 1.27-.63 1.6 1.6 0 0 1 .67.13 1 1 0 0 1 .45.34 1.26 1.26 0 0 1 .21.5 3.25 3.25 0 0 1 0 .65v2.46h-.68v-2.45a1.69 1.69 0 0 0-.08-.62.62.62 0 0 0-.28-.32.81.81 0 0 0-.47-.13 1.05 1.05 0 0 0-.74.28 1.34 1.34 0 0 0-.32 1v2.18zM102.3 24.33v-.78h.7v.78zm0 4.73v-4h.7v4zM104 29.06v-4h.61v.57a1.42 1.42 0 0 1 1.27-.66 1.59 1.59 0 0 1 .66.13 1 1 0 0 1 .45.34 1.26 1.26 0 0 1 .21.5 3.25 3.25 0 0 1 0 .65v2.46h-.67v-2.42a1.94 1.94 0 0 0-.08-.62.72.72 0 0 0-.28-.32.86.86 0 0 0-.48-.13 1.07 1.07 0 0 0-.74.28 1.34 1.34 0 0 0-.32 1v2.18zM111.91 28.45l.09.6a2.5 2.5 0 0 1-.51.06 1.28 1.28 0 0 1-.57-.11.64.64 0 0 1-.28-.31 2.24 2.24 0 0 1-.09-.8v-2.3h-.49v-.52h.49v-1l.68-.41v1.4h.68v.52h-.68v2.34a1.36 1.36 0 0 0 0 .37.3.3 0 0 0 .12.13.46.46 0 0 0 .23.05zM112.57 29.06v-5.51h.68v2a1.48 1.48 0 0 1 1.19-.55 1.68 1.68 0 0 1 .77.17 1.06 1.06 0 0 1 .47.49 2.26 2.26 0 0 1 .14.89v2.53h-.68v-2.55a1 1 0 0 0-.22-.74.81.81 0 0 0-.62-.23 1 1 0 0 0-.56.16.82.82 0 0 0-.38.42 1.86 1.86 0 0 0-.11.74v2.18zM119.58 27.77l.7.09a1.67 1.67 0 0 1-.61.95 2.07 2.07 0 0 1-2.53-.2 2.11 2.11 0 0 1-.51-1.51 2.25 2.25 0 0 1 .51-1.57 1.77 1.77 0 0 1 1.35-.55 1.73 1.73 0 0 1 1.31.54 2.18 2.18 0 0 1 .51 1.54 1.36 1.36 0 0 1 0 .18h-3a1.45 1.45 0 0 0 .37 1 1.07 1.07 0 0 0 .83.35 1.05 1.05 0 0 0 .64-.19 1.31 1.31 0 0 0 .43-.63zm-2.22-1.09h2.23a1.36 1.36 0 0 0-.25-.76 1.05 1.05 0 0 0-.84-.39 1.1 1.1 0 0 0-.79.32 1.2 1.2 0 0 0-.35.83zM66 37.46V32h2.08a5.61 5.61 0 0 1 .83.05 1.67 1.67 0 0 1 .68.26 1.39 1.39 0 0 1 .45.53 1.83 1.83 0 0 1-.28 1.94 2.13 2.13 0 0 1-1.62.49h-1.41v2.24zm.73-2.89h1.42a1.52 1.52 0 0 0 1-.26 1 1 0 0 0 .3-.74 1.08 1.08 0 0 0-.17-.6.83.83 0 0 0-.46-.32 3.32 3.32 0 0 0-.68 0h-1.41zM73.78 36.18l.7.08a1.72 1.72 0 0 1-.61 1 2.08 2.08 0 0 1-2.54-.2 2.11 2.11 0 0 1-.51-1.51 2.22 2.22 0 0 1 .52-1.57 1.74 1.74 0 0 1 1.35-.55 1.7 1.7 0 0 1 1.3.54 2.18 2.18 0 0 1 .51 1.54v.18h-3a1.54 1.54 0 0 0 .37 1 1.12 1.12 0 0 0 .84.35 1 1 0 0 0 .63-.2 1.26 1.26 0 0 0 .44-.66zm-2.22-1.1h2.23a1.33 1.33 0 0 0-.26-.75 1 1 0 0 0-.84-.4 1.06 1.06 0 0 0-.78.32 1.2 1.2 0 0 0-.35.83zM75.32 37.46v-4h.61v.6a1.63 1.63 0 0 1 .43-.56.75.75 0 0 1 .43-.13 1.3 1.3 0 0 1 .7.22l-.23.62a1.05 1.05 0 0 0-.5-.14.64.64 0 0 0-.4.13.7.7 0 0 0-.25.37 2.52 2.52 0 0 0-.11.79v2.09z" class="cls-1" style="fill: rgb(164, 166, 190);"/>
  <path d="M78.05 37.46V34h-.59v-.52h.59V33a1.73 1.73 0 0 1 .08-.59.84.84 0 0 1 .34-.43 1.21 1.21 0 0 1 .69-.16 3.7 3.7 0 0 1 .63.06l-.1.59h-.4a.61.61 0 0 0-.44.13.74.74 0 0 0-.12.49v.37h.78V34h-.78v3.47zM79.78 35.47a2.05 2.05 0 0 1 .62-1.65 1.87 1.87 0 0 1 1.25-.44 1.8 1.8 0 0 1 1.35.54 2 2 0 0 1 .52 1.49 2.68 2.68 0 0 1-.23 1.21 1.65 1.65 0 0 1-.67.69 2 2 0 0 1-1 .24A1.77 1.77 0 0 1 80.3 37a2.1 2.1 0 0 1-.52-1.53zm.7 0a1.69 1.69 0 0 0 .33 1.14 1.1 1.1 0 0 0 1.68 0 1.74 1.74 0 0 0 .34-1.17 1.66 1.66 0 0 0-.34-1.12 1.09 1.09 0 0 0-.84-.38 1 1 0 0 0-.84.38 1.7 1.7 0 0 0-.33 1.15zM84.31 37.46v-4h.61v.6a1.52 1.52 0 0 1 .43-.56.73.73 0 0 1 .43-.13 1.3 1.3 0 0 1 .7.22l-.24.62a1 1 0 0 0-.49-.14.64.64 0 0 0-.4.13.7.7 0 0 0-.25.37 2.52 2.52 0 0 0-.12.79v2.09zM86.88 37.46v-4h.6V34a1.5 1.5 0 0 1 .5-.47 1.41 1.41 0 0 1 .71-.18 1.34 1.34 0 0 1 .73.18 1 1 0 0 1 .4.52 1.44 1.44 0 0 1 1.24-.7 1.21 1.21 0 0 1 .91.33 1.41 1.41 0 0 1 .32 1v2.74h-.67V35a2 2 0 0 0-.07-.59.56.56 0 0 0-.24-.29.76.76 0 0 0-.41-.1.93.93 0 0 0-.69.27 1.23 1.23 0 0 0-.28.9v2.32h-.68v-2.64a1.08 1.08 0 0 0-.17-.68.62.62 0 0 0-.54-.22.88.88 0 0 0-.52.15.83.83 0 0 0-.36.44 2.56 2.56 0 0 0-.1.83v2.07zM93.3 32.73V32h.7v.78zm0 4.73v-4h.7v4zM95 37.46v-4h.61V34a1.44 1.44 0 0 1 1.27-.66 1.67 1.67 0 0 1 .67.13 1 1 0 0 1 .45.34 1.33 1.33 0 0 1 .21.5 4.32 4.32 0 0 1 0 .66v2.45h-.68V35a1.94 1.94 0 0 0-.08-.62.62.62 0 0 0-.28-.32.89.89 0 0 0-.47-.12 1.11 1.11 0 0 0-.75.27 1.35 1.35 0 0 0-.31 1v2.18zM99.16 37.79l.66.1a.61.61 0 0 0 .23.44 1.11 1.11 0 0 0 .69.19 1.16 1.16 0 0 0 .72-.19.92.92 0 0 0 .35-.52 5 5 0 0 0 0-.87 1.4 1.4 0 0 1-1.11.52 1.51 1.51 0 0 1-1.27-.59 2.3 2.3 0 0 1-.43-1.43 2.59 2.59 0 0 1 .2-1 1.73 1.73 0 0 1 .6-.75 1.65 1.65 0 0 1 .92-.26 1.43 1.43 0 0 1 1.17.57v-.48h.62v3.45a3.21 3.21 0 0 1-.19 1.32 1.33 1.33 0 0 1-.6.62 2.07 2.07 0 0 1-1 .22 1.91 1.91 0 0 1-1.15-.32 1.07 1.07 0 0 1-.41-1.02zm.56-2.4a1.78 1.78 0 0 0 .31 1.15 1 1 0 0 0 1.57 0 1.67 1.67 0 0 0 .31-1.12 1.69 1.69 0 0 0-.32-1.11 1 1 0 0 0-.79-.37 1 1 0 0 0-.76.37 1.6 1.6 0 0 0-.32 1.08zM105.19 37.46L107.3 32h.79l2.26 5.51h-.83l-.65-1.67h-2.3l-.57 1.62zm1.59-2.26h1.87l-.58-1.53q-.25-.69-.39-1.14a6.9 6.9 0 0 1-.3 1zM110.83 37.46v-4h.61v.6a1.63 1.63 0 0 1 .44-.56.73.73 0 0 1 .43-.13 1.25 1.25 0 0 1 .69.22l-.23.62a1 1 0 0 0-.49-.14.62.62 0 0 0-.4.13.65.65 0 0 0-.25.37 2.52 2.52 0 0 0-.12.79v2.09zM114.88 36.86l.1.59a2.5 2.5 0 0 1-.51.06 1.28 1.28 0 0 1-.57-.11.67.67 0 0 1-.29-.31 2.61 2.61 0 0 1-.08-.8V34H113v-.52h.49v-1l.67-.41v1.4h.68V34h-.68v2.34a1.23 1.23 0 0 0 0 .37.22.22 0 0 0 .12.13.37.37 0 0 0 .23.05zM115.28 36.27l.67-.11a.91.91 0 0 0 .31.62 1.1 1.1 0 0 0 .74.22 1.09 1.09 0 0 0 .69-.19.59.59 0 0 0 .23-.45.42.42 0 0 0-.2-.36 3.06 3.06 0 0 0-.69-.23 6.14 6.14 0 0 1-1-.33.94.94 0 0 1-.43-.38 1 1 0 0 1-.15-.53 1.08 1.08 0 0 1 .12-.5 1.06 1.06 0 0 1 .33-.37 1.32 1.32 0 0 1 .43-.2 2.45 2.45 0 0 1 1.41 0 1.14 1.14 0 0 1 .53.37 1.41 1.41 0 0 1 .23.62l-.66.09a.71.71 0 0 0-.26-.48.94.94 0 0 0-.61-.18 1.16 1.16 0 0 0-.67.16.45.45 0 0 0-.2.36.36.36 0 0 0 .09.24.62.62 0 0 0 .25.18l.6.17a8.49 8.49 0 0 1 1 .31 1.08 1.08 0 0 1 .45.36 1 1 0 0 1 .16.58 1.1 1.1 0 0 1-.2.64 1.35 1.35 0 0 1-.56.46 2.08 2.08 0 0 1-.85.16 1.89 1.89 0 0 1-1.18-.32 1.47 1.47 0 0 1-.58-.91z" class="cls-1" style="fill: rgb(164, 166, 190);"/>
</svg>