<?xml version="1.0" encoding="utf-8"?>
<svg id="Layer_1" data-name="Layer 1" viewBox="0 0 200.3 76.92" xmlns="http://www.w3.org/2000/svg">
  <path d="M153.2 33.63v5.43a2.67 2.67 0 0 0-1-.76 2.16 2.16 0 0 0-.85-.41 7.87 7.87 0 0 0-1-.12 3.65 3.65 0 0 0-3.18 1.61 6.74 6.74 0 0 0-1.09 4 5.65 5.65 0 0 0 1 3.54 3.18 3.18 0 0 0 2.92 1.4 3.43 3.43 0 0 0 1.94-.57 3.36 3.36 0 0 0 1.28-1.57v1.89h2.74V33.63zm0 7v4a5.15 5.15 0 0 1-1 1.09 1.75 1.75 0 0 1-1.21.44 1.55 1.55 0 0 1-1.45-.84 4.52 4.52 0 0 1-.44-2.26 5.85 5.85 0 0 1 .52-2.45 1.65 1.65 0 0 1 1.61-1.05 2.8 2.8 0 0 1 1 .2 4.1 4.1 0 0 1 1 .85M143 39.06a3 3 0 0 0-1.41-1 6.12 6.12 0 0 0-2-.32 10.65 10.65 0 0 0-3.66.73v1.89a6.44 6.44 0 0 1 3.14-.93 2.61 2.61 0 0 1 1.33.32 1.42 1.42 0 0 1 .48 1.25v.89h-.68a6 6 0 0 0-4 1 3 3 0 0 0-1.16 2.46 2.74 2.74 0 0 0 2.96 2.96 7.42 7.42 0 0 0 1-.08 2.45 2.45 0 0 0 .85-.4 5.86 5.86 0 0 0 1-.84h.16a1.69 1.69 0 0 0 .85 1.08 2.35 2.35 0 0 0 1.28.24 4.14 4.14 0 0 0 1.49-.24l-.08-1.57a.49.49 0 0 1-.32.09 1.32 1.32 0 0 1-.52-.17c-.2-.16-.24-.48-.24-1.08V41a3 3 0 0 0-.53-1.89m-2.73 4.43h.64v2a5 5 0 0 1-1 .72 2.16 2.16 0 0 1-1 .21 1.16 1.16 0 0 1-.89-.41 1 1 0 0 1-.4-.88 1.35 1.35 0 0 1 .64-1.17 3.3 3.3 0 0 1 1.94-.52M132.56 33.63h-2.74v5.43a2.67 2.67 0 0 0-1-.76 2 2 0 0 0-.85-.41 7.87 7.87 0 0 0-1-.12 3.63 3.63 0 0 0-3.14 1.61 6.75 6.75 0 0 0-1.13 4 5.43 5.43 0 0 0 1 3.54 3.11 3.11 0 0 0 2.77 1.41 3.19 3.19 0 0 0 1.94-.57 3.36 3.36 0 0 0 1.28-1.57v1.9h2.74zm-5 12.55a1.52 1.52 0 0 1-1.41-.84 4.52 4.52 0 0 1-.44-2.26 5.85 5.85 0 0 1 .48-2.45 1.7 1.7 0 0 1 1.65-1.05 2.61 2.61 0 0 1 1 .21 3.72 3.72 0 0 1 1 .84v4a6.23 6.23 0 0 1-1 1.09 1.93 1.93 0 0 1-1.25.44M117.55 34.11h2.7v2.25h-2.7zM117.55 38.05h2.7v10.02h-2.7zM137.55 57.75a3.81 3.81 0 0 1 3.34-1.53 5.59 5.59 0 0 1 1.17.12c.4.08.84.12 1.32.24a8.81 8.81 0 0 1 1.65.57v-2.22a19.1 19.1 0 0 0-4.3-.52c-2.54 0-4.35.65-5.51 2a7.28 7.28 0 0 0-1.74 5.11 7.39 7.39 0 0 0 1.74 5c1.16 1.37 2.89 2 5.31 2h1.61c.61 0 1-.2 1.49-.28a9.93 9.93 0 0 0 1.56-.53v-2a9.17 9.17 0 0 1-3.94 1 4.28 4.28 0 0 1-3.58-1.45 5.38 5.38 0 0 1-1.21-3.75 6.08 6.08 0 0 1 1.09-3.7M124.23 58.76a2.94 2.94 0 0 0-2-.81 3.65 3.65 0 0 0-1.81.53 4.35 4.35 0 0 0-1.65 1.61v-1.86h-2.7v10h2.7V61.9a4.93 4.93 0 0 1 1.32-1.41 1.9 1.9 0 0 1 1.17-.4 1.19 1.19 0 0 1 .56.2.83.83 0 0 1 .41.44 2.21 2.21 0 0 1 .2 1.13v6.4H125v-7.13a3 3 0 0 0-.8-2.37M164.51 58a3 3 0 0 0-1.85.61 3.7 3.7 0 0 0-1.29 1.53v-1.91h-2.73v10h2.73V61.9a2.85 2.85 0 0 1 1.17-1.21 2.37 2.37 0 0 1 1.49-.48 2 2 0 0 1 1 .28V58a1.18 1.18 0 0 0-.52-.08M155.22 61.13a2.7 2.7 0 0 0-1.94-2.86 6.12 6.12 0 0 0-2-.32 10.6 10.6 0 0 0-3.66.73v1.89a6.47 6.47 0 0 1 3.18-.93 2.59 2.59 0 0 1 1.29.32 1.43 1.43 0 0 1 .52 1.25v.89h-.72a6 6 0 0 0-3.95 1 3 3 0 0 0-1.16 2.46 2.83 2.83 0 0 0 .76 2.05 2.87 2.87 0 0 0 2.13.89 4.26 4.26 0 0 0 1.05-.17 1.72 1.72 0 0 0 .84-.4 5 5 0 0 0 1-.8h.12a1.69 1.69 0 0 0 .85 1.08 2.34 2.34 0 0 0 1.28.29 4.32 4.32 0 0 0 1.49-.29l-.08-1.57a.54.54 0 0 1-.32.08.94.94 0 0 1-.52-.2c-.2-.12-.24-.44-.24-1zm-5.84 4.23a1.35 1.35 0 0 1 .64-1.17 3.39 3.39 0 0 1 1.94-.52h.68v2a6.38 6.38 0 0 1-1 .72 2.75 2.75 0 0 1-1 .2 1.31 1.31 0 0 1-.89-.4 1 1 0 0 1-.4-.88M167.17 53.81h2.74v14.45h-2.74zM192 58.35a12.71 12.71 0 0 0-2.9-.4 4.48 4.48 0 0 0-3.14.93A2.65 2.65 0 0 0 185 61a2.23 2.23 0 0 0 .64 1.73 5.54 5.54 0 0 0 2.13 1.27l.89.36a4.23 4.23 0 0 1 1.05.6 1 1 0 0 1 .32.73.82.82 0 0 1-.45.76 2.27 2.27 0 0 1-1.24.32 9.15 9.15 0 0 1-3.42-.84v2a11.8 11.8 0 0 0 3.62.61 4.73 4.73 0 0 0 3.18-1 3 3 0 0 0 1.08-2.25 2.66 2.66 0 0 0-.56-1.69 8.38 8.38 0 0 0-2.62-1.41l-.76-.28a3.86 3.86 0 0 1-1-.57.78.78 0 0 1-.24-.6A1 1 0 0 1 188 60a2.42 2.42 0 0 1 1.29-.24 9.81 9.81 0 0 1 2.74.49zM182.06 66a6 6 0 0 0 .64-2.82 5.68 5.68 0 0 0-.64-2.69 4.17 4.17 0 0 0-1.73-1.89 5.7 5.7 0 0 0-2.86-.65 5.4 5.4 0 0 0-2.78.65 4.49 4.49 0 0 0-1.77 1.89 5.68 5.68 0 0 0-.64 2.69 6 6 0 0 0 .64 2.82 4.17 4.17 0 0 0 1.77 1.85 5.13 5.13 0 0 0 2.78.69 5.42 5.42 0 0 0 2.86-.69 3.89 3.89 0 0 0 1.73-1.85m-6.28-5.31a1.89 1.89 0 0 1 1.69-1 1.85 1.85 0 0 1 1.73 1 4.88 4.88 0 0 1 .6 2.49 5.26 5.26 0 0 1-.6 2.62 1.86 1.86 0 0 1-1.73 1 1.9 1.9 0 0 1-1.69-1 5.74 5.74 0 0 1-.56-2.62 5.32 5.32 0 0 1 .56-2.49M20.05 14.8a4.11 4.11 0 0 0-3 1.28 4.17 4.17 0 0 0-1.28 3.08 3.94 3.94 0 0 0 1.28 3 4 4 0 0 0 3 1.32 4.16 4.16 0 0 0 3.07-1.32 4.06 4.06 0 0 0 1.28-3 4.37 4.37 0 0 0-4.35-4.36M27.44 16.08a4.22 4.22 0 0 0-1.21 3.08 4 4 0 0 0 1.21 3 4.12 4.12 0 0 0 3.08 1.32 4.06 4.06 0 0 0 3-1.32 4.06 4.06 0 0 0 1.28-3 4.29 4.29 0 0 0-1.28-3.08 4.18 4.18 0 0 0-3-1.28 4.24 4.24 0 0 0-3.08 1.28M60.73 38.05H58v10h2.74v-6.33A4.9 4.9 0 0 1 62 40.31a2.31 2.31 0 0 1 1.17-.4 1.19 1.19 0 0 1 .6.2.76.76 0 0 1 .37.44 2.21 2.21 0 0 1 .2 1.13v6.4H67V41a2.87 2.87 0 0 0-.84-2.37 2.82 2.82 0 0 0-2-.81 3.9 3.9 0 0 0-1.81.53 4.27 4.27 0 0 0-1.61 1.61zM54.77 34.55h-2.46V43a4.28 4.28 0 0 1-.72 2.78 2.39 2.39 0 0 1-1.93.77 2.62 2.62 0 0 1-1.93-.77 4.08 4.08 0 0 1-.81-3v-8.23h-2.81v8.29a6.83 6.83 0 0 0 .68 3.42 4.55 4.55 0 0 0 2 1.61 6.55 6.55 0 0 0 2.82.53 5.85 5.85 0 0 0 2.86-.57 4.19 4.19 0 0 0 1.69-1.65 6.16 6.16 0 0 0 .64-3.34zM34.91 34.89h-7.22v20.33a7.25 7.25 0 0 1-4.12 7 8.49 8.49 0 0 1-7.74.11c-2-.94-3.05-3-3.05-6.16V34.89H5.56V58.4a9.28 9.28 0 0 0 5.32 8.86 12.72 12.72 0 0 0 12.41 0c2.84-1.45 4.33-3.15 4.4-5.12v6h7.22zM61.05 58a5 5 0 0 0-2.66.73 4.58 4.58 0 0 0-1.61 1.89 6.08 6.08 0 0 0 .08 5.38 3.78 3.78 0 0 0 1.93 1.85 5 5 0 0 0 2.78.69 12.38 12.38 0 0 0 3.7-.61V66a8.52 8.52 0 0 1-3.06.64 4.56 4.56 0 0 1-1.69-.32 2.56 2.56 0 0 1-1-.92 7.28 7.28 0 0 1-.52-1.61h6.23c0-2.26-.4-3.74-1.16-4.59a4 4 0 0 0-3.02-1.2m-1.41 2.42a1.41 1.41 0 0 1 1.29-.65 1.47 1.47 0 0 1 1.2.57 3 3 0 0 1 .49 1.93H59a3.57 3.57 0 0 1 .6-1.85M53 56.26a3.45 3.45 0 0 0-1.33-1.17 6.14 6.14 0 0 0-2.37-.36h-5v13.52h2.65v-5.51h1.53l3.38 5.51h3.42l-4.45-6.35a4.24 4.24 0 0 0 1.89-1.53 4.39 4.39 0 0 0 .68-2.3 3.4 3.4 0 0 0-.4-1.81m-3 .81a1.6 1.6 0 0 1 .6 1.33 2.48 2.48 0 0 1-.72 1.69 3 3 0 0 1-2.37.8h-.65v-4.31h1a3.21 3.21 0 0 1 2.17.49M113.81 38.18a12.62 12.62 0 0 0-2.94-.41 4.35 4.35 0 0 0-3.1.93 2.59 2.59 0 0 0-1 2.13 2.27 2.27 0 0 0 .65 1.73 5 5 0 0 0 2.17 1.25l.88.36a3.94 3.94 0 0 1 1 .61 1 1 0 0 1 .36.72.91.91 0 0 1-.44.76 2.2 2.2 0 0 1-1.25.33 8.39 8.39 0 0 1-3.42-.85v2a11.64 11.64 0 0 0 3.63.57 4.39 4.39 0 0 0 3.13-1 3 3 0 0 0 1.13-2.25 2.48 2.48 0 0 0-.6-1.69 8.18 8.18 0 0 0-2.62-1.37l-.76-.28a2.68 2.68 0 0 1-1-.57.78.78 0 0 1-.24-.6 1 1 0 0 1 .4-.77 2.4 2.4 0 0 1 1.29-.24 9 9 0 0 1 2.74.53zM104.35 37.77a3.14 3.14 0 0 0-1.89.61 3.63 3.63 0 0 0-1.29 1.52v-1.85h-2.7v10h2.7v-6.34a3 3 0 0 1 1.17-1.2 2.4 2.4 0 0 1 1.49-.44 2.16 2.16 0 0 1 1 .24v-2.46a1.18 1.18 0 0 0-.52-.08M94.45 39a4 4 0 0 0-3.06-1.25 5.11 5.11 0 0 0-2.66.73 4.69 4.69 0 0 0-1.61 1.89 6.4 6.4 0 0 0 .09 5.43 3.86 3.86 0 0 0 1.93 1.85 5.08 5.08 0 0 0 2.77.64 12.48 12.48 0 0 0 3.71-.56v-1.91a8.46 8.46 0 0 1-3.06.65 3.93 3.93 0 0 1-1.69-.33 2.2 2.2 0 0 1-1-.92 5.57 5.57 0 0 1-.48-1.61h6.24c0-2.26-.41-3.74-1.17-4.59m-5.07 3a3.57 3.57 0 0 1 .6-1.85 1.42 1.42 0 0 1 1.29-.65 1.57 1.57 0 0 1 1.25.57A3.11 3.11 0 0 1 93 42zM85.44 38.05H83.5l-2.77 7.25-2.86-7.25h-2.86l3.91 10.03h2.65l3.87-10.03zM70.3 38.05h2.74v10.02H70.3zM70.3 34.11h2.74v2.25H70.3zM86.6 54.73v11.83a4.07 4.07 0 0 1-.2 1.69c-.16.33-.36.53-.56.57a1.77 1.77 0 0 1-.93.2 7.16 7.16 0 0 1-2.25-.36v2a13.54 13.54 0 0 0 2.45.28 5.75 5.75 0 0 0 2.54-.48A3.76 3.76 0 0 0 89 69a6 6 0 0 0 .44-2.78V54.73zM75.01 58.23l-2.9 6.72-2.53-6.72h-2.82l3.66 10.02-2.25 3.63h2.7l6.24-13.65h-2.1zM110.63 58.27a6.15 6.15 0 0 0-1.93-.27 10.69 10.69 0 0 0-3.71.73v1.89a6.5 6.5 0 0 1 3.18-.93 2.19 2.19 0 0 1 1.25.32 1.36 1.36 0 0 1 .56 1.25v.89h-.72a6 6 0 0 0-4 1 3.15 3.15 0 0 0-1.16 2.46 2.83 2.83 0 0 0 .76 2.05 2.89 2.89 0 0 0 2.14.89 4.18 4.18 0 0 0 1-.17 1.6 1.6 0 0 0 .85-.4 5.19 5.19 0 0 0 1-.8h.12a1.75 1.75 0 0 0 .85 1.08 2.27 2.27 0 0 0 1.29.29 4.24 4.24 0 0 0 1.49-.29l-.08-1.57a.58.58 0 0 1-.33.08.83.83 0 0 1-.48-.2c-.2-.12-.28-.44-.28-1v-4.44a3 3 0 0 0-.53-1.89 3 3 0 0 0-1.4-1m-3.91 7.09a1.34 1.34 0 0 1 .65-1.17 3.38 3.38 0 0 1 2-.52h.76v2a6.65 6.65 0 0 1-1 .72 2.84 2.84 0 0 1-1 .2 1.28 1.28 0 0 1-.88-.4 1.12 1.12 0 0 1-.41-.88M101.77 58.23H99v6.32A5.33 5.33 0 0 1 97.75 66a2.58 2.58 0 0 1-1.17.36.9.9 0 0 1-.6-.2.59.59 0 0 1-.36-.44 2.13 2.13 0 0 1-.2-1.09v-6.4h-2.74v7.13a3 3 0 0 0 .92 2.37 2.87 2.87 0 0 0 2 .81 3.57 3.57 0 0 0 1.83-.54A4.12 4.12 0 0 0 99 66.36v1.89h2.73zM9.67 25.87h20.85v3.67H9.67zM6.56 16.08a4.25 4.25 0 0 0-1.24 3.08 4 4 0 0 0 1.24 3 4.1 4.1 0 0 0 3 1.32 4.22 4.22 0 0 0 3.08-1.32 4 4 0 0 0 1.21-3 4.22 4.22 0 0 0-1.21-3.08A4.34 4.34 0 0 0 9.6 14.8a4.21 4.21 0 0 0-3 1.28" class="cls-1" style="fill: rgb(164, 166, 190);"/>
  <path d="M27.69 62.17v6h7.22V34.89h-7.22v20.33a7.27 7.27 0 0 1-4.12 7 8.49 8.49 0 0 1-7.74.11c-2-.94-3.05-3-3.05-6.16V34.89H5.56V58.4a9.28 9.28 0 0 0 5.32 8.86 12.72 12.72 0 0 0 12.41 0c2.84-1.45 4.33-3.15 4.4-5.12m0-.31v.31M26.23 19.16a4 4 0 0 0 1.21 3 4.12 4.12 0 0 0 3.08 1.32 4.06 4.06 0 0 0 3-1.32 4.06 4.06 0 0 0 1.28-3 4.29 4.29 0 0 0-1.28-3.08 4.18 4.18 0 0 0-3-1.28 4.25 4.25 0 0 0-4.29 4.36m-9.16-3.08a4.17 4.17 0 0 0-1.28 3.08 3.94 3.94 0 0 0 1.28 3 4 4 0 0 0 3 1.32 4.17 4.17 0 0 0 3.08-1.32 4.06 4.06 0 0 0 1.28-3A4.37 4.37 0 0 0 20 14.8a4.11 4.11 0 0 0-3 1.28m-7.4 9.79h20.92v3.66H9.67zm-4.29-6.71a4 4 0 0 0 1.25 3 4.1 4.1 0 0 0 3 1.32 4.23 4.23 0 0 0 3.08-1.32 4 4 0 0 0 1.21-3 4.22 4.22 0 0 0-1.21-3.08A4.35 4.35 0 0 0 9.6 14.8a4.21 4.21 0 0 0-3 1.28 4.26 4.26 0 0 0-1.25 3.08m12.11-9A2.35 2.35 0 0 0 20 12.8a2.37 2.37 0 0 0 2.7-2.67A2.37 2.37 0 0 0 20 7.47a2.36 2.36 0 0 0-2.62 2.66" class="cls-1" style="fill: rgb(164, 166, 190);"/>
</svg>